<svg xmlns="http://www.w3.org/2000/svg" xmlns:xlink="http://www.w3.org/1999/xlink" width="139.471" height="41.335" viewBox="0 0 139.471 41.335">
  <defs>
    <clipPath id="clip-path">
      <rect id="사각형_163" data-name="사각형 163" width="139.133" height="40.145" fill="#e6ae16"/>
    </clipPath>
  </defs>
  <g id="에그텍" transform="matrix(1, 0.009, -0.009, 1, 0.343, 0)">
    <g id="그룹_215" data-name="그룹 215" transform="translate(0 0)">
      <g id="그룹_214" data-name="그룹 214" clip-path="url(#clip-path)">
        <path id="패스_226" data-name="패스 226" d="M20.736,27.284v4.8h-8.98q-6.624,0-9.552-3.841A12.688,12.688,0,0,1,0,20.422c0-3.4.823-6.072,2.48-8.048Q5.473,8.8,11.756,8.8h8.98v4.8H12.591a8.608,8.608,0,0,0-4.254.751c-1,.614-1.5,1.84-1.5,3.658h13.9V22.94H6.833c0,1.745.38,2.909,1.13,3.481s2.282.864,4.578.864Z" transform="translate(0 -0.303)" fill="#e6ae16"/>
        <path id="패스_227" data-name="패스 227" d="M36.14,8.8H47.356V31.212q0,4.992-2.3,7.2-2.117,2.035-6.525,2.036H26.478V35.709H37.412c2.462,0,3.7-1.2,3.7-3.621H36.125q-6.574,0-9.608-3.537A11.875,11.875,0,0,1,23.951,20.5a12.04,12.04,0,0,1,2.566-8.086Q29.606,8.794,36.14,8.8m1.795,18.488h3.178V13.816a11.98,11.98,0,0,0-2.87-.351,8.553,8.553,0,0,0-5.334,1.55A6.653,6.653,0,0,0,30.4,20.707c0,2.444.64,4.178,1.939,5.21,1.138.914,3.012,1.368,5.594,1.368" transform="translate(-0.824 -0.303)" fill="#e6ae16"/>
        <path id="패스_228" data-name="패스 228" d="M63.982,8.8H75.2V31.212q0,4.992-2.295,7.2c-1.409,1.357-3.6,2.036-6.537,2.036H54.314V35.709H65.246q3.714,0,3.711-3.621H63.973q-6.577,0-9.613-3.537C52.648,26.577,51.8,23.895,51.8,20.5a12.046,12.046,0,0,1,2.558-8.086C56.417,10,59.634,8.8,63.982,8.8m1.8,18.488h3.175V13.816a12.007,12.007,0,0,0-2.861-.351,8.527,8.527,0,0,0-5.336,1.55,6.658,6.658,0,0,0-2.526,5.692c0,2.444.654,4.178,1.948,5.21,1.148.914,3.007,1.368,5.6,1.368" transform="translate(-1.782 -0.303)" fill="#e6ae16"/>
        <path id="패스_229" data-name="패스 229" d="M83.143,13.163H78.829V8.494h4.314V0h6.1V8.494h6.568v4.669H89.247v9.373c0,1.9.4,3.148,1.177,3.718s2.37.859,4.78.859h.611v4.673H90.222a6.942,6.942,0,0,1-5.277-1.9,7.445,7.445,0,0,1-1.8-5.34Z" transform="translate(-2.712 0)" fill="#e6ae16"/>
        <path id="패스_230" data-name="패스 230" d="M119.444,27.284v4.8h-8.98c-4.418,0-7.608-1.281-9.545-3.841a12.646,12.646,0,0,1-2.207-7.826,12.169,12.169,0,0,1,2.471-8.048Q104.189,8.8,110.464,8.8h8.98v4.8h-8.151a8.566,8.566,0,0,0-4.245.751c-1,.614-1.514,1.84-1.514,3.658h13.909V22.94H105.535c0,1.745.379,2.909,1.136,3.481s2.279.864,4.585.864Z" transform="translate(-3.396 -0.303)" fill="#e6ae16"/>
        <path id="패스_231" data-name="패스 231" d="M136.906,27.09h6.452v5h-8.265q-6.066,0-9.176-3.073T122.8,20.5a12.638,12.638,0,0,1,2.076-7.643q3-4.069,10.22-4.066h8.265V13.86h-6.452c-2.561,0-4.352.339-5.388,1.018q-2.207,1.458-2.206,5.617a6.964,6.964,0,0,0,1.188,4.467q1.772,2.133,6.4,2.128" transform="translate(-4.225 -0.303)" fill="#e6ae16"/>
      </g>
    </g>
  </g>
</svg>
