<svg xmlns="http://www.w3.org/2000/svg" xmlns:xlink="http://www.w3.org/1999/xlink" width="236" height="26.165" viewBox="0 0 236 26.165">
  <defs>
    <clipPath id="clip-path">
      <rect id="사각형_2267" data-name="사각형 2267" width="236" height="26.165" fill="none"/>
    </clipPath>
  </defs>
  <g id="그룹_2369" data-name="그룹 2369" transform="translate(0 0)">
    <g id="그룹_1525" data-name="그룹 1525" transform="translate(0 0)" clip-path="url(#clip-path)">
      <path id="패스_2750" data-name="패스 2750" d="M323.587,6.227a2.57,2.57,0,0,1-2.068-.006.644.644,0,0,1,0-1.176,2.144,2.144,0,0,1,1.038-.214,2.106,2.106,0,0,1,1.024.214.649.649,0,0,1,.006,1.182M324.2.293h-3.332V1.45H324.2Zm1.5,1.76h-6.323V3.222H325.7Zm3.6,1.471h-1.4V.368h-1.32V8.477h1.32V4.857h1.4Zm-4.677.748a3.364,3.364,0,0,0-2.075-.572,3.481,3.481,0,0,0-2.049.566,1.657,1.657,0,0,0-.8,1.383,1.66,1.66,0,0,0,.8,1.339,3.941,3.941,0,0,0,4.123.005,1.667,1.667,0,0,0,.761-1.345,1.689,1.689,0,0,0-.754-1.377m3.621,5.639h-5.972v-1.8h-1.4v3.067h7.368Z" transform="translate(-183.178 -0.168)" fill="#004b93"/>
      <path id="패스_2751" data-name="패스 2751" d="M355.236,6.574h-4.488V8.41h3.244v3.646h-1.307V9.692H346.41V8.41h2.954V6.574h-4.087V5.3h6.966c.075-.352.157-.766.245-1.245a13.024,13.024,0,0,0,.183-1.408h-6.287V1.382h7.807a8.37,8.37,0,0,1-.088.968q-.088.667-.163,1.119-.114.629-.189,1.037c-.05.273-.1.539-.163.8h1.647Z" transform="translate(-198.034 -0.793)" fill="#004b93"/>
      <path id="패스_2752" data-name="패스 2752" d="M381.519,8.456h-1.308V4.319h-2V2.987h2V.46h1.308Zm.214,2.817h-7.494V7.665h1.308V10h6.186Zm-6.752-8.889h-1.911V1.089h5.23V2.384h-1.925v.163a2.865,2.865,0,0,0,.246,1.207,2.786,2.786,0,0,0,.672.931,5.39,5.39,0,0,0,.754.591,4.092,4.092,0,0,0,.742.353L378,6.759a5.163,5.163,0,0,1-.565-.276,5.665,5.665,0,0,1-.7-.491,4.2,4.2,0,0,1-.573-.521c-.164-.18-.321-.366-.472-.56a4.122,4.122,0,0,1-.415.635,4.528,4.528,0,0,1-.617.635,5.172,5.172,0,0,1-.76.565q-.358.214-.648.365l-.93-1.094a6.988,6.988,0,0,0,.867-.49,6.817,6.817,0,0,0,.931-.754,2.94,2.94,0,0,0,.628-.968,3.261,3.261,0,0,0,.239-1.258Z" transform="translate(-213.542 -0.264)" fill="#004b93"/>
      <path id="패스_2753" data-name="패스 2753" d="M400.916,2.862h-2.174V1.591H404.5V2.862h-2.187v.464a9.637,9.637,0,0,0,.163,1.44,4.482,4.482,0,0,0,.678,1.754,5.587,5.587,0,0,0,.968,1.106,7.812,7.812,0,0,0,.742.579L404.022,9.3c-.1-.067-.291-.2-.572-.409a4.8,4.8,0,0,1-.848-.824,6.1,6.1,0,0,1-.56-.8,8.882,8.882,0,0,1-.409-.792,5.778,5.778,0,0,1-.433.9,7.386,7.386,0,0,1-.659.931,6.306,6.306,0,0,1-.68.717q-.34.3-.767.616l-1.081-.956a8.31,8.31,0,0,0,1.227-1.044,5.9,5.9,0,0,0,.936-1.27,5.725,5.725,0,0,0,.578-1.678,8.426,8.426,0,0,0,.163-1.365Zm7.506,3.256h-1.408v5.407h-1.307V.46h1.307V4.735h1.408Z" transform="translate(-228.279 -0.264)" fill="#004b93"/>
      <path id="패스_2754" data-name="패스 2754" d="M431.614,10.6a5.952,5.952,0,0,1-1.754.213,5.325,5.325,0,0,1-1.747-.232q-.656-.233-.655-.6c0-.26.221-.447.661-.559a7.286,7.286,0,0,1,1.754-.17,6.59,6.59,0,0,1,1.748.188q.667.187.667.565t-.673.591m1.238-1.955A6.587,6.587,0,0,0,429.86,8.1a6.757,6.757,0,0,0-2.987.522A1.559,1.559,0,0,0,425.849,10a1.615,1.615,0,0,0,1.043,1.4,6.456,6.456,0,0,0,2.968.553,6.784,6.784,0,0,0,2.992-.528,1.568,1.568,0,0,0,1.043-1.371,1.609,1.609,0,0,0-1.043-1.4m1.986-2.281H430.6V5.547h3.144V4.4h-6.26V3.762h6.1V2.706h-6.1V2.065h6.123V.92h-7.481V5.547h2.992v.818h-4.237V7.571h9.958Z" transform="translate(-243.69 -0.528)" fill="#004b93"/>
      <path id="패스_2755" data-name="패스 2755" d="M460.669,8.456h-1.32v-8h1.32Zm.226,2.817h-7.469V7.815h1.333V10H460.9ZM458.23,5.74l-.766,1.107a5.213,5.213,0,0,1-.743-.4,5.5,5.5,0,0,1-.867-.666,6.845,6.845,0,0,1-.51-.54,4.969,4.969,0,0,1-.445-.629,5.4,5.4,0,0,1-.428.687,6.883,6.883,0,0,1-.616.722,6.017,6.017,0,0,1-.8.7,7.527,7.527,0,0,1-.722.472l-.918-1.031a8.138,8.138,0,0,0,1.012-.685,5.282,5.282,0,0,0,.949-.974,3.453,3.453,0,0,0,.653-1.276,5.434,5.434,0,0,0,.164-1.34V.762h1.4V1.88a4.671,4.671,0,0,0,.182,1.3,3.216,3.216,0,0,0,.6,1.15,4.787,4.787,0,0,0,.936.875,5.124,5.124,0,0,0,.924.533" transform="translate(-258.909 -0.264)" fill="#004b93"/>
      <path id="패스_2756" data-name="패스 2756" d="M482.885,2.535a1.742,1.742,0,0,1,.365,1.106,1.722,1.722,0,0,1-.365,1.094,1.452,1.452,0,0,1-2.131,0,1.7,1.7,0,0,1-.371-1.094,1.72,1.72,0,0,1,.371-1.106,1.453,1.453,0,0,1,2.131,0m.2-1.44A2.7,2.7,0,0,0,481.817.8a2.619,2.619,0,0,0-1.994.836,2.828,2.828,0,0,0-.785,2,2.8,2.8,0,0,0,.785,2,2.627,2.627,0,0,0,1.994.831,2.672,2.672,0,0,0,1.288-.308,2.867,2.867,0,0,0,.949-.812h2.414V8.456h1.308v-8h-1.308V1.881h-2.451a2.709,2.709,0,0,0-.931-.786m1.5,2.792c0-.081.007-.162.007-.246s-.005-.179-.013-.263-.017-.168-.026-.252h1.911v.994h-1.9c.009-.075.015-.153.018-.232M488,10h-6.16V7.727h-1.358v3.546H488Z" transform="translate(-274.752 -0.264)" fill="#004b93"/>
      <path id="패스_2757" data-name="패스 2757" d="M514.441,7.684H509.9V12.3h-1.346V7.684h-4.073V6.415h6.877a12.716,12.716,0,0,0,.308-1.458,16.97,16.97,0,0,0,.221-1.887H505.6V1.8H513.4c0,.185-.034.567-.1,1.15s-.133,1.076-.2,1.478-.13.8-.214,1.163-.141.638-.175.823h1.735Z" transform="translate(-289.346 -1.033)" fill="#004b93"/>
      <path id="패스_2758" data-name="패스 2758" d="M536.4,1.44a.941.941,0,0,1,.322.622.9.9,0,0,1-.314.584,1.44,1.44,0,0,1-1.056.321,1.425,1.425,0,0,1-1.032-.321.883.883,0,0,1-.328-.584.947.947,0,0,1,.316-.622,1.383,1.383,0,0,1,1.044-.333,1.4,1.4,0,0,1,1.049.333m4.42-1.252H539.51V6.437h-2.326V7.645h2.326v.892h1.308Zm-1.646,4.175a15.614,15.614,0,0,1-1.73.207q-1.365.12-2.194.119h-3.394V5.984h2.326V7.845h1.37V5.972q.516,0,1.754-.107a18.74,18.74,0,0,0,1.868-.232Zm1.872,5.369H534.9V8.286h-1.383V11h7.532ZM533.356.622a1.9,1.9,0,0,0-.685,1.44,1.894,1.894,0,0,0,.68,1.446,3.547,3.547,0,0,0,3.985.006,1.887,1.887,0,0,0,.679-1.452,1.925,1.925,0,0,0-.661-1.44,2.832,2.832,0,0,0-2-.622,2.872,2.872,0,0,0-1.994.622" transform="translate(-305.044 0)" fill="#004b93"/>
      <rect id="사각형_2263" data-name="사각형 2263" width="9.744" height="24.463" transform="translate(116.686 0.064)" fill="#004b93"/>
      <path id="패스_2759" data-name="패스 2759" d="M88.133.151V5.3H99.527V24.614h9.77V5.3h11.4V.151Z" transform="translate(-50.548 -0.087)" fill="#004b93"/>
      <path id="패스_2760" data-name="패스 2760" d="M31.817,5.3V.151H0V19.932a4.676,4.676,0,0,0,4.674,4.675H31.817V19.456H9.773v-4.5H31.817V9.8H9.773V5.3Z" transform="translate(0 -0.087)" fill="#004b93"/>
      <path id="패스_2761" data-name="패스 2761" d="M217.915,30.761h-11.5L219.6,43.808h11.5Z" transform="translate(-118.389 -17.643)" fill="#e43c00"/>
      <path id="패스_2762" data-name="패스 2762" d="M205.553.151H175.967V24.614h9.772V5.3h14.715V13.2h9.775V4.821a4.672,4.672,0,0,0-4.675-4.67" transform="translate(-100.926 -0.087)" fill="#e43c00"/>
      <path id="패스_2763" data-name="패스 2763" d="M319.267,39.965h2.053l1.649,5.509H323l1.5-5.509h2.256l1.618,5.509h.03l1.547-5.509h1.85l-2.284,7.446h-2.285l-1.62-5.682h-.029L324,47.411h-2.212Z" transform="translate(-183.115 -22.922)" fill="#004b93"/>
      <path id="패스_2764" data-name="패스 2764" d="M349.407,39.965h2.054l1.648,5.509h.029l1.5-5.509H356.9l1.62,5.509h.029l1.547-5.509h1.85l-2.284,7.446h-2.284l-1.62-5.682h-.029l-1.59,5.682h-2.213Z" transform="translate(-200.402 -22.922)" fill="#004b93"/>
      <path id="패스_2765" data-name="패스 2765" d="M379.548,39.965H381.6l1.648,5.509h.029l1.5-5.509h2.256l1.621,5.509h.029l1.548-5.509h1.85L389.8,47.411h-2.285L385.9,41.729h-.03l-1.59,5.682h-2.212Z" transform="translate(-217.69 -22.922)" fill="#004b93"/>
      <rect id="사각형_2264" data-name="사각형 2264" width="2.024" height="2.025" transform="translate(174.756 22.464)" fill="#004b93"/>
      <path id="패스_2766" data-name="패스 2766" d="M419.95,42.723a1.687,1.687,0,0,1,1.72-1.75c1.084,0,1.519.81,1.576,1.75Zm4.6,2.457a5.02,5.02,0,0,1-2.473.752,1.946,1.946,0,0,1-2.125-1.879H425.1c0-2.6-.781-4.5-3.543-4.5-2.313,0-3.456,1.779-3.456,3.933a3.538,3.538,0,0,0,3.889,3.861,5.114,5.114,0,0,0,2.56-.594Z" transform="translate(-239.8 -22.687)" fill="#004b93"/>
      <path id="패스_2767" data-name="패스 2767" d="M437.637,38.543h-1.431V37.126h1.431V35.637l1.938-.622v2.111h1.72v1.417h-1.72v3.47c0,.636.173,1.229.91,1.229a1.731,1.731,0,0,0,.882-.2l.058,1.533a5.118,5.118,0,0,1-1.432.174,2.19,2.19,0,0,1-2.356-2.415Z" transform="translate(-250.186 -20.083)" fill="#004b93"/>
      <path id="패스_2768" data-name="패스 2768" d="M451.359,39.731h1.721v1.691h.029a2.28,2.28,0,0,1,2.038-1.865,2.106,2.106,0,0,1,.593.058v1.952a1.968,1.968,0,0,0-.867-.159c-1.576,0-1.576,1.966-1.576,3.035v2.733h-1.938Z" transform="translate(-258.877 -22.688)" fill="#004b93"/>
      <path id="패스_2769" data-name="패스 2769" d="M464.547,35.646h1.938v7.446h-1.938Zm0-3.21h1.938v1.852h-1.938Z" transform="translate(-266.441 -18.604)" fill="#004b93"/>
      <rect id="사각형_2265" data-name="사각형 2265" width="2.024" height="2.025" transform="translate(202.083 22.464)" fill="#004b93"/>
      <path id="패스_2770" data-name="패스 2770" d="M483.4,39.731h1.72v1.691h.029a2.281,2.281,0,0,1,2.038-1.865,2.111,2.111,0,0,1,.593.058v1.952a1.97,1.97,0,0,0-.868-.159c-1.576,0-1.576,1.966-1.576,3.035v2.733H483.4Z" transform="translate(-277.254 -22.688)" fill="#004b93"/>
      <path id="패스_2771" data-name="패스 2771" d="M496.613,42.723a1.687,1.687,0,0,1,1.721-1.75c1.084,0,1.518.81,1.576,1.75Zm4.6,2.457a5.018,5.018,0,0,1-2.472.752,1.946,1.946,0,0,1-2.125-1.879h5.147c0-2.6-.781-4.5-3.543-4.5-2.314,0-3.456,1.779-3.456,3.933a3.538,3.538,0,0,0,3.89,3.861,5.11,5.11,0,0,0,2.559-.594Z" transform="translate(-283.77 -22.687)" fill="#004b93"/>
      <rect id="사각형_2266" data-name="사각형 2266" width="2.024" height="2.025" transform="translate(219.508 22.464)" fill="#004b93"/>
      <path id="패스_2772" data-name="패스 2772" d="M524.261,32H526.2v6.376h.029l2.313-2.978h2.286l-2.778,3.325,3.123,4.121h-2.458l-2.486-3.615H526.2V42.84h-1.937Z" transform="translate(-300.69 -18.352)" fill="#004b93"/>
      <path id="패스_2773" data-name="패스 2773" d="M543.111,39.731h1.72v1.691h.028a2.282,2.282,0,0,1,2.04-1.865,2.113,2.113,0,0,1,.593.058v1.952a1.972,1.972,0,0,0-.868-.159c-1.576,0-1.576,1.966-1.576,3.035v2.733h-1.937Z" transform="translate(-311.501 -22.688)" fill="#004b93"/>
    </g>
  </g>
</svg>
