<svg id="그룹_2365" data-name="그룹 2365" xmlns="http://www.w3.org/2000/svg" xmlns:xlink="http://www.w3.org/1999/xlink" width="129.57" height="47" viewBox="0 0 129.57 47">
  <defs>
    <clipPath id="clip-path">
      <rect id="사각형_1338" data-name="사각형 1338" width="129.57" height="47" fill="none"/>
    </clipPath>
  </defs>
  <rect id="사각형_1313" data-name="사각형 1313" width="8.373" height="1.335" transform="translate(18.248 33.697)" fill="#1a1818"/>
  <rect id="사각형_1314" data-name="사각형 1314" width="2.048" height="2.115" transform="translate(21.442 32.519)" fill="#1a1818"/>
  <rect id="사각형_1315" data-name="사각형 1315" width="8.375" height="1.335" transform="translate(46.207 33.697)" fill="#1a1818"/>
  <rect id="사각형_1316" data-name="사각형 1316" width="2.049" height="2.115" transform="translate(49.395 32.519)" fill="#1a1818"/>
  <rect id="사각형_1317" data-name="사각형 1317" width="8.374" height="1.335" transform="translate(74.643 33.697)" fill="#1a1818"/>
  <rect id="사각형_1318" data-name="사각형 1318" width="2.052" height="2.115" transform="translate(77.839 32.519)" fill="#1a1818"/>
  <rect id="사각형_1319" data-name="사각형 1319" width="2.049" height="6.811" transform="translate(108.516 40.189)" fill="#1a1818"/>
  <rect id="사각형_1320" data-name="사각형 1320" width="12.691" height="1.334" transform="translate(103.163 39.853)" fill="#1a1818"/>
  <rect id="사각형_1321" data-name="사각형 1321" width="2.154" height="1.338" transform="translate(29.539 36.368)" fill="#1a1818"/>
  <rect id="사각형_1322" data-name="사각형 1322" width="2.047" height="9.404" transform="translate(27.995 33.133)" fill="#1a1818"/>
  <g id="그룹_360" data-name="그룹 360">
    <g id="그룹_359" data-name="그룹 359" clip-path="url(#clip-path)">
      <path id="패스_691" data-name="패스 691" d="M85.081,148.061a3.488,3.488,0,1,0,3.82,3.473,3.587,3.587,0,0,0-3.82-3.473m0,5.75a2.341,2.341,0,1,1,1.807-2.277,2.046,2.046,0,0,1-1.807,2.277" transform="translate(-62.691 -114.222)" fill="#1a1818"/>
      <rect id="사각형_1323" data-name="사각형 1323" width="2.141" height="1.331" transform="translate(57.62 36.374)" fill="#1a1818"/>
      <rect id="사각형_1324" data-name="사각형 1324" width="2.036" height="9.352" transform="translate(56.074 33.21)" fill="#1a1818"/>
      <path id="패스_692" data-name="패스 692" d="M207.932,148.061a3.488,3.488,0,1,0,3.82,3.473,3.588,3.588,0,0,0-3.82-3.473m0,5.75a2.342,2.342,0,1,1,1.806-2.277,2.046,2.046,0,0,1-1.806,2.277" transform="translate(-157.464 -114.222)" fill="#1a1818"/>
      <rect id="사각형_1325" data-name="사각형 1325" width="2.038" height="3.887" transform="translate(37.499 38.753)" fill="#1a1818"/>
      <rect id="사각형_1326" data-name="사각형 1326" width="12.878" height="1.33" transform="translate(32.166 38.416)" fill="#1a1818"/>
      <rect id="사각형_1327" data-name="사각형 1327" width="11.437" height="1.328" transform="translate(60.861 42.59)" fill="#1a1818"/>
      <rect id="사각형_1328" data-name="사각형 1328" width="2.003" height="13.916" transform="translate(70.775 33.084)" fill="#1a1818"/>
      <path id="패스_693" data-name="패스 693" d="M271.406,144.845a3.694,3.694,0,1,0,4.112,3.67,3.835,3.835,0,0,0-4.112-3.67m0,6.123a2.494,2.494,0,1,1,2.05-2.454,2.192,2.192,0,0,1-2.05,2.454" transform="translate(-206.202 -111.741)" fill="#1a1818"/>
      <rect id="사각형_1329" data-name="사각형 1329" width="2.143" height="1.331" transform="translate(85.941 35.856)" fill="#1a1818"/>
      <rect id="사각형_1330" data-name="사각형 1330" width="2.038" height="7.871" transform="translate(84.522 33.067)" fill="#1a1818"/>
      <path id="패스_694" data-name="패스 694" d="M332.508,148.061c-2.2,0-3.787,1.424-3.787,3.273s1.583,3.273,3.787,3.273,3.79-1.42,3.79-3.273-1.582-3.273-3.79-3.273m0,5.354a2.108,2.108,0,1,1,1.777-2.081,1.935,1.935,0,0,1-1.777,2.081" transform="translate(-253.593 -114.222)" fill="#1a1818"/>
      <rect id="사각형_1331" data-name="사각형 1331" width="2.003" height="9.486" transform="translate(99.425 33.21)" fill="#1a1818"/>
      <rect id="사각형_1332" data-name="사각형 1332" width="4.233" height="1.285" transform="translate(96.529 35.047)" fill="#1a1818"/>
      <rect id="사각형_1333" data-name="사각형 1333" width="4.233" height="1.287" transform="translate(96.529 37.759)" fill="#1a1818"/>
      <path id="패스_695" data-name="패스 695" d="M394.313,145.371a3.692,3.692,0,1,0,4.078,3.673,3.839,3.839,0,0,0-4.078-3.673m0,6.125a2.5,2.5,0,1,1,2.05-2.452,2.187,2.187,0,0,1-2.05,2.452" transform="translate(-301.018 -112.147)" fill="#1a1818"/>
      <rect id="사각형_1334" data-name="사각형 1334" width="2.003" height="2.713" transform="translate(120.409 39.918)" fill="#1a1818"/>
      <rect id="사각형_1335" data-name="사각형 1335" width="2.003" height="10.619" transform="translate(127.567 33.21)" fill="#1a1818"/>
      <rect id="사각형_1336" data-name="사각형 1336" width="9.026" height="1.287" transform="translate(117.405 39.411)" fill="#1a1818"/>
      <rect id="사각형_1337" data-name="사각형 1337" width="4.233" height="1.288" transform="translate(124.672 41.517)" fill="#1a1818"/>
      <path id="패스_696" data-name="패스 696" d="M519.1,144.418c-2.287,0-3.763,1.259-3.763,2.882s1.473,2.884,3.763,2.884,3.762-1.259,3.762-2.884-1.473-2.882-3.762-2.882m0,4.575a1.693,1.693,0,1,1,1.729-1.693,1.678,1.678,0,0,1-1.729,1.693" transform="translate(-397.556 -111.412)" fill="#1a1818"/>
      <path id="패스_697" data-name="패스 697" d="M91.189,188.114a.419.419,0,0,1-.449-.448v-3.025H88.7v3.187a1.536,1.536,0,0,0,1.614,1.614h8.13v-1.328Z" transform="translate(-68.43 -142.442)" fill="#1a1818"/>
      <path id="패스_698" data-name="패스 698" d="M154.412,147.787a.418.418,0,0,1,.448.449v3.342H156.9v-3.506a1.535,1.535,0,0,0-1.614-1.614h-8.594v1.329Z" transform="translate(-113.165 -112.985)" fill="#1a1818"/>
      <path id="패스_699" data-name="패스 699" d="M154.412,185.491a.42.42,0,0,1,.448.451v3.133H156.9v-3.3a1.534,1.534,0,0,0-1.614-1.613h-8.594v1.325Z" transform="translate(-113.165 -142.075)" fill="#1a1818"/>
      <path id="패스_700" data-name="패스 700" d="M342.755,183.676a.42.42,0,0,1,.45.451v3.547h2.035v-3.711a1.535,1.535,0,0,0-1.612-1.613h-8.338v1.326Z" transform="translate(-258.661 -140.674)" fill="#1a1818"/>
      <path id="패스_701" data-name="패스 701" d="M214.044,188.114a.418.418,0,0,1-.447-.448v-3.025h-2.037v3.187a1.535,1.535,0,0,0,1.611,1.614H221.3v-1.328Z" transform="translate(-163.208 -142.442)" fill="#1a1818"/>
      <path id="패스_702" data-name="패스 702" d="M403.374,187.8a.418.418,0,0,1-.447-.448V184.23h-2.037v3.281a1.536,1.536,0,0,0,1.613,1.614h8.132V187.8Z" transform="translate(-309.267 -142.125)" fill="#1a1818"/>
      <path id="패스_703" data-name="패스 703" d="M526.516,192.928a.418.418,0,0,1-.449-.448v-1.6h-2.036v1.761a1.534,1.534,0,0,0,1.612,1.614h8.132v-1.328Z" transform="translate(-404.265 -147.256)" fill="#1a1818"/>
      <path id="패스_704" data-name="패스 704" d="M465.445,147.454a.418.418,0,0,1,.448.448v4.87h2.038v-5.034a1.536,1.536,0,0,0-1.613-1.613h-8.337v1.328Z" transform="translate(-353.312 -112.729)" fill="#1a1818"/>
      <path id="패스_705" data-name="패스 705" d="M50.5,19.115c-3.686-.866-5.117-5.23-5.9-9.088C43.012,2.193,36.958.043,32.775.043A11.94,11.94,0,0,0,26.689,1.6,8.458,8.458,0,0,1,32.3,1.283c3.28.952,5.368,3.665,5.949,8.134.856,6.6,3.819,11.089,8.434,11.905a8.69,8.69,0,0,0,1.49.132,7.957,7.957,0,0,0,5.6-2.817,5.9,5.9,0,0,1-3.28.478" transform="translate(-20.589 -0.033)" fill="#0067b6"/>
      <path id="패스_706" data-name="패스 706" d="M82.989,5.244,75.154.107c-.328-.227-.517-.083-.436.324h0a22.669,22.669,0,0,1,.459,4.71c0,13.31-9.913,18.076-12.765,19.456-2.59,1.271-10.238,3.618-15.962,1.516a28.212,28.212,0,0,0,9.8,1.631c15.591-.053,25.644-10.251,27.085-21.876a.655.655,0,0,0-.346-.625" transform="translate(-35.832 0)" fill="#d80028"/>
      <path id="패스_707" data-name="패스 707" d="M19.176,29.244c-8,0-13.122-6.754-13.122-15.341,0-5.33,2.474-9.3,6.112-9.3.116,0,.23.007.341.015a8.333,8.333,0,0,0-.794-.277A8.458,8.458,0,0,0,6.1,4.657c.126-.069.256-.139.389-.207A11.618,11.618,0,0,0,0,14.76c0,7.211,4.288,12.092,10.615,14.449,5.724,2.1,13.367-.244,15.963-1.516a15.7,15.7,0,0,1-7.4,1.552" transform="translate(0 -3.095)" fill="#ff9d1f"/>
    </g>
  </g>
</svg>
