<svg xmlns="http://www.w3.org/2000/svg" xmlns:xlink="http://www.w3.org/1999/xlink" width="201.194" height="40" viewBox="0 0 201.194 40">
  <defs>
    <clipPath id="clip-path">
      <rect id="사각형_1347" data-name="사각형 1347" width="201.194" height="40" fill="none"/>
    </clipPath>
  </defs>
  <g id="그룹_2370" data-name="그룹 2370" transform="translate(0 0)">
    <path id="패스_708" data-name="패스 708" d="M165.615,55.621v1.9h.012l1.19-1.9h1.019l-1.268,2.03,1.412,2.707h-1.059l-.961-1.944-.346.538v1.406h-.942V55.621Z" transform="translate(-89.033 -30.381)" fill="#1a1311"/>
    <g id="그룹_363" data-name="그룹 363" transform="translate(0 0)">
      <g id="그룹_362" data-name="그룹 362" clip-path="url(#clip-path)">
        <path id="패스_709" data-name="패스 709" d="M172.029,59.393c0-.653.035-1.122.432-1.122.329,0,.433.326.433,1.122s-.1,1.122-.433,1.122c-.4,0-.432-.469-.432-1.122m-.808,0c0,1.11.269,1.7,1.24,1.681.925,0,1.241-.588,1.241-1.681,0-1.111-.268-1.7-1.241-1.681-.923,0-1.24.587-1.24,1.681" transform="translate(-92.436 -31.154)" fill="#1a1311"/>
        <path id="패스_710" data-name="패스 710" d="M177.552,57.794h.773v.428h.011a.815.815,0,0,1,.725-.511,1.324,1.324,0,0,1,.147.012v.784c-.082-.006-.17-.012-.252-.012a.549.549,0,0,0-.6.577V60.99h-.808Z" transform="translate(-95.853 -31.154)" fill="#1a1311"/>
        <path id="패스_711" data-name="패스 711" d="M182.34,59.03v-.125c0-.3.094-.636.415-.636s.393.273.41.76Zm1.6.487v-.184c0-.981-.21-1.622-1.153-1.622-1.088,0-1.252.8-1.252,1.651,0,.8.046,1.71,1.216,1.71.761,0,1.112-.416,1.141-1.158h-.726c-.047.393-.158.6-.427.6-.3,0-.4-.368-.4-.742v-.256Z" transform="translate(-98.003 -31.154)" fill="#1a1311"/>
        <path id="패스_712" data-name="패스 712" d="M189.017,60.023a.48.48,0,0,1-.5.493c-.216,0-.3-.2-.3-.446,0-.285.128-.445.456-.516a.984.984,0,0,0,.345-.16Zm-.748-1.248v-.088c0-.25.129-.416.374-.416.271,0,.375.149.375.392,0,.214-.081.309-.321.374l-.457.125a.9.9,0,0,0-.8,1c0,.427.2.914.761.914a.776.776,0,0,0,.8-.415h.011a1.361,1.361,0,0,0,.1.331h.772a1.322,1.322,0,0,1-.1-.618v-1.68c0-.577-.182-.98-1.141-.98-.608,0-1.105.249-1.105.986v.077Z" transform="translate(-101.194 -31.154)" fill="#1a1311"/>
        <rect id="사각형_1339" data-name="사각형 1339" width="0.842" height="4.241" transform="translate(90.638 25.596)" fill="#1a1311"/>
        <path id="패스_713" data-name="패스 713" d="M200.12,57.794h.772v.375h.012a.862.862,0,0,1,.8-.457c.5,0,.8.279.8.908V60.99H201.7v-2.2c0-.321-.1-.445-.346-.445-.275,0-.427.173-.427.529v2.12h-.807Z" transform="translate(-108.037 -31.154)" fill="#1a1311"/>
        <path id="패스_714" data-name="패스 714" d="M206.91,59.945v.107a.406.406,0,0,0,.42.463.36.36,0,0,0,.41-.38.375.375,0,0,0-.293-.362l-.567-.208a.884.884,0,0,1-.673-.892c0-.528.328-.962,1.158-.962.731,0,1.076.333,1.076.908v.131h-.725c0-.321-.094-.481-.356-.481a.345.345,0,0,0-.381.345c0,.154.083.285.351.374l.486.166a.855.855,0,0,1,.7.914c0,.672-.491,1-1.169,1-.907,0-1.16-.4-1.16-1.015v-.113Z" transform="translate(-111.31 -31.154)" fill="#1a1311"/>
        <path id="패스_715" data-name="패스 715" d="M212.022,55.9h.808v.914h.468v.559h-.468v1.729c0,.249.052.35.287.35a1.62,1.62,0,0,0,.181-.012v.57a4.964,4.964,0,0,1-.526.037c-.632,0-.749-.2-.749-.844v-1.83h-.409v-.559h.409Z" transform="translate(-114.242 -30.178)" fill="#1a1311"/>
        <path id="패스_716" data-name="패스 716" d="M215.948,56.61h.807v3.2h-.807Zm0-1.092h.807v.7h-.807Z" transform="translate(-116.582 -29.97)" fill="#1a1311"/>
        <path id="패스_717" data-name="패스 717" d="M218.836,55.9h.807v.914h.468v.559h-.468v1.729c0,.249.053.35.287.35a1.63,1.63,0,0,0,.182-.012v.57a4.974,4.974,0,0,1-.527.037c-.632,0-.748-.2-.748-.844v-1.83h-.41v-.559h.41Z" transform="translate(-117.92 -30.178)" fill="#1a1311"/>
        <path id="패스_718" data-name="패스 718" d="M224.314,60.713H224.3a.862.862,0,0,1-.8.457c-.5,0-.8-.279-.8-.908V57.891h.807v2.2c0,.32.106.445.345.445.276,0,.428-.173.428-.529V57.891h.807v3.2h-.772Z" transform="translate(-120.227 -31.251)" fill="#1a1311"/>
        <path id="패스_719" data-name="패스 719" d="M228.956,55.9h.807v.914h.468v.559h-.468v1.729c0,.249.053.35.287.35a1.606,1.606,0,0,0,.181-.012v.57a4.955,4.955,0,0,1-.526.037c-.632,0-.749-.2-.749-.844v-1.83h-.41v-.559h.41Z" transform="translate(-123.383 -30.178)" fill="#1a1311"/>
        <path id="패스_720" data-name="패스 720" d="M233.373,59.03v-.125c0-.3.093-.636.415-.636s.392.273.409.76Zm1.6.487v-.184c0-.981-.211-1.622-1.152-1.622-1.088,0-1.252.8-1.252,1.651,0,.8.047,1.71,1.216,1.71.762,0,1.113-.416,1.141-1.158H234.2c-.046.393-.157.6-.427.6-.3,0-.4-.368-.4-.742v-.256Z" transform="translate(-125.553 -31.154)" fill="#1a1311"/>
        <path id="패스_721" data-name="패스 721" d="M242.335,59.393c0-.653.035-1.122.433-1.122.328,0,.433.326.433,1.122s-.105,1.122-.433,1.122c-.4,0-.433-.469-.433-1.122m-.808,0c0,1.11.27,1.7,1.241,1.681.924,0,1.241-.588,1.241-1.681,0-1.111-.269-1.7-1.241-1.681-.924,0-1.241.587-1.241,1.681" transform="translate(-130.391 -31.154)" fill="#1a1311"/>
        <path id="패스_722" data-name="패스 722" d="M247.759,57.127h-.409v-.559h.409v-.361c0-.577.323-.767.843-.767.146,0,.287.006.433.017v.583a1.512,1.512,0,0,0-.158-.006c-.228,0-.311.071-.311.255v.278h.468v.559h-.468v2.637h-.808Z" transform="translate(-133.535 -29.928)" fill="#1a1311"/>
        <path id="패스_723" data-name="패스 723" d="M255.211,58.441v.124c0,.4.111.653.556.653a.485.485,0,0,0,.5-.522c0-.386-.194-.529-.749-.725-.749-.262-1.093-.577-1.093-1.283a1.153,1.153,0,0,1,1.292-1.248c.75,0,1.293.326,1.293,1.14v.12h-.807c0-.4-.135-.63-.456-.63a.435.435,0,0,0-.48.492c0,.262.076.423.433.577l.65.285a1.083,1.083,0,0,1,.8,1.123c0,.9-.538,1.3-1.451,1.3-.954,0-1.328-.451-1.328-1.236v-.171Z" transform="translate(-137.324 -29.928)" fill="#1a1311"/>
        <path id="패스_724" data-name="패스 724" d="M262.65,58.947c0-.308-.058-.641-.363-.641-.4,0-.462.357-.462,1.092,0,.79.07,1.117.433,1.117.269,0,.391-.231.391-.749h.773c0,.838-.345,1.307-1.2,1.307-.807,0-1.205-.4-1.205-1.681,0-1.313.532-1.681,1.275-1.681a1.081,1.081,0,0,1,1.129,1.235Z" transform="translate(-140.913 -31.154)" fill="#1a1311"/>
        <path id="패스_725" data-name="패스 725" d="M267.222,56.61h.807v3.2h-.807Zm0-1.092h.807v.7h-.807Z" transform="translate(-144.263 -29.97)" fill="#1a1311"/>
        <path id="패스_726" data-name="패스 726" d="M270.762,59.03v-.125c0-.3.094-.636.415-.636s.392.273.41.76Zm1.6.487v-.184c0-.981-.211-1.622-1.153-1.622-1.088,0-1.252.8-1.252,1.651,0,.8.047,1.71,1.217,1.71.76,0,1.111-.416,1.14-1.158h-.725c-.046.393-.158.6-.427.6-.3,0-.4-.368-.4-.742v-.256Z" transform="translate(-145.738 -31.154)" fill="#1a1311"/>
        <path id="패스_727" data-name="패스 727" d="M276.1,57.794h.772v.375h.012a.863.863,0,0,1,.8-.457c.5,0,.8.279.8.908V60.99h-.808v-2.2c0-.321-.1-.445-.344-.445-.275,0-.427.173-.427.529v2.12H276.1Z" transform="translate(-149.053 -31.154)" fill="#1a1311"/>
        <path id="패스_728" data-name="패스 728" d="M283.831,58.947c0-.308-.058-.641-.363-.641-.4,0-.462.357-.462,1.092,0,.79.07,1.117.433,1.117.27,0,.393-.231.393-.749h.772c0,.838-.345,1.307-1.2,1.307-.808,0-1.206-.4-1.206-1.681,0-1.313.532-1.681,1.276-1.681a1.08,1.08,0,0,1,1.128,1.235Z" transform="translate(-152.348 -31.154)" fill="#1a1311"/>
        <path id="패스_729" data-name="패스 729" d="M288.892,59.03v-.125c0-.3.093-.636.416-.636s.393.273.41.76Zm1.6.487v-.184c0-.981-.21-1.622-1.153-1.622-1.087,0-1.252.8-1.252,1.651,0,.8.046,1.71,1.217,1.71.76,0,1.111-.416,1.14-1.158h-.725c-.047.393-.158.6-.427.6-.3,0-.4-.368-.4-.742v-.256Z" transform="translate(-155.526 -31.154)" fill="#1a1311"/>
        <path id="패스_730" data-name="패스 730" d="M298.621,60.023a.48.48,0,0,1-.5.493c-.216,0-.305-.2-.305-.446,0-.285.129-.445.457-.516a.987.987,0,0,0,.344-.16Zm-.748-1.248v-.088c0-.25.129-.416.374-.416.269,0,.374.149.374.392,0,.214-.082.309-.321.374l-.457.125a.9.9,0,0,0-.8,1c0,.427.2.914.761.914a.777.777,0,0,0,.8-.415h.011a1.4,1.4,0,0,0,.1.331h.772a1.323,1.323,0,0,1-.1-.618v-1.68c0-.577-.181-.98-1.141-.98-.608,0-1.106.249-1.106.986v.077Z" transform="translate(-160.365 -31.154)" fill="#1a1311"/>
        <path id="패스_731" data-name="패스 731" d="M303.392,57.794h.772v.375h.012a.862.862,0,0,1,.8-.457c.5,0,.8.279.8.908V60.99h-.808v-2.2c0-.321-.1-.445-.345-.445-.275,0-.427.173-.427.529v2.12h-.807Z" transform="translate(-163.79 -31.154)" fill="#1a1311"/>
        <path id="패스_732" data-name="패스 732" d="M310.389,58.264c0-.695.07-1.052.422-1.052s.427.357.427,1.052-.07,1.052-.427,1.052-.422-.358-.422-1.052m.884,1.6h.772V55.621h-.807v1.343h-.012a.752.752,0,0,0-.678-.38c-.661,0-.966.492-.966,1.681s.305,1.681.966,1.681a.763.763,0,0,0,.714-.421h.011Z" transform="translate(-167.131 -30.025)" fill="#1a1311"/>
        <path id="패스_733" data-name="패스 733" d="M321.392,55.621v.7h-.913v3.539h-.842V56.322h-.913v-.7Z" transform="translate(-172.067 -30.025)" fill="#1a1311"/>
        <path id="패스_734" data-name="패스 734" d="M324.872,59.03v-.125c0-.3.094-.636.416-.636s.392.273.41.76Zm1.6.487v-.184c0-.981-.211-1.622-1.153-1.622-1.088,0-1.252.8-1.252,1.651,0,.8.047,1.71,1.217,1.71.761,0,1.112-.416,1.141-1.158H325.7c-.046.393-.158.6-.427.6-.3,0-.4-.368-.4-.742v-.256Z" transform="translate(-174.95 -31.154)" fill="#1a1311"/>
        <path id="패스_735" data-name="패스 735" d="M331.584,58.947c0-.308-.058-.641-.363-.641-.4,0-.462.357-.462,1.092,0,.79.07,1.117.433,1.117.269,0,.392-.231.392-.749h.773c0,.838-.345,1.307-1.2,1.307-.808,0-1.206-.4-1.206-1.681,0-1.313.533-1.681,1.276-1.681a1.081,1.081,0,0,1,1.129,1.235Z" transform="translate(-178.128 -31.154)" fill="#1a1311"/>
        <path id="패스_736" data-name="패스 736" d="M336.092,55.621h.808v1.372h.011a.826.826,0,0,1,.767-.41c.5,0,.8.279.8.908v2.37h-.808v-2.2c0-.321-.105-.445-.345-.445-.275,0-.427.173-.427.528v2.12h-.808Z" transform="translate(-181.443 -30.025)" fill="#1a1311"/>
        <path id="패스_737" data-name="패스 737" d="M342.45,57.794h.772v.375h.011a.863.863,0,0,1,.8-.457c.5,0,.8.279.8.908V60.99h-.807v-2.2c0-.321-.106-.445-.345-.445-.276,0-.427.173-.427.529v2.12h-.807Z" transform="translate(-184.875 -31.154)" fill="#1a1311"/>
        <path id="패스_738" data-name="패스 738" d="M349.385,59.393c0-.653.035-1.122.433-1.122.327,0,.432.326.432,1.122s-.1,1.122-.432,1.122c-.4,0-.433-.469-.433-1.122m-.808,0c0,1.11.269,1.7,1.241,1.681.923,0,1.24-.588,1.24-1.681,0-1.111-.269-1.7-1.24-1.681-.925,0-1.241.587-1.241,1.681" transform="translate(-188.183 -31.154)" fill="#1a1311"/>
        <rect id="사각형_1340" data-name="사각형 1340" width="0.808" height="4.241" transform="translate(163.336 25.596)" fill="#1a1311"/>
        <path id="패스_739" data-name="패스 739" d="M358.538,59.393c0-.653.035-1.122.433-1.122.328,0,.433.326.433,1.122s-.1,1.122-.433,1.122c-.4,0-.433-.469-.433-1.122m-.807,0c0,1.11.269,1.7,1.24,1.681.925,0,1.24-.588,1.24-1.681,0-1.111-.269-1.7-1.24-1.681-.924,0-1.24.587-1.24,1.681" transform="translate(-193.125 -31.154)" fill="#1a1311"/>
        <path id="패스_740" data-name="패스 740" d="M364.729,59.494c0-.861.065-1.153.421-1.153.321,0,.422.291.422,1.069,0,.541-.1.915-.439.915s-.4-.393-.4-.832m.843-1.7v.357h-.012a.7.7,0,0,0-.649-.439c-.878,0-.989.878-.989,1.628,0,1.17.322,1.615.965,1.615a.846.846,0,0,0,.673-.392h.012v.422c0,.327-.117.577-.445.577a.476.476,0,0,1-.269-.09.286.286,0,0,1-.123-.243h-.772c0,.546.386.855,1.07.855.942,0,1.31-.41,1.31-1.253V57.794Z" transform="translate(-196.467 -31.154)" fill="#1a1311"/>
        <path id="패스_741" data-name="패스 741" d="M370.262,61.521a1.3,1.3,0,0,0,.211.018c.3,0,.409-.167.433-.452l-.884-3.2h.843l.467,2.21h.012l.409-2.21h.808l-.76,2.983c-.281,1.1-.461,1.26-1.212,1.26h-.327Z" transform="translate(-199.76 -31.251)" fill="#1a1311"/>
        <rect id="사각형_1341" data-name="사각형 1341" width="0.843" height="4.241" transform="translate(174.567 25.596)" fill="#1a1311"/>
        <path id="패스_742" data-name="패스 742" d="M382.519,57.794h.772v.375h.012a.861.861,0,0,1,.8-.457c.5,0,.8.279.8.908V60.99H384.1v-2.2c0-.321-.1-.445-.344-.445-.276,0-.427.173-.427.529v2.12h-.807Z" transform="translate(-206.507 -31.154)" fill="#1a1311"/>
        <path id="패스_743" data-name="패스 743" d="M388.777,57.127h-.409v-.559h.409v-.361c0-.577.322-.767.843-.767.146,0,.287.006.433.017v.583a1.511,1.511,0,0,0-.157-.006c-.229,0-.312.071-.312.255v.278h.469v.559h-.469v2.637h-.807Z" transform="translate(-209.665 -29.928)" fill="#1a1311"/>
        <path id="패스_744" data-name="패스 744" d="M393.217,59.393c0-.653.036-1.122.433-1.122.329,0,.433.326.433,1.122s-.1,1.122-.433,1.122c-.4,0-.433-.469-.433-1.122m-.807,0c0,1.11.27,1.7,1.24,1.681.925,0,1.24-.588,1.24-1.681,0-1.111-.268-1.7-1.24-1.681-.924,0-1.24.587-1.24,1.681" transform="translate(-211.847 -31.154)" fill="#1a1311"/>
        <path id="패스_745" data-name="패스 745" d="M398.742,57.794h.773v.428h.011a.815.815,0,0,1,.725-.511,1.333,1.333,0,0,1,.147.012v.784c-.082-.006-.17-.012-.252-.012a.548.548,0,0,0-.6.577V60.99h-.808Z" transform="translate(-215.265 -31.154)" fill="#1a1311"/>
        <path id="패스_746" data-name="패스 746" d="M402.976,57.794h.772v.328h.012a.892.892,0,0,1,.8-.41.693.693,0,0,1,.726.511h.011a.783.783,0,0,1,.8-.511c.532,0,.783.339.783.955V60.99h-.807V58.757c0-.267-.088-.416-.316-.416-.258,0-.421.178-.421.547v2.1h-.807V58.757c0-.267-.087-.416-.316-.416-.258,0-.421.178-.421.547v2.1h-.807Z" transform="translate(-217.551 -31.154)" fill="#1a1311"/>
        <path id="패스_747" data-name="패스 747" d="M413.957,60.023a.48.48,0,0,1-.5.493c-.217,0-.3-.2-.3-.446,0-.285.128-.445.456-.516a1,1,0,0,0,.345-.16Zm-.748-1.248v-.088c0-.25.127-.416.374-.416.268,0,.375.149.375.392,0,.214-.081.309-.322.374l-.457.125a.9.9,0,0,0-.8,1c0,.427.2.914.76.914a.779.779,0,0,0,.8-.415h.011a1.339,1.339,0,0,0,.1.331h.771a1.342,1.342,0,0,1-.1-.618v-1.68c0-.577-.181-.98-1.141-.98-.609,0-1.107.249-1.107.986v.077Z" transform="translate(-222.63 -31.154)" fill="#1a1311"/>
        <path id="패스_748" data-name="패스 748" d="M418.628,55.9h.808v.914h.468v.559h-.468v1.729c0,.249.052.35.286.35a1.638,1.638,0,0,0,.182-.012v.57a4.955,4.955,0,0,1-.527.037c-.631,0-.749-.2-.749-.844v-1.83h-.409v-.559h.409Z" transform="translate(-225.78 -30.178)" fill="#1a1311"/>
        <path id="패스_749" data-name="패스 749" d="M422.554,56.61h.807v3.2h-.807Zm0-1.092h.807v.7h-.807Z" transform="translate(-228.12 -29.97)" fill="#1a1311"/>
        <path id="패스_750" data-name="패스 750" d="M426.119,59.393c0-.653.036-1.122.434-1.122.327,0,.432.326.432,1.122s-.1,1.122-.432,1.122c-.4,0-.434-.469-.434-1.122m-.807,0c0,1.11.27,1.7,1.241,1.681.923,0,1.239-.588,1.239-1.681,0-1.111-.268-1.7-1.239-1.681-.925,0-1.241.587-1.241,1.681" transform="translate(-229.609 -31.154)" fill="#1a1311"/>
        <path id="패스_751" data-name="패스 751" d="M431.644,57.794h.773v.375h.011a.863.863,0,0,1,.8-.457c.5,0,.8.279.8.908V60.99h-.807v-2.2c0-.321-.106-.445-.345-.445-.274,0-.427.173-.427.529v2.12h-.807Z" transform="translate(-233.028 -31.154)" fill="#1a1311"/>
        <path id="패스_752" data-name="패스 752" d="M298.127,26.531a7.819,7.819,0,0,0,1.328.525c.272.067.414.092.424.092l-.694,1.035c-.019-.01-.221-.053-.605-.127a7.661,7.661,0,0,1-1.217-.355,7.782,7.782,0,0,1-2.058-1.119,4.877,4.877,0,0,1-.584-.552,4.58,4.58,0,0,1-.55.546,7.217,7.217,0,0,1-2.078,1.125,6.4,6.4,0,0,1-1.21.361c-.38.072-.58.111-.6.121l-.71-1.035c.028-.01.241-.04.626-.149a6.357,6.357,0,0,0,1.085-.439,4.829,4.829,0,0,0,1.452-.991,2.613,2.613,0,0,0,.723-1.694v-.5h2.531v.511a2.621,2.621,0,0,0,.814,1.757,4.826,4.826,0,0,0,1.321.885" transform="translate(-156.331 -12.619)" fill="#1a1311"/>
        <path id="패스_753" data-name="패스 753" d="M315.9,27.105a4.6,4.6,0,0,1-1.143,1.263,6.252,6.252,0,0,1-.822.519c-.292.163-.447.255-.466.272l.671,1.153a10.62,10.62,0,0,0,1.342-.661,7.155,7.155,0,0,0,1.479-1.029,5.954,5.954,0,0,0,.617-.667,3.876,3.876,0,0,0,.583.635,8.384,8.384,0,0,0,1.554,1.087,12.32,12.32,0,0,0,1.3.635l.658-1.141q-.028-.012-.493-.265a5.926,5.926,0,0,1-1.219-.888,3.346,3.346,0,0,1-.863-1.153,4.783,4.783,0,0,1-.286-1.687H321V24.053h-6.848V25.18h2.191a3.745,3.745,0,0,1-.444,1.926" transform="translate(-169.23 -12.984)" fill="#1a1311"/>
        <path id="패스_754" data-name="패스 754" d="M169.907,24.348a2.5,2.5,0,0,1,.8.948,2.809,2.809,0,0,1,.323,1.3,2.7,2.7,0,0,1-1.081,2.159,4.36,4.36,0,0,1-5.318,0,2.714,2.714,0,0,1-1.069-2.159,2.8,2.8,0,0,1,.311-1.284,2.577,2.577,0,0,1,.808-.962h-1.11V23.205h2.664V22.069h2.162v1.136h2.618v1.143Zm-2.609,0a1.525,1.525,0,0,0-1.235.6,2.215,2.215,0,0,0-.45,1.389,2.125,2.125,0,0,0,.487,1.4,1.533,1.533,0,0,0,2.408,0,2.09,2.09,0,0,0,.5-1.4,2.131,2.131,0,0,0-.462-1.389,1.5,1.5,0,0,0-1.235-.6H167.3Zm4.517-1.69h2.129v2.808h1.588v1.294h-1.588v4.49h-2.129ZM165.484,30.3h2.093v3.248h6.431v1.185h-8.524Z" transform="translate(-88.299 -11.913)" fill="#1a1311"/>
        <path id="패스_755" data-name="패스 755" d="M198.973,23.8v2.376a3.152,3.152,0,0,1-.588,2.139h1.37V29.5h-4.323v2.142h3.541v4.373h-2.129V32.828h-7.228V31.642H193.3V29.5h-4.358V28.313h7.313a5.8,5.8,0,0,0,.293-1.591V25.068h-6.932V23.8Z" transform="translate(-102.004 -12.847)" fill="#1a1311"/>
        <path id="패스_756" data-name="패스 756" d="M220.98,27.395c0,2.634-.5,3.218-.5,3.218h-2.073a8.853,8.853,0,0,0,.5-3.181v-2.56h-5.016V23.686h7.089Zm-3.67,4.694h4.514V23.377h2.128v5.69h1.576v1.293h-1.576v5.432h-2.128V33.275h-8.01V32.089h1.515V27.613h1.982Z" transform="translate(-115.43 -12.619)" fill="#1a1311"/>
        <path id="패스_757" data-name="패스 757" d="M245.056,24.348a2.487,2.487,0,0,1,.8.949,2.79,2.79,0,0,1,.323,1.3,2.7,2.7,0,0,1-1.081,2.158,4.36,4.36,0,0,1-5.318,0,2.716,2.716,0,0,1-1.068-2.158,2.8,2.8,0,0,1,.311-1.284,2.585,2.585,0,0,1,.807-.963h-1.111V23.205h2.665V22.069h2.162v1.136h2.618v1.143Zm-2.609,0a1.527,1.527,0,0,0-1.236.6,2.209,2.209,0,0,0-.449,1.388,2.128,2.128,0,0,0,.486,1.4,1.539,1.539,0,0,0,1.212.585,1.523,1.523,0,0,0,1.2-.585,2.092,2.092,0,0,0,.5-1.4,2.13,2.13,0,0,0-.462-1.388,1.5,1.5,0,0,0-1.234-.6h-.012Zm4.517-1.69h2.128v2.674h1.588v1.463h-1.588v2.811h-2.128Zm2.128,12.408h-2.128V31.442H240.4V30.257h8.7Z" transform="translate(-128.869 -11.913)" fill="#1a1311"/>
        <path id="패스_758" data-name="패스 758" d="M269.357,24.875h-4.712V23.689h7.017a18.281,18.281,0,0,1-.166,2.176c-.415,3.772-3.311,6.237-6.468,7.425l-.841-1.1s5.169-1.979,5.169-6.656Zm3.318-1.5H274.8V35.789h-2.128Z" transform="translate(-142.625 -12.62)" fill="#1a1311"/>
        <path id="패스_759" data-name="패스 759" d="M288.963,35.9V34.715H299.77V35.9h-4.32v.857h3.541V39.8h-7.157v.665h7.253v1.187h-9.344V38.613h7.119v-.668h-7.119V36.758h3.578V35.9Z" transform="translate(-156 -18.74)" fill="#1a1311"/>
        <path id="패스_760" data-name="패스 760" d="M339.481,24.032h2.128v1.815H346.6V24.032h2.128v6.357h-3.541V32.7h4.32v1.186H338.7V32.7h4.358V30.389h-3.578Zm7.119,3h-4.991V29.2H346.6Z" transform="translate(-182.851 -12.973)" fill="#1a1311"/>
        <path id="패스_761" data-name="패스 761" d="M371.922,28.285h-2.16v-.2a3.486,3.486,0,0,1-1.3,1.085,3.924,3.924,0,0,1-1.787.418,3.8,3.8,0,0,1-2.645-.99,3.142,3.142,0,0,1,0-4.763,3.831,3.831,0,0,1,2.645-.976,4.026,4.026,0,0,1,1.763.395,3.656,3.656,0,0,1,1.329,1.08v-.209h2.16V23.087h2.128v8.6h-2.128Zm-6.454-3.463a2.166,2.166,0,0,0-.482,1.428,2.143,2.143,0,0,0,.482,1.412,1.49,1.49,0,0,0,2.386,0,2.107,2.107,0,0,0,.508-1.412,2.131,2.131,0,0,0-.508-1.428,1.513,1.513,0,0,0-2.386,0m4.912.969a2.556,2.556,0,0,1,.038.442,1.92,1.92,0,0,1-.038.382,2.8,2.8,0,0,1-.075.4h1.617V25.379h-1.629c.033.147.062.284.087.412m-5.172,5H367.3v3.19h6.78v1.185h-8.87Z" transform="translate(-195.933 -12.342)" fill="#1a1311"/>
        <path id="패스_762" data-name="패스 762" d="M398.472,24.032v3.16a3.837,3.837,0,0,1-.587,2.343h1.37v1.206h-4.342v5.4h-2.128v-5.4h-4.346V29.535h7.318a5.128,5.128,0,0,0,.613-2.343c0-.891-.026-1.975-.026-1.975h-7.226V24.032Z" transform="translate(-209.703 -12.973)" fill="#1a1311"/>
        <path id="패스_763" data-name="패스 763" d="M329.22,27.032h1.617v3.286h2.128v-6.94h-2.128v2.467H329.22Z" transform="translate(-177.733 -12.62)" fill="#1a1311"/>
        <path id="패스_764" data-name="패스 764" d="M325.938,38.821a5.388,5.388,0,0,0-3.339-.928,5.475,5.475,0,0,0-3.365.928,2.559,2.559,0,0,0-1.08,2.088,2.5,2.5,0,0,0,1.08,2.049,6.441,6.441,0,0,0,6.7,0,2.48,2.48,0,0,0,1.106-2.049,2.54,2.54,0,0,0-1.106-2.088m-1.687,3.333a2.658,2.658,0,0,1-3.316,0,1.651,1.651,0,0,1-.559-1.245,1.681,1.681,0,0,1,.559-1.271,2.366,2.366,0,0,1,1.664-.581,2.323,2.323,0,0,1,1.652.581,1.651,1.651,0,0,1,.583,1.271,1.622,1.622,0,0,1-.583,1.245" transform="translate(-171.759 -20.455)" fill="#1a1311"/>
        <path id="패스_765" data-name="패스 765" d="M429.8,33.176h2.128V23.367H429.8v7.184h-2.054v1.186H429.8Z" transform="translate(-230.923 -12.614)" fill="#1a1311"/>
        <path id="패스_766" data-name="패스 766" d="M419.385,44.663V42.65h-2.091v3.2h9.181V44.663Z" transform="translate(-225.281 -23.023)" fill="#1a1311"/>
        <path id="패스_767" data-name="패스 767" d="M414.212,27.246a4.783,4.783,0,0,0,2.858.763,4.927,4.927,0,0,0,2.684-.664,2.283,2.283,0,0,0,1.143-1.562,1.614,1.614,0,0,0-.03-.823,2.2,2.2,0,0,0-.33-.689,3.128,3.128,0,0,0-1.306-1.018,5.544,5.544,0,0,0-2.161-.391,4.75,4.75,0,0,0-2.858.777,2.208,2.208,0,0,0-.983,1.831,2.115,2.115,0,0,0,.983,1.775m1.525-2.79a2.248,2.248,0,0,1,2.645,0,1.259,1.259,0,0,1,.523,1.013,1.223,1.223,0,0,1-.523.972,2.19,2.19,0,0,1-2.645,0,1.233,1.233,0,0,1-.509-.972,1.27,1.27,0,0,1,.509-1.013" transform="translate(-223.086 -12.341)" fill="#1a1311"/>
        <path id="패스_768" data-name="패스 768" d="M416.321,37.945h2.055V36.069h3.129V34.883H413.69v1.186h2.632Z" transform="translate(-223.335 -18.83)" fill="#1a1311"/>
        <rect id="사각형_1342" data-name="사각형 1342" width="4.926" height="12.781" transform="translate(28.603 17.056)" fill="#0064b6"/>
        <path id="패스_769" data-name="패스 769" d="M110.6,28.2V42.451h-4.975V28.2h-3.865v-4.83h12.705V28.2Z" transform="translate(-54.937 -12.614)" fill="#0064b6"/>
        <rect id="사각형_1343" data-name="사각형 1343" width="4.928" height="12.781" transform="translate(61.241 17.056)" fill="#0064b6"/>
        <path id="패스_770" data-name="패스 770" d="M66.932,24.823A3.122,3.122,0,1,1,63.809,21.7a3.122,3.122,0,0,1,3.123,3.122" transform="translate(-32.763 -11.715)" fill="#0064b6"/>
        <path id="패스_771" data-name="패스 771" d="M62.625,41.376c9.837-3.935,19.112-9.175,19.112-13.088,0-1.975-1.287-3.142-4.6-3.548-2.141-.264-4.585-.042-4.152-1.974.421-1.879,5.219-3.632,7.646-3.945V14.944c-6.464,2.215-12.261,5.087-12.261,9.271,0,2.007,1.2,4.1,4.594,4.408,3.267.293,3.954,1.19,3.954,2.435,0,2.448-6.119,6.383-14.3,10.318" transform="translate(-33.809 -8.067)" fill="#c01"/>
        <path id="패스_772" data-name="패스 772" d="M137.809,24.823a3.121,3.121,0,1,1-3.122-3.122,3.121,3.121,0,0,1,3.122,3.122" transform="translate(-71.028 -11.715)" fill="#0064b6"/>
        <path id="패스_773" data-name="패스 773" d="M3.713,65.667c-1.991-3.622,7.095-11.724,7.095-11.724C2.2,60.229-1.089,65.139.312,67.507c1.627,2.749,11.346,2.351,26.035-4.077-11.8,4.591-21.171,4.9-22.634,2.237" transform="translate(0 -29.12)" fill="#0064b6"/>
        <path id="패스_774" data-name="패스 774" d="M111.7,1.948C109.085-2.333,94.807.42,75.485,10.42,91.815,3,106.314-.089,109.091,3.768c.913,1.268.578,3.76-1.562,6.883,1.851-1.793,5.495-6.536,4.172-8.7" transform="translate(-40.751 0)" fill="#0064b6"/>
        <path id="패스_775" data-name="패스 775" d="M26.483,42.45V23.368h4.928v8.486l4.14-8.486h5.707l-4.637,8.695L41.362,42.45H35.877L31.412,32.283V42.45Z" transform="translate(-14.297 -12.614)" fill="#0064b6"/>
        <path id="패스_776" data-name="패스 776" d="M68.157,73.58h.8l.365,2.211h.012l.387-2.211h.869L71,75.791h.012l.375-2.211h.765l-.671,3.114h-.908l-.411-2.212h-.012l-.388,2.212h-.926Z" transform="translate(-36.795 -39.72)" fill="#1a1311"/>
        <path id="패스_777" data-name="패스 777" d="M77.014,73.58h.8l.364,2.211h.012l.388-2.211h.868l.411,2.211h.012l.377-2.211h.764l-.671,3.114h-.909l-.411-2.212h-.012l-.388,2.212h-.926Z" transform="translate(-41.577 -39.72)" fill="#1a1311"/>
        <path id="패스_778" data-name="패스 778" d="M85.871,73.58h.8l.365,2.211h.011l.387-2.211H88.3l.411,2.211h.012L89.1,73.58h.764l-.671,3.114h-.909l-.411-2.212h-.012l-.387,2.212h-.926Z" transform="translate(-46.358 -39.72)" fill="#1a1311"/>
        <rect id="사각형_1344" data-name="사각형 1344" width="0.764" height="0.903" transform="translate(43.646 36.071)" fill="#1a1311"/>
        <path id="패스_779" data-name="패스 779" d="M98.636,71.365v2.182h.012l.8-1.163h.88l-.9,1.227,1.031,1.887h-.88l-.666-1.28-.283.371V75.5h-.8V71.365Z" transform="translate(-52.819 -38.524)" fill="#1a1311"/>
        <path id="패스_780" data-name="패스 780" d="M104.128,72.33h.8v3.114h-.8Zm0-1.065h.8v.682h-.8Z" transform="translate(-56.215 -38.47)" fill="#1a1311"/>
        <path id="패스_781" data-name="패스 781" d="M107.511,75.58v.1a.4.4,0,0,0,.416.451.354.354,0,0,0,.4-.37.366.366,0,0,0-.289-.353l-.561-.2a.861.861,0,0,1-.666-.868c0-.515.323-.938,1.146-.938.724,0,1.066.324,1.066.886v.127h-.718c0-.312-.093-.469-.353-.469a.34.34,0,0,0-.377.336c0,.15.081.278.347.364l.481.162a.834.834,0,0,1,.687.892c0,.654-.486.978-1.157.978-.9,0-1.146-.394-1.146-.99v-.11Z" transform="translate(-57.653 -39.624)" fill="#1a1311"/>
        <path id="패스_782" data-name="패스 782" d="M112.57,71.641h.8v.892h.463v.544h-.463v1.684c0,.244.052.341.284.341a1.72,1.72,0,0,0,.179-.011v.555a4.992,4.992,0,0,1-.522.034c-.624,0-.739-.191-.739-.821V73.077h-.406v-.544h.406Z" transform="translate(-60.553 -38.673)" fill="#1a1311"/>
        <path id="패스_783" data-name="패스 783" d="M116.455,72.33h.8v3.114h-.8Zm0-1.065h.8v.682h-.8Z" transform="translate(-62.87 -38.47)" fill="#1a1311"/>
        <rect id="사각형_1345" data-name="사각형 1345" width="0.764" height="0.903" transform="translate(54.993 36.071)" fill="#1a1311"/>
        <path id="패스_784" data-name="패스 784" d="M122.431,73.484h.764V73.9h.012a.807.807,0,0,1,.718-.5,1.3,1.3,0,0,1,.145.012v.764c-.081-.006-.168-.012-.25-.012a.54.54,0,0,0-.59.561V76.6h-.8Z" transform="translate(-66.096 -39.624)" fill="#1a1311"/>
        <path id="패스_785" data-name="패스 785" d="M127.167,74.688v-.122c0-.289.093-.619.411-.619s.388.266.4.741Zm1.581.474v-.179c0-.955-.208-1.581-1.14-1.581-1.077,0-1.24.776-1.24,1.61,0,.775.046,1.667,1.2,1.667A1.022,1.022,0,0,0,128.7,75.55h-.718c-.046.382-.156.584-.423.584-.295,0-.393-.359-.393-.723v-.249Z" transform="translate(-68.221 -39.624)" fill="#1a1311"/>
        <rect id="사각형_1346" data-name="사각형 1346" width="0.764" height="0.903" transform="translate(60.99 36.071)" fill="#1a1311"/>
        <path id="패스_786" data-name="패스 786" d="M136.326,71.365v2.182h.011l.8-1.163h.881l-.9,1.227,1.031,1.887h-.88l-.666-1.28-.283.371V75.5h-.8V71.365Z" transform="translate(-73.166 -38.524)" fill="#1a1311"/>
        <path id="패스_787" data-name="패스 787" d="M141.753,73.484h.765V73.9h.012a.807.807,0,0,1,.719-.5,1.284,1.284,0,0,1,.144.012v.764c-.081-.006-.168-.012-.249-.012a.54.54,0,0,0-.591.561V76.6h-.8Z" transform="translate(-76.527 -39.624)" fill="#1a1311"/>
      </g>
    </g>
  </g>
</svg>
