<svg xmlns="http://www.w3.org/2000/svg" xmlns:xlink="http://www.w3.org/1999/xlink" width="146.586" height="47.003" viewBox="0 0 146.586 47.003">
  <defs>
    <clipPath id="clip-path">
      <rect id="사각형_1351" data-name="사각형 1351" width="146.586" height="47.003" fill="none"/>
    </clipPath>
    <clipPath id="clip-path-2">
      <path id="패스_797" data-name="패스 797" d="M183.337,64.995h.13c-.069-.032-.133-.064-.2-.091l.069.091m13.438-30.42c-6.6,4.111-13.106,9.762-16.1,18.2-2.493,6.979-.508,10.468-.508,10.468a23.588,23.588,0,0,0,3.105,1.66c-.53-.742-3.831-5.875.069-13.126,4.225-7.85,9.639-13.772,18.956-17.457,2-.552,5.72-1.182,8.144-.309s2.733,1.622,2.733,1.622-1.166-3.108-2.358-3.748a8.8,8.8,0,0,0-3.387-.5,20.312,20.312,0,0,0-10.651,3.19" transform="translate(-179.414 -31.384)" fill="none"/>
    </clipPath>
    <linearGradient id="linear-gradient" x1="-1.687" y1="1.084" x2="-1.677" y2="1.084" gradientUnits="objectBoundingBox">
      <stop offset="0" stop-color="#397235"/>
      <stop offset="0.17" stop-color="#397235"/>
      <stop offset="0.814" stop-color="#83b92c"/>
      <stop offset="1" stop-color="#83b92c"/>
    </linearGradient>
    <clipPath id="clip-path-3">
      <path id="패스_798" data-name="패스 798" d="M179.345,21.424c-6.83,5.042-13.052,13.4-15.1,20.2-1.12,4.055-.939,4.738-.939,4.738l2,2.422s-1-6.664,5.96-16.077,13.611-12.336,16.288-13.459a20.59,20.59,0,0,1,9.134-1.878s-1.985-2.052-2.615-2.052a32.987,32.987,0,0,0-14.729,6.107" transform="translate(-163.296 -15.317)" fill="none"/>
    </clipPath>
    <linearGradient id="linear-gradient-2" x1="-1.629" y1="1.25" x2="-1.619" y2="1.25" gradientUnits="objectBoundingBox">
      <stop offset="0" stop-color="#0f61a1"/>
      <stop offset="0.17" stop-color="#0f61a1"/>
      <stop offset="0.814" stop-color="#0099da"/>
      <stop offset="1" stop-color="#0099da"/>
    </linearGradient>
    <clipPath id="clip-path-4">
      <path id="패스_799" data-name="패스 799" d="M180.449,6.232s-5.832.715-14.05,8.292c-10.283,9.484-11.935,17.515-11.935,18.263s1.12,4.93,1.49,4.668c.375-.24-.74-5.416,5.473-14.021S176.528,8.1,185.292,7.6a12.908,12.908,0,0,0-4.6-1.379c-.088,0-.167,0-.245.008" transform="translate(-154.464 -6.224)" fill="none"/>
    </clipPath>
    <linearGradient id="linear-gradient-3" x1="-1.683" y1="1.426" x2="-1.672" y2="1.426" gradientUnits="objectBoundingBox">
      <stop offset="0" stop-color="#8b4a28"/>
      <stop offset="0.103" stop-color="#8b4a28"/>
      <stop offset="0.84" stop-color="#f57111"/>
      <stop offset="1" stop-color="#f57111"/>
    </linearGradient>
  </defs>
  <g id="그룹_2366" data-name="그룹 2366" transform="translate(15940 6492)">
    <rect id="사각형_1348" data-name="사각형 1348" width="3.954" height="23.342" transform="translate(-15940 -6480.356)" fill="#1a1818"/>
    <path id="패스_788" data-name="패스 788" d="M19.159,34.735,11.582,45.657l7.862,12.367h4.991L15.887,45.542l8.088-10.808Z" transform="translate(-15947.692 -6515.038)" fill="#1a1818"/>
    <g id="그룹_366" data-name="그룹 366" transform="translate(-15940 -6492)">
      <g id="그룹_365" data-name="그룹 365" clip-path="url(#clip-path)">
        <path id="패스_789" data-name="패스 789" d="M63.5,51.308a13.709,13.709,0,0,0-2.993-3.624,6.193,6.193,0,0,0,3.618-1.152,6.964,6.964,0,0,0,2.238-5.178,7.135,7.135,0,0,0-2.009-5c-1.383-1.441-4.757-1.777-5.677-1.777H51.573V57.919h3.9l.058-10c.625,0,1.2.224,2.8,2.294a88.3,88.3,0,0,1,4.712,7.7h4.584S65.1,53.89,63.5,51.308m-7.976-6.153v-7.3s1.891-.064,2.517-.064,4.3.112,4.3,3.559a3.469,3.469,0,0,1-3.73,3.8Z" transform="translate(-34.253 -22.933)" fill="#1a1818"/>
        <rect id="사각형_1349" data-name="사각형 1349" width="3.791" height="23.406" transform="translate(34.457 11.644)" fill="#1a1818"/>
        <rect id="사각형_1350" data-name="사각형 1350" width="8.429" height="3.287" transform="translate(36.987 21.238)" fill="#1a1818"/>
        <path id="패스_790" data-name="패스 790" d="M111.338,94.685h10.727l1.482,3.159H110.481Z" transform="translate(-73.377 -62.799)" fill="#1a1818"/>
        <path id="패스_791" data-name="패스 791" d="M102.606,34.577h11.98l2.477,3.159H103.812Z" transform="translate(-68.147 -22.933)" fill="#1a1818"/>
        <path id="패스_792" data-name="패스 792" d="M139.7,14.8S143.715,2.1,159.375.022c0,0-8.61-.576-15.2,4.026s-7.479,8.649-7.479,8.649Z" transform="translate(-90.786 0)" fill="#1a1818"/>
        <path id="패스_793" data-name="패스 793" d="M171.639,15.516s-5.6,2.361-8.263,6.419-3.666,7.1-3.73,9.033c.186.432.564.68.62,1a13.489,13.489,0,0,1,.309,2.307.825.825,0,0,0,1.312.68c.311-.371,1.109-1.054,1.245-.552s.737,1.306.926,2.117a10.532,10.532,0,0,0,1.373,2.988c.245.128.309.571.309,1,0,.443.495-.059.8-.309s.692-.251.625-.56a4.743,4.743,0,0,0-.436-1.184,16.742,16.742,0,0,1-.62-1.622s-.066-.309.62-.309a7.465,7.465,0,0,0,2.612-.187,3.089,3.089,0,0,0,1.8-2.184c.122-1.056-.436-1.428.072-1.806.492-.376.676-.872.117-.752s-.553.376-.625-.307.686-.936.87-.683.37.371.564.312a.339.339,0,0,1,.431.371c0,.307-.25.435-.061.435s.5.371.253.5-.314.752.064.752a.772.772,0,0,0,.751-.883c-.067-.558-.631-.5-.5-.867a3.391,3.391,0,0,1,1.24-1.246c.311-.125.676.309,1.245-.5s1.179-1.369,1.179-2.113.064-1.126-.37-1.064-.681.123-.681-.245.8-1.5,1.235-1.5,1.25.254,1.812-.125.553-1,1.117-1,.431.437.37.752-.5.371-.442,1,.136,1.3.564,1.054.564-.432.564-1.243-.319-.936.066-1.19c.367-.248.681-.125,1.043-.683s1.25-1.179,1.25-1.747-.992-.68-2.048-.68-3.789.064-5.162.064-2.921-.376-2.546-.622a2.028,2.028,0,0,1,1.049-.5c.38,0,0-.435-.809-.376s-2.485-.123-2.855.131-.617.75-.931.435.178-.939.178-1.558.2-.678.817-1.251c.617-.558.617-.558.748-.934a.546.546,0,0,0-.066-.555" transform="translate(-106.03 -10.291)" fill="#1a1818"/>
        <path id="패스_794" data-name="패스 794" d="M221.235,12.317a2.824,2.824,0,0,0,.809.87c.437.254-.314.878-.681.563s-.692-.064-1.061-.064-1.8.568-1.8,0a2.314,2.314,0,0,1,2.674-1.494Z" transform="translate(-145.117 -8.031)" fill="#1a1818"/>
        <path id="패스_795" data-name="패스 795" d="M229.165,13.092a39,39,0,0,1,5.044,1.87,27.142,27.142,0,0,1,5.835,5.176c1.357,1.622,3.477,5.984,3.6,8.54A12.073,12.073,0,0,1,241.356,26a6.286,6.286,0,0,0-4.292-2.8c-1.189-.133-.883.056-1.306.12a9.029,9.029,0,0,1-1.317.064c-.431,0-.37.619-.05,1.243a3.37,3.37,0,0,1,0,2.06c-.123.808-.061.87-.442.245s-.253-1.43-.989-1.809-1.181-.747-.8-1.12.615-.619.364-.936a2.563,2.563,0,0,0-.923-.928c-.636-.374-1.5-1.307-.5-1.436a3.862,3.862,0,0,0,1.918-.995c.253-.195-.245-.5,0-.809a3.1,3.1,0,0,0,.375-1.627,4.614,4.614,0,0,0-1.173-2.241,17.141,17.141,0,0,0-3.366-1.809Z" transform="translate(-151.993 -8.683)" fill="#1a1818"/>
        <path id="패스_796" data-name="패스 796" d="M196.986,95.635c-.37.064-.625.566-.625,1.382,0,.8.378,1.051-.309.992a5.6,5.6,0,0,1-2.355-.934c-.442-.373.112-.437.245-.875s-.559-.245-.995-.245a19.051,19.051,0,0,0-2.049-.187c-.5.054-.311.87-1,.491s-.934-.747-1.559-.368-.931,1.126-1.5,1.126c-.548,0-2.049.123-2.049.432a5.7,5.7,0,0,0,1.748,2.8,29.713,29.713,0,0,0,6.588,2.5,16.2,16.2,0,0,0,6.593.443c1.977-.379,3.172-.763,2.735-1.691s-2.924-1.985-3.366-3.047-.559-1.372-1.051-1.43c-.5-.075-1.059-1.382-1.059-1.382" transform="translate(-122.735 -63.429)" fill="#1a1818"/>
      </g>
    </g>
    <g id="그룹_368" data-name="그룹 368" transform="translate(-15879.745 -6481.431)">
      <g id="그룹_367" data-name="그룹 367" clip-path="url(#clip-path-2)">
        <rect id="사각형_1352" data-name="사각형 1352" width="34.992" height="33.611" transform="translate(-1.236 0)" fill="url(#linear-gradient)"/>
      </g>
    </g>
    <g id="그룹_370" data-name="그룹 370" transform="translate(-15885.158 -6486.842)">
      <g id="그룹_369" data-name="그룹 369" clip-path="url(#clip-path-3)">
        <rect id="사각형_1353" data-name="사각형 1353" width="33.563" height="33.466" transform="translate(-0.17 0)" fill="url(#linear-gradient-2)"/>
      </g>
    </g>
    <g id="그룹_372" data-name="그룹 372" transform="translate(-15888.124 -6489.904)">
      <g id="그룹_371" data-name="그룹 371" clip-path="url(#clip-path-4)">
        <rect id="사각형_1354" data-name="사각형 1354" width="30.828" height="31.492" transform="translate(0 0)" fill="url(#linear-gradient-3)"/>
      </g>
    </g>
    <g id="그룹_374" data-name="그룹 374" transform="translate(-15940 -6492)">
      <g id="그룹_373" data-name="그룹 373" clip-path="url(#clip-path)">
        <path id="패스_800" data-name="패스 800" d="M243.4,34.779s4.81,6.328,2.679,16.688-10.892,15.356-13.018,16.3a20.1,20.1,0,0,1-8.045,2.139s9.7.95,16.575-5.063c6.854-6.013,8.83-10.842,9.072-18.908L258.7,58.042h4.111V34.7h-3.4V52.188L247.51,34.617Z" transform="translate(-149.448 -22.959)" fill="#1a1818"/>
        <path id="패스_801" data-name="패스 801" d="M356.752,34.869l-.548,3.084h-8.452v6.565h7.106v3.159h-7.018V55.04h9.152v3.244h-13.1V35.061Z" transform="translate(-228.396 -23.127)" fill="#1a1818"/>
        <path id="패스_802" data-name="패스 802" d="M388.8,35.337h16.011l-.553,3H388.8Z" transform="translate(-258.223 -23.437)" fill="#1a1818"/>
        <path id="패스_803" data-name="패스 803" d="M406.163,42.77V63.338h3.869V42.6Z" transform="translate(-269.756 -28.255)" fill="#1a1818"/>
      </g>
    </g>
  </g>
</svg>
