<svg xmlns="http://www.w3.org/2000/svg" xmlns:xlink="http://www.w3.org/1999/xlink" width="219.94" height="31.968" viewBox="0 0 219.94 31.968">
  <defs>
    <clipPath id="clip-path">
      <rect id="사각형_162" data-name="사각형 162" width="219.94" height="31.968" fill="none"/>
    </clipPath>
  </defs>
  <g id="군산대학교" transform="translate(0 0)">
    <g id="그룹_213" data-name="그룹 213" transform="translate(0 0)">
      <g id="그룹_212" data-name="그룹 212" clip-path="url(#clip-path)">
        <path id="패스_213" data-name="패스 213" d="M92.263,16.035H93.6V19.2H84.644v5.265h-3.6V19.2H71.457V16.035h17.2V9.342H72.849V6.178H90.406a2.327,2.327,0,0,1,1.366.35,1.43,1.43,0,0,1,.492,1.246Zm-15.809,10.7H92.4V29.87H74.651a1.957,1.957,0,0,1-1.3-.42,1.475,1.475,0,0,1-.505-1.2v-7.17h3.6Z" transform="translate(19.917 1.722)" fill="#00287a"/>
        <path id="패스_214" data-name="패스 214" d="M99.848,11.158,94.36,18.943,91.3,16.479l7.29-9.634A5.125,5.125,0,0,1,99,6.369c.127-.112.26-.218.4-.322a.7.7,0,0,1,.424-.154,1.04,1.04,0,0,1,.655.266,4.276,4.276,0,0,1,.655.686l7.4,9.634L105.5,18.943Zm13.98-.448h3.3v3.221h-3.3V29.949H97.091a1.243,1.243,0,0,1-.942-.476,1.825,1.825,0,0,1-.424-1.26V21.184h3.631v5.629h10.786V6.257h3.685Z" transform="translate(25.448 1.643)" fill="#00287a"/>
        <path id="패스_215" data-name="패스 215" d="M131.94,6.178h3.6V29.842h-3.6V14.523h-1.829v15.32h-3.522V21.5H114.929a1.712,1.712,0,0,1-1.967-1.9V6.178h11.414V9.314h-7.809V18.36h10.021V6.178h3.522v5.181h1.829Z" transform="translate(31.485 1.722)" fill="#00287a"/>
        <path id="패스_216" data-name="패스 216" d="M133.534,10.239V7.187h5.489V5.17h3.6V7.187h5.6v3.052h-2.076a5.54,5.54,0,0,1,.833,1.6,5.863,5.863,0,0,1,.287,1.848,5.259,5.259,0,0,1-.478,2.2,6.087,6.087,0,0,1-1.338,1.876,6.461,6.461,0,0,1-2.062,1.317,6.875,6.875,0,0,1-2.621.49,6.594,6.594,0,0,1-2.566-.49,6.3,6.3,0,0,1-2.007-1.3,6.045,6.045,0,0,1-1.311-1.876,5.342,5.342,0,0,1-.478-2.213,5.913,5.913,0,0,1,.286-1.834,5.507,5.507,0,0,1,.833-1.61Zm21.707.28h3.44v3.137h-3.44v16.5h-3.6V23.879H136.592V20.714h15.045V6.459h3.6ZM140.77,16.681a3.075,3.075,0,0,0,2.185-.882,3.126,3.126,0,0,0,.655-.952,2.785,2.785,0,0,0,.246-1.163,3.112,3.112,0,0,0-.232-1.2,2.966,2.966,0,0,0-.655-.981,3.123,3.123,0,0,0-.983-.658,3.072,3.072,0,0,0-1.215-.239,2.787,2.787,0,0,0-2.144.868,3.124,3.124,0,0,0-.805,2.212,3.074,3.074,0,0,0,.778,2.129,2.765,2.765,0,0,0,2.171.868" transform="translate(37.219 1.441)" fill="#00287a"/>
        <path id="패스_217" data-name="패스 217" d="M175.161,26.677h1.666V29.87H154.683V26.677h4.122V16.148h3.55v10.53h2.812V16.148h3.55v10.53h2.84V9.343H156.13V6.178h17.2a2.064,2.064,0,0,1,1.379.392,1.708,1.708,0,0,1,.451,1.344Z" transform="translate(43.114 1.722)" fill="#00287a"/>
        <path id="패스_218" data-name="패스 218" d="M69.64,10.438h.476v1.477h-4.37v1.148H69.64v4.406h-1.7V14.554h-7.75V13.063h3.856V11.916H59.69V10.438h8.252V7.668h-7.75V6.178h8.677a.8.8,0,0,1,.566.192.709.709,0,0,1,.206.547Z" transform="translate(16.637 1.722)" fill="#00287a"/>
        <path id="패스_219" data-name="패스 219" d="M69.531,27.091h-7.7a.8.8,0,0,1-.591-.2.741.741,0,0,1-.193-.541V22.223h1.7v.949h5.093V21.722h-6.9q-.849,0-.849-.791V18.2h4.476v-.66H60.082V16.089h6.174v3.522h-4.5v.673h6.079v-4.2h1.7Zm-1.7-2.453H62.74v1h5.093Z" transform="translate(16.746 4.485)" fill="#00287a"/>
        <path id="패스_220" data-name="패스 220" d="M11.6,28.4,3.309,20.126V28.4H.015V11.451H3.309v8.1l8.114-8.1h4.471L7.387,19.679,16.134,28.4Z" transform="translate(0.004 3.192)" fill="#00287a"/>
        <path id="패스_221" data-name="패스 221" d="M42.127,28.858a2.5,2.5,0,0,1-.971-.187,2.43,2.43,0,0,1-.84-.609L29.476,16.429V28.485H26.4V12.725a1.412,1.412,0,0,1,.491-1.181,2.011,2.011,0,0,1,1.276-.385,2.213,2.213,0,0,1,.938.174,1.839,1.839,0,0,1,.61.448L40.645,23.787V11.532h3.141v15.76a1.446,1.446,0,0,1-.458,1.206,1.886,1.886,0,0,1-1.2.36" transform="translate(7.358 3.111)" fill="#00287a"/>
        <path id="패스_222" data-name="패스 222" d="M0,14.328c4.037-3.479,15-8.573,34.633-8.573,19.82,0,30.806,5.132,34.746,8.563V8.643a1.332,1.332,0,0,0-.51-1.08C63.487,3.636,52.547,0,34.633,0,16.854,0,5.94,3.654.514,7.58A1.329,1.329,0,0,0,0,8.662Z" transform="translate(0 0)" fill="#f27c00"/>
        <path id="패스_223" data-name="패스 223" d="M29.18,24.915V22.061A3.435,3.435,0,0,0,25.8,18.571H17.324A1.347,1.347,0,0,1,16,17.2V15.526a1.347,1.347,0,0,1,1.325-1.368H29.18v-2.71H16a3.435,3.435,0,0,0-3.378,3.489v2.854A3.435,3.435,0,0,0,16,21.281h8.478A1.347,1.347,0,0,1,25.8,22.649v1.678a1.347,1.347,0,0,1-1.325,1.367H12.621V28.4H25.8a3.435,3.435,0,0,0,3.378-3.489" transform="translate(3.518 3.191)" fill="#00287a"/>
        <path id="패스_224" data-name="패스 224" d="M52.33,11.45V23.811a1.346,1.346,0,0,1-1.324,1.367H49.174V28.4H52.33a3.435,3.435,0,0,0,3.378-3.489V11.45Z" transform="translate(13.706 3.192)" fill="#00287a"/>
        <path id="패스_225" data-name="패스 225" d="M41.03,11.45V24.914A3.435,3.435,0,0,0,44.408,28.4h3.156V25.178H45.732a1.346,1.346,0,0,1-1.324-1.367V11.45Z" transform="translate(11.436 3.192)" fill="#00287a"/>
        <rect id="사각형_161" data-name="사각형 161" width="4.989" height="3.225" transform="translate(58.445 28.371)" fill="#00287a"/>
      </g>
    </g>
  </g>
</svg>
