<svg xmlns="http://www.w3.org/2000/svg" xmlns:xlink="http://www.w3.org/1999/xlink" width="162.993" height="40" viewBox="0 0 162.993 40">
  <defs>
    <clipPath id="clip-path">
      <rect id="사각형_1360" data-name="사각형 1360" width="162.993" height="40" fill="none"/>
    </clipPath>
  </defs>
  <g id="그룹_2371" data-name="그룹 2371" transform="translate(0 0)">
    <path id="패스_804" data-name="패스 804" d="M222.9,34.314H206.924v3.076H222.73V43.13h3.577V34.314H222.9Z" transform="translate(-90.459 -15.038)" fill="#7c0019"/>
    <g id="그룹_376" data-name="그룹 376" transform="translate(0 0)">
      <g id="그룹_375" data-name="그룹 375" clip-path="url(#clip-path)">
        <path id="패스_805" data-name="패스 805" d="M212.29,20.715a6.143,6.143,0,0,0,6.285-5.973,5.367,5.367,0,0,0-.992-3.085h2.132v-2.9h-5.772V6.522H210.5V8.755h-5.9v2.9h2.323a5.263,5.263,0,0,0-1.016,3.085,6.269,6.269,0,0,0,6.379,5.973m0-2.881a2.981,2.981,0,1,1,2.968-2.981,2.98,2.98,0,0,1-2.968,2.981" transform="translate(-89.238 -2.845)" fill="#7c0019"/>
        <path id="패스_806" data-name="패스 806" d="M238.071,9.7h-3.53v12.55h3.53V17.675h2.348V14.537h-2.348Z" transform="translate(-102.295 -4.23)" fill="#7c0019"/>
        <path id="패스_807" data-name="패스 807" d="M88.511,15.671V12.013l-.01-1.855V9.993H71.024V13.07h14V18.7c0,.07-.046,7.035-1.061,8.794H79.5V19.537H76.135V27.5H68.61v3.076H90.729V27.5H87.413c.27-.864,1.1-4.134,1.1-11.827" transform="translate(-29.924 -4.359)" fill="#7c0019"/>
        <path id="패스_808" data-name="패스 808" d="M268.624,27.5c.26-.786,1.117-3.986,1.117-11.974V12.905l.03-2.747V9.993H252.257V13.07h14v5.505c0,1.54-.19,7.483-1.1,8.922H263.41V19.63h-3.361V27.5h-2.54V19.63h-3.363V27.5H249.84v3.076h22.122V27.5Z" transform="translate(-108.968 -4.359)" fill="#7c0019"/>
        <path id="패스_809" data-name="패스 809" d="M131.151,9.5v4h-3.746v2.917h3.746v3.371h-3.746v2.915h3.746v2.251c-1.294,1.289-4.435,1.217-4.469,1.216h-7.838V20.36h7.114V9.592H115.076v2.963h7.519v4.726h-7.284v.057h-.055v9.149a2.787,2.787,0,0,0,2.422,2.732l8.6-.062a12.637,12.637,0,0,0,4.874-.743V31.9h3.533V9.5h-3.533Z" transform="translate(-50.19 -4.144)" fill="#7c0019"/>
        <path id="패스_810" data-name="패스 810" d="M176.933,9.558v8.011H174.7V9.558h-3.231V24.913a8.563,8.563,0,0,1-4.032.873h-4.115V12.674h5.312V9.719h-8.823V25.993a2.771,2.771,0,0,0,2.417,2.831c.037,0,2.395.055,4.812-.059a12.562,12.562,0,0,0,4.429-.816V31.9H174.7V20.7h2.231V31.9h3.23V9.558h-3.23Z" transform="translate(-69.702 -4.169)" fill="#7c0019"/>
        <path id="패스_811" data-name="패스 811" d="M29.63.918V22.057S29.8,29.691,24.5,34.1a50.663,50.663,0,0,1-9.2,5.786h-.052A38.971,38.971,0,0,1,6.127,34.1C.837,29.691.918,22.057.918,22.057V.918Z" transform="translate(-0.4 -0.401)" fill="#d7c9b1"/>
        <path id="패스_812" data-name="패스 812" d="M29.23,0H0V21.656c0,.316-.022,7.926,5.4,12.437l-.012-.01a38.994,38.994,0,0,0,9.258,5.874l.1.042h.271l.1-.048A51.748,51.748,0,0,0,24.429,34.1c5.426-4.518,5.326-12.131,5.318-12.453V0Zm-.518,1.035V21.7c0,.639-.114,7.579-4.939,11.6a50.963,50.963,0,0,1-8.9,5.626,38.99,38.99,0,0,1-8.8-5.617l-.011-.01C1.092,29.165,1.034,21.933,1.034,21.668V1.035Z" transform="translate(0 0)" fill="#7c0019"/>
        <rect id="사각형_1356" data-name="사각형 1356" width="28.599" height="11.367" transform="translate(0.518 0.518)" fill="#7c0019"/>
        <rect id="사각형_1357" data-name="사각형 1357" width="27.629" height="0.211" transform="translate(1.094 1.103)" fill="#d7c9b1"/>
        <rect id="사각형_1358" data-name="사각형 1358" width="27.629" height="0.212" transform="translate(1.094 7.018)" fill="#d7c9b1"/>
        <rect id="사각형_1359" data-name="사각형 1359" width="27.63" height="0.211" transform="translate(1.031 10.55)" fill="#d7c9b1"/>
        <path id="패스_813" data-name="패스 813" d="M22.185,61.75h.38c.053,0,.033-.048.033-.048a3.528,3.528,0,0,1-.044-1.378s.016-.047-.039-.047h-.376c-.051,0-.032.039-.032.039a4.128,4.128,0,0,1,.045,1.382s-.023.052.033.052" transform="translate(-9.64 -26.29)" fill="#7c0019"/>
        <path id="패스_814" data-name="패스 814" d="M24.287,60.2c-.606.058-.568.767-.568.767a.863.863,0,0,0,.7.763,1.113,1.113,0,0,1-.667.639c-.114.045-.031.077-.031.077a.638.638,0,0,0,.357-.036,1.58,1.58,0,0,0,.912-1.331c.019-.949-.7-.88-.7-.88m.216,1.306c-.29.008-.359-.443-.359-.443-.075-.5.118-.523.118-.523.2-.064.292.358.292.358.1.485-.051.608-.051.608" transform="translate(-10.334 -26.257)" fill="#7c0019"/>
        <path id="패스_815" data-name="패스 815" d="M27.792,60.771a.66.66,0,0,0-.632-.583s-.546-.014-.572.743c0,0-.021.8.669.763,0,0,.677-.042.535-.924m-.526.671c-.261.1-.29-.438-.29-.438-.027-.51.18-.56.18-.56.21-.052.268.323.268.323.095.58-.158.675-.158.675" transform="translate(-11.596 -26.251)" fill="#7c0019"/>
        <path id="패스_816" data-name="패스 816" d="M28.947,61.883a.6.6,0,0,0,.738-.3c.186-.586-.546-.615-.546-.615l.118-.754a3.378,3.378,0,0,0,.931-.063s.045-.031.02.08a.324.324,0,0,1-.281.27l-.361.03-.034.212a.6.6,0,0,1,.613.662.737.737,0,0,1-.633.65,1.139,1.139,0,0,1-.616-.072s-.05-.024-.023-.064a.068.068,0,0,1,.074-.037" transform="translate(-12.59 -26.234)" fill="#7c0019"/>
        <path id="패스_817" data-name="패스 817" d="M25.087,38.136c.046-.056.105-.016.155,0s.048.105.076.152.106.126.114.155a1.609,1.609,0,0,1-.153,1.042.221.221,0,0,1-.163.123c-.064.006-.085-.088-.107-.123-.1-.137-.024-.462,0-.613.025-.2-.127-.511-.029-.654,0,0,.1-.082.107-.082" transform="translate(-10.881 -16.621)" fill="#7c0019"/>
        <path id="패스_818" data-name="패스 818" d="M16.955,38.418c.082-.024.2.016.251,0l.112-.045a.543.543,0,0,1,.385-.046c.065.008.258.091.321.094.1.011.588.064,1.1.138,0,0,.276-.037.205-.114.044.051-.008-.042-.113-.078l-.037-.039s-.089-.078.077-.134a.468.468,0,0,0,.143-.062c.067-.072-.031-.148-.031-.148-.245-.083-.519.074-.885.036a2.5,2.5,0,0,0-.692-.077,2.406,2.406,0,0,0-.878.357s-.092.162.037.119" transform="translate(-7.365 -16.545)" fill="#7c0019"/>
        <path id="패스_819" data-name="패스 819" d="M21.433,35.247c.25-.015.261.244.267.217-.029.185-.482.2-.589.345-.317.413-.185.807-.934.849,0,0-.151-.035-.092-.1a2.083,2.083,0,0,1,.3-.139c.1-.056.089-.211.153-.308.014-.024.1-.054.118-.074.21-.284.235-.571.605-.74a1.563,1.563,0,0,1,.178-.054" transform="translate(-8.754 -15.373)" fill="#7c0019"/>
        <path id="패스_820" data-name="패스 820" d="M26.321,33.262a.193.193,0,0,1,.226.05,6.137,6.137,0,0,1,.319.745,3.121,3.121,0,0,1,0,.966c-.091.247-.319.436-.27.873a2.009,2.009,0,0,0,.248.68c.014.037.126.255.132.3a2.719,2.719,0,0,1-.107.729c-.057.474.132.9.056,1.355a.723.723,0,0,1-.2.413l-.085.073c-.023.047-.067.063-.109.1l-.052.052c-.081.019-.089.067-.121.07-.2.045-.244-.074-.231-.046-.206-.579.139-1.256-.038-1.815-.041-.13-.192-.257-.212-.395-.07-.5.4-.766.392-1.1,0-.24-.316-.552-.388-.789a2.139,2.139,0,0,1-.027-1.157c.029-.084.138-.226.167-.338.057-.217.147-.395.177-.538a.724.724,0,0,1,.062-.149.337.337,0,0,1,.064-.074" transform="translate(-11.245 -14.499)" fill="#7c0019"/>
        <path id="패스_821" data-name="패스 821" d="M35.817,31.15c.339-.039.491.095.333.383l-.066.063a1.272,1.272,0,0,0-.137.144,2.167,2.167,0,0,0-.443.348c-.043.051-.077.182-.131.227a2.306,2.306,0,0,1-.491.218,1.141,1.141,0,0,1-1.028-.58c-.053-.2,0-.4.088-.447a2.35,2.35,0,0,1,.628-.046,2.843,2.843,0,0,0,.757-.09c.148-.047.315-.2.491-.22" transform="translate(-14.756 -13.583)" fill="#7c0019"/>
        <path id="패스_822" data-name="패스 822" d="M34.174,30.465a.671.671,0,0,0,.364.038c.121-.03.347-.134.461-.154.069-.016.166.019.233,0,.187-.058.532-.423.119-.462a3.538,3.538,0,0,0-.736.193,1.423,1.423,0,0,0-.342.12c-.031.018-.191.149-.172.127,0,0-.105.088.073.139" transform="translate(-14.86 -13.035)" fill="#7c0019"/>
        <path id="패스_823" data-name="패스 823" d="M27.733,31.01c-.121-.016-.121-.219-.424-.154-.211.045-.27.355-.578.348l-.153-.076c-.134-.032-.23.015-.348-.042-.543-.254.421-1.557.732-1.54a.98.98,0,0,1,.2.077c.1.084.1.447.188.579.07.092.179.085.272.154a1.09,1.09,0,0,1,.306.464s.051.223-.192.19" transform="translate(-11.369 -12.887)" fill="#7c0019"/>
        <path id="패스_824" data-name="패스 824" d="M37.912,50.8h0" transform="translate(-16.535 -22.154)" fill="#7c0019"/>
        <path id="패스_825" data-name="패스 825" d="M45.58,30.49h0" transform="translate(-19.88 -13.296)" fill="#7c0019"/>
        <path id="패스_826" data-name="패스 826" d="M37.911,50.8v0" transform="translate(-16.535 -22.159)" fill="#7c0019"/>
        <path id="패스_827" data-name="패스 827" d="M45.58,30.494V30.5l0,0s0-.007,0-.01" transform="translate(-19.88 -13.3)" fill="#7c0019"/>
        <path id="패스_828" data-name="패스 828" d="M36.954,29.828a.2.2,0,0,0,.009-.02c-.01.021-.012.024-.009.02" transform="translate(-16.117 -13.001)" fill="#7c0019"/>
        <path id="패스_829" data-name="패스 829" d="M32.793,41.509s-.006,0-.008,0,.009.005.008,0" transform="translate(-14.299 -18.104)" fill="#7c0019"/>
        <path id="패스_830" data-name="패스 830" d="M21.628,32.306c-.21.118-.668.3-.764.5a2.311,2.311,0,0,0-.1.328c-.006.014-.063.037-.081.076a2.392,2.392,0,0,0-.615.038,5.691,5.691,0,0,1-.538.233c-.342.059-.6-.093-.925-.039-.143.025-.235.173-.352.232a.681.681,0,0,0-.219.12l-.072.082a1.146,1.146,0,0,1-.068.146.758.758,0,0,0-.114.325,2.135,2.135,0,0,1-.138.481c-.028.052-.173.171-.194.219-.011.033-.043.066,0,.116-.05-.055-.039.053.238.068a4.653,4.653,0,0,0,.97-.2l.319-.171a4.1,4.1,0,0,0,.363-.3c.233-.288.855-1.339,1.338-1.065l.087.062a1.28,1.28,0,0,1-.117.876l-.109.13c-.087.029-.147.253-.16.356a1.382,1.382,0,0,0,.04.409,1.176,1.176,0,0,1-.077.7.381.381,0,0,0-.078.267c.023.152.238.262.269.387.019.063.074.073,0,.193a3.035,3.035,0,0,1-.269.231c-.069.07-.009.182.038.226.133.12.243.135.347.274.147.189.139.354.463.386.255.024.616.037.463-.31l-.077-.13a2.476,2.476,0,0,1-.271-.677c-.03-.315.225-.476.118-.731-.086-.2-.47-.174-.5-.429A2.717,2.717,0,0,1,21,35.136c.03-.186-.02-.3.039-.461.039-.113.207-.242.226-.383.036-.254-.161-.415-.075-.693.042-.144.266-.127.349-.233.107-.143.048-.34.113-.541.007-.023.061-.143.073-.164-.007-.008.044-.258.044-.258-.033-.156-.13-.092-.142-.1m-2.44,2.033c-.216.05-.236-.411-.754-.231a1.038,1.038,0,0,0-.185.165c-.06.137-.029.488-.1.521,0,0-.2.05-.162-.205a.8.8,0,0,1,.345-.652.541.541,0,0,1,.144-.088,1.026,1.026,0,0,1,.778.162c.069.1-.078.332-.068.328" transform="translate(-7.601 -14.086)" fill="#7c0019"/>
        <path id="패스_831" data-name="패스 831" d="M27.935,28.074c-.037-.188-.547-.174-.754-.426-.077-.1-.02-.156,0-.231.059-.219.527-.089.635-.284a.637.637,0,0,0,.031-.357c-.293-.36-.912-.188-1.349-.363-.21-.086-.473-.262-.694-.344-.278-.107-.492-.122-.77-.232-.064-.027-.187-.118-.253-.145-.31-.124-.554-.149-.862-.28-.037-.014-.13-.067-.171-.084-.123-.052-.162-.06-.293-.108a4.374,4.374,0,0,0-1.774-.281,4.036,4.036,0,0,0-1.116.093c-.162.04-.388.18-.538.227a2.625,2.625,0,0,0-.3.092,2.542,2.542,0,0,1-.437.177c-.53.118-1.237-.012-1.773.078-.466.074-.735.368-1.118.5-.117.039-.165.027-.28.068a2.7,2.7,0,0,0-.28.1c-.16.082-.263.107-.444.182-.091.041-.2.123-.285.164a1.2,1.2,0,0,0-.244.16l-.087.063s-.188.165-.211.193c-.075.078-.147.187-.211.268a4.871,4.871,0,0,1-.734.692c-.089.063-.151.05-.229.118s-.173.145-.261.212a5.855,5.855,0,0,1-.627.363l-.143.1c-.188.123-.181.174-.376.3-.128.087-.183.218-.3.318a1.6,1.6,0,0,0-.218.328,6.981,6.981,0,0,0-.506,1.316,3.286,3.286,0,0,1-.577.77l-.077.073c-.06.051-.06.066-.114.119a1.893,1.893,0,0,0-.346.31c-.078.1-.125.227-.2.344a6.566,6.566,0,0,0-.383.58,2.084,2.084,0,0,0-.09.217c-.01.01-.016.023-.02.023a1.739,1.739,0,0,0-.128.308c-.086.2-.289.31-.558.693a6.564,6.564,0,0,1-2.135-.6,3.744,3.744,0,0,0,1.961.846c-.064.094-.069.191-.186.222a4.482,4.482,0,0,1-1.967-.433,3.355,3.355,0,0,0,2.028.665,6.109,6.109,0,0,1-3.056-.191,6.165,6.165,0,0,0,2.475.483c-.153.078-.555.17-.814.263A9.727,9.727,0,0,1,5.7,35.572c.025.083.428.193.762.27a7.678,7.678,0,0,1-.98.22,4.436,4.436,0,0,0,1.193-.179,8.565,8.565,0,0,0,1.6.168c-.1.05-.477.292-.773.466-.76.071-1.587.135-1.764.157.1.015.766.026,1.476.008-.434.254-.9.519-1.119.621a7.655,7.655,0,0,0,1.518-.632A6.212,6.212,0,0,0,9,36.517a3.048,3.048,0,0,1-1.011,1.2,1.648,1.648,0,0,0,1.193-1.15,1.36,1.36,0,0,0,.463.1,1.037,1.037,0,0,0,.78.555c.09.258.915,1.6,2.075,1.079a1.3,1.3,0,0,1-.7-.907,2.962,2.962,0,0,1,2.286,2.329c-.323-.109-.726-.3-.769-.457-.088.374-.146.855.679,1.688.016.178.014.391.051.592a5.418,5.418,0,0,0,.44.373c.011.233-.023.556.593.736.209.174.881.358.979.473a2.2,2.2,0,0,0,.714.064s.292-.049.37-.161c.145-.008.344-.013,1.236-.964.187-.224,0-1.454.045-1.752.088-.217.126-.417.245-.683a.839.839,0,0,1,.35-.369.3.3,0,0,1,.047-.013c.514-.116,1.184.365,1.5.5.114.048.175.023.268.079.045.024.109.129.156.155.113.064.222.046.349.113.184.1.558.644.884.581.1-.024.182-.255.269-.312.152-.094.364-.085.5-.191.156-.122.091-.26.114-.426,0-.007.073-.085.08-.117a1.765,1.765,0,0,0,.348-.034.6.6,0,0,0,.076-.076c.066-.069.017-.143,0-.2s-.18-.135-.23-.188a2.318,2.318,0,0,1-.388-.423c-.035-.07.009-.086-.039-.159s-.186-.164-.227-.266a8.722,8.722,0,0,1-.156-1.171c-.06-.1-.136-.087-.2-.179-.128-.2.03-.857.042-1.116.011-.208-.193-.079-.193-.079a3.169,3.169,0,0,0-.192,1.2c-.006.052-.078.37-.078.426a2.705,2.705,0,0,1,.037.81.468.468,0,0,1-.424.231,3.539,3.539,0,0,1-.616-.154c-.019-.009-.11-.114-.117-.117-.215-.17-.26-.01-.268.074s.028.107.046.156.095.234.086.249-.078.222-.479-.015a1.942,1.942,0,0,1-.615-.773.575.575,0,0,1,.055-.4c.151-.136.329.052.48.134a.949.949,0,0,0,.177.095,1.059,1.059,0,0,0,.25-.016c.585-.034,1.19.178,1.294-.215.065-.247-.178-.379-.22-.482-.055-.125-.026-.133-.059-.271,0-.01-.045-.1-.054-.111-.061-.1-.017-.193-.076-.307s-.235-.2-.307-.31c-.1-.143-.1-.32-.233-.425-.2-.161-.987-.4-1.079-.58-.15-.292.035-.827-.037-1.193a.789.789,0,0,0-.24-.463.211.211,0,0,1-.056-.2c.034-.129.1-.093.141-.381.024-.158-.014-.336,0-.5,0-.027.076-.279.081-.308A3.408,3.408,0,0,0,19.6,30.7c-.045-.152-.186-.283-.232-.427-.041-.121.007-.19-.041-.31s-.173-.179-.227-.266c-.1-.154-.074-.415-.233-.5-.118-.065-.16.025-.152,0a.709.709,0,0,0,.038.461c.028.08.173.193.2.271.03.142-.023.315,0,.463l.074.154a1.8,1.8,0,0,1-.307,1.116c-.11.143-.441.326-.461.54-.016.133.037.138.072.193.05.071.209.164.233.231.017.05.037.04.058.09l.02.1c.027.27-.325.33-.154.654.048.094.214.094.306.152a1.261,1.261,0,0,1,.54.691,4.374,4.374,0,0,1-.035.812c-.081.172-.513.239-.464.579.054.37,1.032.266,1.308.461.131.091.157.29.2.466.023.1-.073.129-.117.15-.1.06-.177.014-.308.042-.319.064-.826.207-.96.463-.167.294.03.7-.041,1.037a3.234,3.234,0,0,1-.467.928,1.5,1.5,0,0,0-.28.512,9.243,9.243,0,0,0-.067,1.525l-.007.005a.7.7,0,0,1-.167.478c-.211.232-.944.918-1.464.918-.193-.006-.272-.069-.483-.222a1.074,1.074,0,0,1-.615-.269c-.055-.1-.63-.681-.268-.847.34-.156.89.185,1.144.35a2.019,2.019,0,0,0,1.636-1,9.135,9.135,0,0,0-.141-1.362c-.081-.266-.531-.735-.626-1.016a2.416,2.416,0,0,1-.1-.986c-.03-.346-.249-.422-.339-.7a.721.721,0,0,0-.07-.148.9.9,0,0,0-.108-.284c-.138-.209-.271-.255-.4-.46s-.108-.477-.31-.617c-.111-.073-.26-.081-.384-.153a3.432,3.432,0,0,0-.308-.231l-.279-.125c-.06-.029-.169-.078-.222-.105s-.109,0-.154-.042c-.149-.126-.042-.24-.116-.459-.006-.027-.065-.029-.078-.078-.062-.016-.17-.114-.253-.056-.116.085-.148.06-.219.236a2.438,2.438,0,0,1-.2.542,1.513,1.513,0,0,1-.266.275.407.407,0,0,1-.192.047l-.289.042-.143.221s-.157-.021-.24-.021a1.758,1.758,0,0,1-.273.251c-.245.143-.394.042-.41-.011a.159.159,0,0,1,.076-.241,2.944,2.944,0,0,0,1.316-1.078,10.3,10.3,0,0,1-1.458.842c.232-.551,1.665-1.358,1.752-1.454a4.861,4.861,0,0,0-1.8,1.12c-.2.328-.441.237-.666.227s-.2.228-.21.372-.112.427-.02.479c.15.128.544-.394.67-.113.068.313-.742.3-.736.553-.038.134.749.179.893.321a2.543,2.543,0,0,1-1.056.254,1.322,1.322,0,0,1-.277-.005.591.591,0,0,1-.355-.3c-.224-.408.154-.687.161-.792s-.043-.05-.05-.222.186-.2.235-.235-.014-.085,0-.251c.1-.375.711-.807.555-.928-.142-.075-.438.252-.553.4a1.047,1.047,0,0,1-1.077.378c-.371.02-.305-.386-.046-.357.3-.061.276-.475.489-.433.069.3-.266.344-.11.412.214.084.235-.2.3-.312s.365-.377.33-.441c-.087-.03-.308.128-.408.206-.245-.61.37-1.073.4-1.253.2-.319,1.329-.726,1.35-1.21l.031-.027s.021-.013.055.044h0c.008.029.014.061.022.093a.462.462,0,0,1,0,.075l.006-.047c.009.076.006.141.009.126v.073c.01.043.067.066.076.07a.267.267,0,0,0,.144-.091c.009-.01.075-.073.075-.088a.634.634,0,0,0,.2-.2c.193-.282-.18-.7-.076-1.076a2,2,0,0,1,.307-.552c.064-.144-.038-.143-.038-.143a.242.242,0,0,0-.23.112,1.748,1.748,0,0,0-.386.506s-.116.105-.15-.039a1.121,1.121,0,0,1,.289-.769,2.621,2.621,0,0,1,.518-.236c.1-.042.249-.2.348-.229a.187.187,0,0,1,.153,0s.075.055.04.229a.7.7,0,0,0-.05.285c.016.052.01.1.126.1a3.438,3.438,0,0,0,1.078-.156c.041-.017.081-.077.118-.113.057-.058.043-.144,0-.153l-.118-.039c.09-.014-.522-.019-.423-.037-.108.018.144-.285.114-.429-.012-.068-.133-.1-.154-.151-.012-.035-.077-.086,0-.117l.089-.038a.6.6,0,0,1,.1-.077,1.2,1.2,0,0,1,.694,0,.552.552,0,0,1,.348.308.793.793,0,0,0,.076.194.473.473,0,0,0,.656.028.91.91,0,0,0,.118-.18.635.635,0,0,0-.466-.889c-.148-.054-.391-.069-.577-.117-.132-.037-.053-.148-.015-.181l.056-.05a.9.9,0,0,1,.387-.231.837.837,0,0,1,.692-.036c.043.014.156.1.188.112a.559.559,0,0,0,.5-.036c.081-.039.069-.049.077-.074a.278.278,0,0,0-.068-.321c-.043-.278.75.065.873-.11.117-.159.041-.461.194-.576.017-.01.108-.074.116-.076a.669.669,0,0,1,.394.076l.126.059a1.155,1.155,0,0,1,.6.364c.085.134.069.328.152.465.035.058.118.1.16.154a.561.561,0,0,0,.15.1.674.674,0,0,0,.192.092c.068.027.166.13.232.156a1.951,1.951,0,0,0,.771.077c.151-.006.24.083.383.039.074-.025.053-.155.007-.21-.091-.117-.162-.089-.314-.175-.06-.037-.135-.155-.194-.191-.175-.114-.431-.131-.537-.31a.388.388,0,0,1-.038-.112l-.043-.082c-.213-.432-.281-.688-.076-.77.128-.048.407-.02.543-.076.031-.017.09-.1.113-.116a1.645,1.645,0,0,1,1.2-.153c.1.045,0,.29.036.385a.312.312,0,0,0,.171.137,13.067,13.067,0,0,1,1.808.378,3.516,3.516,0,0,1,.772.576c.223.2-.042.424.188.491-.157.021-.291.039-.319-.043a.529.529,0,0,0-.077-.113,1.992,1.992,0,0,0-.615-.5c-.125-.045-.18-.006-.311-.041l-.155-.052c-.167-.047-.18-.03-.344-.065-.073-.014-.238-.1-.31-.111-.328-.049-.511.082-.81,0-.139-.041-.316-.26-.427-.319a2.1,2.1,0,0,0-.422-.156.168.168,0,0,0-.141.007c-.086.05-.057.126-.013.19.025.033.047.091.077.11.109.078.326.078.386.193.171.335-.08.453-.116.554-.017.061-.065.109,0,.191a.492.492,0,0,0,.156.113c.157.067.28.041.425.117.1.055.213.242.346.272.31.066.382-.162.539-.2.223-.05.361.068.617,0,.085-.023.133-.123.192-.152a.439.439,0,0,1,.387-.041s.1.047-.04.117c-.08.043-.147.043-.23.086a.394.394,0,0,0-.114.121.5.5,0,0,0-.043.14.2.2,0,0,0,.078.079c.269.092.543-.081.774-.116a1.572,1.572,0,0,1,.785.1s.128.026.045.258c-.052.139-.271.24-.354.357-.048.067-.1.193-.152.258-.082.105-.1.1-.179.2l-.056.081c-.033.1-.426.432-.5.544-.044.066-.065.135-.111.207-.07.1-.122.118-.159.179a1.9,1.9,0,0,1-.516.576.6.6,0,0,1-.31-.026c-.077-.02-.161-.163-.228-.193-.27-.123-.569-.089-.807-.231a1.684,1.684,0,0,1-.313-.386c-.056-.073-.107-.2-.192-.234-.139-.048-.474,0-.538.116-.127.242.2.865.232,1.12.02.218-.08.317,0,.5.038.094.182.118.229.193.21.329.027.793.077,1.232a1.688,1.688,0,0,1,.076.5c-.032.307-.429.572-.269,1.039.007.02.082.074.087.08a.341.341,0,0,0,.222,0c.129-.045.253-.3.388-.384a.144.144,0,0,1,.081-.038c.015-.026.051-.028.072-.038.058-.043.079-.044.113-.116a2.732,2.732,0,0,0,.077-.426,4.432,4.432,0,0,0,.194-.579c.047-.471-.3-1.394-.05-1.546a.854.854,0,0,1,.349-.195c.072-.017.3.054.4.052l0,0c-.126.3.337,1.066.3,1.491a3.327,3.327,0,0,1-1.351,2.162c-.067.066-.01.14.039.193.116.109.4.061.543.037a2.674,2.674,0,0,0,.461-.192c.058-.023.128.014.192,0,.158-.043.3-.259.386-.39,0,0,.188-.2.228.066l0,.015a4.491,4.491,0,0,0,0,.769c.045.289.573,1.158.848,1.2.641.095-.016-.714-.042-.771a2.631,2.631,0,0,1-.192-1c0-.118.1-.356.114-.466.007-.055-.022-.182,0-.227.051-.1.391-.137.465-.272.019-.039-.01-.108,0-.152a.841.841,0,0,1,.155-.345c.045-.058.112-.091.192,0,.066.073.084.246.194.37l.095.1c.113.073.3-.024.25-.013.119-.033.1-.154.156-.2a.784.784,0,0,1,.075-.036c.279-.287-.341-.546-.347-.812a3.244,3.244,0,0,0-.036-.962c-.025-.081-.176-.2-.194-.269a1.165,1.165,0,0,1,.077-.5c.043-.247-.041-.625.039-.735A.25.25,0,0,1,25.5,30c.1.018.163.178.231.232a1.217,1.217,0,0,0,.965.268c.052,0,.095-.08.1-.1a.28.28,0,0,0-.027-.243c-.152-.2-.739-.359-.771-.46-.023-.076-.116-.177-.013-.228a1.729,1.729,0,0,0,.512-.044c.2-.043.21-.238.347-.307.192-.1.474-.012.582-.192.063-.116.013-.282.074-.387.076-.136.305-.164.423-.272.036-.031.019-.15.011-.188M12.443,37.087c-.076-.084-.012-.248.128-.317a.3.3,0,0,1,.42.086,5.85,5.85,0,0,0,.814,1.089,1.754,1.754,0,0,1-1.361-.859m2.12,3.9c-.134,0-.992-.722-.863-1.171a5.562,5.562,0,0,0,.9.578c.076.045.136.542-.034.593m1,0c-.113-.1-.944-.978-.736-1.384a4.863,4.863,0,0,0,1.09.87c.064.167.054.626-.355.514m.089-3.355a1.1,1.1,0,0,1,.335.816c-.015.114.023.138.12.129.087-.025.04-.566.3-.532.223.033.073.343.183.692a2.593,2.593,0,0,1,.226,1.337c-.006.2-.383.455-.6.3-.176-.107-.176-.237-.278-1.048-.043-.477-.625-.642-.872-.86-.248-.182-.107-.272-.152-.6-.142-.48-.7-.7-.514-1.023a.206.206,0,0,1,.292-.087c.01.237.577.421.956.875m-3.971-1.514c-.015.007-.016.009.006,0l-.006,0c.057-.025.306-.142.372-.166.263-.093.4.047.646-.087a2.356,2.356,0,0,0,.174-.171c.045-.041.129-.036.183-.075.135-.09.385-.378.558-.408.1-.019.1.007.148.012,0,.01.074-.015.055.133-.046.285.624,0,1.065.1.3.072.591.174.514.367.01-.02-.089.059-.112.073-.206.15-.367-.014-.471-.028-.181-.021-.308.033-.493.01,0,0-.221-.074-.221-.074a3.364,3.364,0,0,0-.448.074c-.2.016-.3-.056-.482-.037-.09.01-.233.126-.3.149s-.129.042-.187.061a1.777,1.777,0,0,0-.186.086,2.44,2.44,0,0,1-.52.15l-.132.035c-.282.038-.254-.156-.166-.2m-.687,1.1c.3-.072.394.007.538.352a6.826,6.826,0,0,0,.421.6c-.35.041-.906-.437-1.062-.7-.1-.129.052-.231.1-.258M7.131,35.773a5.027,5.027,0,0,0,.9-.312c.054,0,.106,0,.16-.007a1.063,1.063,0,0,0,.127.321c.014.023.028.043.041.061-.241.006-.729-.025-1.227-.064m.833.7c.2-.123.4-.257.587-.393a2.28,2.28,0,0,0,.282.28,8.444,8.444,0,0,1-.869.113" transform="translate(-2.234 -10.874)" fill="#7c0019"/>
        <path id="패스_832" data-name="패스 832" d="M16.744,44.772l.006,0c-.022.011-.02.009-.006,0" transform="translate(-7.298 -19.527)" fill="#d7c9b1"/>
        <path id="패스_833" data-name="패스 833" d="M8.32,7.7a4.174,4.174,0,0,1-.591-.535S6.452,5.747,6.259,5.532c.048-.06,1.484-1.816,1.484-1.817l.085-.089H7.1l-1.614,2v-2h-.73V7.841h.73V5.682L7.175,7.557a.875.875,0,0,0,.742.284h.6l-.144-.1S8.32,7.7,8.32,7.7" transform="translate(-2.077 -1.582)" fill="#d7c9b1"/>
        <path id="패스_834" data-name="패스 834" d="M15.407,3.406a2.27,2.27,0,0,0-1.642.642,2.1,2.1,0,0,0-.675,1.568,2.129,2.129,0,0,0,.669,1.6,2.214,2.214,0,0,0,1.588.623A2.237,2.237,0,0,0,16.954,7.2a2.164,2.164,0,0,0,.668-1.614A2.092,2.092,0,0,0,17,4.068a2.175,2.175,0,0,0-1.6-.662m-.031,3.887a1.351,1.351,0,0,1-1.1-.547,1.841,1.841,0,0,1-.409-1.187A1.656,1.656,0,0,1,14.28,4.4a1.4,1.4,0,0,1,1.085-.448,1.328,1.328,0,0,1,1.088.54,1.923,1.923,0,0,1,.39,1.212,1.646,1.646,0,0,1-.4,1.136,1.388,1.388,0,0,1-1.07.449" transform="translate(-5.709 -1.486)" fill="#d7c9b1"/>
        <path id="패스_835" data-name="패스 835" d="M34.709,5.815h1.354V5.263H34.709V4.172c.3-.007,1.657,0,1.673,0h.046V3.606l-2.455,0v.047l0,4.179H36.6l.09-.594H34.709Z" transform="translate(-14.817 -1.572)" fill="#d7c9b1"/>
        <path id="패스_836" data-name="패스 836" d="M43.871,3.6h-.676L41.471,7.831h.652s.56-1.492.581-1.551h1.522c.021.058.591,1.551.591,1.551h.809L43.9,3.6Zm.119,2.117H42.907c.042-.109.475-1.2.547-1.388.07.185.494,1.28.535,1.388" transform="translate(-18.088 -1.572)" fill="#d7c9b1"/>
        <path id="패스_837" data-name="패스 837" d="M27.365,6.877l-.878-1.1a1.592,1.592,0,0,0,.593-.369,1.059,1.059,0,0,0,.319-.748.938.938,0,0,0-.35-.757,1.523,1.523,0,0,0-1-.3h-1.4V7.831H25.4V7.766a7.829,7.829,0,0,1-.021-.86V4.133a2.033,2.033,0,0,1,1.071.156.512.512,0,0,1,.214.453c0,.467-.345.745-1.045.851l-.079.011,1.48,1.9a.923.923,0,0,0,.764.332h.6l-.124-.086a4.26,4.26,0,0,1-.9-.869" transform="translate(-10.752 -1.573)" fill="#d7c9b1"/>
        <path id="패스_838" data-name="패스 838" d="M24.485,15.163h.646V14.9h-.646v-.52c.141,0,.789,0,.8,0H25.3v-.27H24.135v2.014h1.251l.043-.284-.945,0Z" transform="translate(-10.526 -6.154)" fill="#d7c9b1"/>
        <path id="패스_839" data-name="패스 839" d="M6.428,14.112H6.185l0,1.241c0,.37-.086.572-.541.572H5.593c-.3,0-.455-.193-.455-.572V14.112h-.35v1.242a1.929,1.929,0,0,0,.017.316.571.571,0,0,0,.141.289.724.724,0,0,0,.559.217h.226a.726.726,0,0,0,.559-.217.578.578,0,0,0,.14-.29,1.916,1.916,0,0,0,.017-.316V14.112Z" transform="translate(-2.089 -6.155)" fill="#d7c9b1"/>
        <path id="패스_840" data-name="패스 840" d="M11.94,14.112v.022s0,1.339,0,1.457c-.075-.094-1.165-1.479-1.165-1.479h-.3v2.016h.263s0-1.389,0-1.508c.074.1,1.182,1.507,1.182,1.507h.291V14.112H11.94Z" transform="translate(-4.566 -6.155)" fill="#d7c9b1"/>
        <path id="패스_841" data-name="패스 841" d="M16.184,14.112v2.016h.347V14.112h-.348Z" transform="translate(-7.059 -6.155)" fill="#d7c9b1"/>
        <path id="패스_842" data-name="패스 842" d="M38.545,14.112v1.574l0,.442h.347V14.112h-.349Z" transform="translate(-16.812 -6.155)" fill="#d7c9b1"/>
        <path id="패스_843" data-name="패스 843" d="M20.373,14.112s-.538,1.473-.577,1.58l-.567-1.58h-.4l.752,2.018H19.9l.779-2.017h-.306Z" transform="translate(-8.214 -6.155)" fill="#d7c9b1"/>
        <path id="패스_844" data-name="패스 844" d="M34.629,15.066l-.271-.133-.232-.114c-.169-.089-.255-.186-.255-.288a.208.208,0,0,1,.119-.193.483.483,0,0,1,.255-.048.837.837,0,0,1,.451.131l.036.028v-.357l-.015,0a1.535,1.535,0,0,0-.454-.067,1.027,1.027,0,0,0-.523.122.458.458,0,0,0-.251.42.536.536,0,0,0,.279.462l.1.05.4.2c.17.09.256.193.256.31a.244.244,0,0,1-.139.214.5.5,0,0,1-.267.075,1.209,1.209,0,0,1-.6-.162l-.04-.024.052.352.013,0a1.569,1.569,0,0,0,.545.092.968.968,0,0,0,.609-.185.56.56,0,0,0,.216-.458.505.505,0,0,0-.279-.422" transform="translate(-14.599 -6.115)" fill="#d7c9b1"/>
        <path id="패스_845" data-name="패스 845" d="M41.507,14.1v.264s.521,0,.563,0v1.754h.347s0-1.711,0-1.754h.575V14.1Z" transform="translate(-18.103 -6.15)" fill="#d7c9b1"/>
        <path id="패스_846" data-name="패스 846" d="M47.016,14.1l-.55.849-.541-.851h-.4s.718,1.129.726,1.141,0,.878,0,.878H46.6s0-.865,0-.878l.756-1.139Z" transform="translate(-19.856 -6.15)" fill="#d7c9b1"/>
        <path id="패스_847" data-name="패스 847" d="M30.065,15.668l-.418-.523a.748.748,0,0,0,.282-.175.505.505,0,0,0,.152-.357.447.447,0,0,0-.166-.361.728.728,0,0,0-.473-.142h-.669v2.014h.358v-.032a3.884,3.884,0,0,1-.009-.41V14.36a.973.973,0,0,1,.509.074.241.241,0,0,1,.1.216c0,.223-.164.355-.5.405l-.037.006.7.9a.438.438,0,0,0,.363.159h.289l-.06-.042a2.009,2.009,0,0,1-.429-.413" transform="translate(-12.549 -6.154)" fill="#d7c9b1"/>
      </g>
    </g>
  </g>
</svg>
