<svg id="그룹_2368" data-name="그룹 2368" xmlns="http://www.w3.org/2000/svg" xmlns:xlink="http://www.w3.org/1999/xlink" width="163.245" height="40.237" viewBox="0 0 163.245 40.237">
  <defs>
    <clipPath id="clip-path">
      <rect id="사각형_1362" data-name="사각형 1362" width="163.245" height="40.237" fill="none"/>
    </clipPath>
  </defs>
  <g id="그룹_377" data-name="그룹 377" transform="translate(0 0)" clip-path="url(#clip-path)">
    <path id="패스_848" data-name="패스 848" d="M24.822,46.638l.018-.017V43.483a.69.69,0,0,0-.728-.786h-.185v-.251c.394,0,.778.034,1.171.034.344,0,.686-.034,1.03-.034V42.7H26c-.351,0-.745.068-.745,1.062v3.807a5.42,5.42,0,0,0,.05.845h-.319l-4.306-4.8v3.447c0,.727.141.979.784.979h.143v.25c-.36,0-.72-.033-1.079-.033-.377,0-.762.033-1.139.033v-.25h.117c.577,0,.753-.394.753-1.063V43.45A.75.75,0,0,0,19.5,42.7h-.109v-.251c.319,0,.645.034.964.034.25,0,.492-.034.744-.034Z" transform="translate(-6.223 -13.62)" fill="#1a1311"/>
    <path id="패스_849" data-name="패스 849" d="M29.654,48.035h.117c.3,0,.619-.041.619-.477V43.174c0-.435-.316-.477-.619-.477h-.117v-.251c.326,0,.829.033,1.238.033s.92-.033,1.313-.033V42.7h-.117c-.3,0-.619.042-.619.477v4.384c0,.436.318.477.619.477h.117v.25c-.4,0-.9-.033-1.322-.033s-.9.033-1.23.033Z" transform="translate(-9.515 -13.621)" fill="#1a1311"/>
    <path id="패스_850" data-name="패스 850" d="M39.226,44.111a1.727,1.727,0,0,0-1.874-1.481c-1.372,0-2.092,1.08-2.092,2.544,0,1.4.712,2.81,2.294,2.81a1.706,1.706,0,0,0,1.705-1.4l.236.034a9.44,9.44,0,0,0-.211,1.356,4.89,4.89,0,0,1-1.915.376,2.958,2.958,0,0,1-3.28-3.129,3,3,0,0,1,3.237-2.961,9.858,9.858,0,0,1,2.084.418,9.773,9.773,0,0,0,.067,1.4Z" transform="translate(-10.938 -13.561)" fill="#1a1311"/>
    <path id="패스_851" data-name="패스 851" d="M42.712,48.035h.117c.3,0,.619-.041.619-.477V43.174c0-.435-.318-.477-.619-.477h-.117v-.251c.509,0,1.379.033,2.082.033s1.573-.033,2.141-.033a12.792,12.792,0,0,0,.017,1.279l-.251.068c-.042-.545-.142-.979-1.02-.979H44.518v2.19h1c.5,0,.608-.284.659-.735h.251c-.017.327-.024.653-.024.979s.007.636.024.953l-.251.049c-.051-.5-.075-.827-.652-.827h-1v1.95c0,.543.485.543,1.02.543,1,0,1.449-.067,1.7-1.02l.235.058c-.109.444-.209.887-.285,1.33-.534,0-1.5-.033-2.25-.033s-1.748.033-2.224.033Z" transform="translate(-13.705 -13.621)" fill="#1a1311"/>
    <path id="패스_852" data-name="패스 852" d="M54.128,48.035h.117c.3,0,.621-.041.621-.477V43.174c0-.435-.319-.477-.621-.477h-.117v-.251c.327,0,.829.033,1.239.033s.92-.033,1.313-.033V42.7h-.117c-.3,0-.619.042-.619.477v4.384c0,.436.318.477.619.477h.117v.25c-.4,0-.9-.033-1.322-.033s-.9.033-1.23.033Z" transform="translate(-17.369 -13.621)" fill="#1a1311"/>
    <path id="패스_853" data-name="패스 853" d="M58.33,48.96h.059c.242,0,.435,0,.435-.251V46.342c0-.134-.018-.183-.2-.234-.1-.025-.192-.06-.292-.084v-.2c.259-.067.544-.167.761-.242.192-.067.393-.175.577-.251l.091.076v.534a2.469,2.469,0,0,1,1.305-.611A.944.944,0,0,1,62.1,46.408v2.317c0,.235.209.235.411.235h.1v.25c-.319-.016-.628-.033-.945-.033-.335,0-.662.017-1,.033v-.25h.085c.167,0,.41,0,.41-.218V46.651c0-.51-.26-.7-.636-.7a1.622,1.622,0,0,0-.771.283v2.527c0,.2.194.2.4.2h.126v.25c-.319-.016-.637-.033-.953-.033-.344,0-.678.017-1,.033Z" transform="translate(-18.717 -14.545)" fill="#1a1311"/>
    <path id="패스_854" data-name="패스 854" d="M66.808,47.447c-.008.293.151.327.6.327h.158v.251c-.418-.016-.829-.033-1.246-.033-.352,0-.694.016-1.046.033v-.251h.193c.258,0,.4-.008.4-.318V44.736h-.594v-.15a5.287,5.287,0,0,0,.594-.334v-.586a2,2,0,0,1,.662-1.463c.392-.384.668-.57.977-.57.336,0,.578.135.578.528a.424.424,0,0,1-.411.46c-.251,0-.251-.418-.56-.418-.268,0-.31.276-.31.569v1.5h.938v.468h-.938Z" transform="translate(-20.946 -13.359)" fill="#1a1311"/>
    <path id="패스_855" data-name="패스 855" d="M71.46,45.631c.811,0,1.013,1.247,1.013,1.849,0,.753-.168,1.555-.945,1.555-.812,0-1.03-.979-1.03-1.68,0-.678.075-1.724.962-1.724m-1.982,1.7a1.931,1.931,0,0,0,2,2.008,2.027,2.027,0,0,0,2.016-2.058,1.871,1.871,0,0,0-2.016-1.948,1.943,1.943,0,0,0-2,2" transform="translate(-22.294 -14.546)" fill="#1a1311"/>
    <path id="패스_856" data-name="패스 856" d="M77.537,48.768c0,.193.225.193.619.193h.126v.25c-.394-.007-.786-.033-1.181-.033-.35,0-.694.025-1.045.033v-.25h.084c.284,0,.46-.034.46-.218V46.468c0-.277-.051-.359-.26-.393-.092-.018-.175-.035-.268-.051v-.2a6.22,6.22,0,0,0,1.373-.493l.092.05v.577h.016a1.287,1.287,0,0,1,.962-.627.473.473,0,0,1,.537.493.455.455,0,0,1-.47.494c-.325,0-.325-.319-.585-.319-.2,0-.46.16-.46.57Z" transform="translate(-24.405 -14.546)" fill="#1a1311"/>
    <path id="패스_857" data-name="패스 857" d="M80.921,48.96h.058c.242,0,.435,0,.435-.251V46.342c0-.134-.016-.183-.2-.234-.1-.025-.192-.06-.293-.084v-.2c.259-.067.544-.167.761-.242.192-.067.393-.175.577-.251l.092.076v.534a2.782,2.782,0,0,1,1.3-.611.972.972,0,0,1,.987.619,2.994,2.994,0,0,1,1.356-.619.977.977,0,0,1,1.046,1.079v2.3c0,.217.15.251.376.259h.11v.242c-.31-.016-.628-.033-.937-.033-.334,0-.661.017-.987.033v-.25h.117c.217,0,.384-.034.384-.243V46.642c0-.484-.226-.694-.643-.694a1.773,1.773,0,0,0-.762.251v2.5c0,.225.159.259.384.259h.109v.25c-.31-.016-.628-.033-.937-.033-.335,0-.661.017-1,.033v-.25h.1c.226,0,.4-.034.4-.259V46.642c0-.484-.225-.694-.644-.694a1.378,1.378,0,0,0-.762.31V48.7c0,.251.226.259.419.259h.1v.25c-.327-.016-.645-.033-.962-.033-.344,0-.678.017-.987.033Z" transform="translate(-25.966 -14.545)" fill="#1a1311"/>
    <path id="패스_858" data-name="패스 858" d="M93.633,48.325a.944.944,0,0,1-.719.443.474.474,0,0,1-.511-.545c0-.585.769-.743,1.23-.894Zm0-1.281L92.6,47.4c-.593.218-1.127.419-1.127,1.072a.841.841,0,0,0,.911.86,1.819,1.819,0,0,0,1.279-.66c.033.385.234.66.636.66a1.082,1.082,0,0,0,.879-.527l-.109-.15a.406.406,0,0,1-.234.109c-.234,0-.259-.259-.259-.619V46.442A1,1,0,0,0,93.44,45.33a.877.877,0,0,0-.5.115c-.319.185-.629.344-.9.486a.792.792,0,0,0-.461.7c0,.125.067.193.16.193.126,0,.577-.109.593-.335.033-.469.16-.594.644-.594a.6.6,0,0,1,.661.677Z" transform="translate(-29.35 -14.546)" fill="#1a1311"/>
    <path id="패스_859" data-name="패스 859" d="M99.764,45.542h-1v2.294a.4.4,0,0,0,.445.451.823.823,0,0,0,.494-.151l.107.142a1.431,1.431,0,0,1-1.137.678.769.769,0,0,1-.845-.86V45.542h-.5v-.2a4.832,4.832,0,0,0,1.339-1.2l.1.051v.878h1Z" transform="translate(-31.231 -14.166)" fill="#1a1311"/>
    <path id="패스_860" data-name="패스 860" d="M102.875,47.722c0,.2.193.2.4.2h.126v.251c-.319-.016-.636-.033-.954-.033-.342,0-.677.016-1,.033v-.251h.058c.244,0,.436,0,.436-.251V45.305c0-.133-.018-.183-.2-.233-.1-.025-.192-.06-.293-.084v-.2c.259-.067.544-.168.76-.242.193-.067.393-.175.578-.251l.092.075Zm-.469-4.6a.506.506,0,0,1-.511-.509.51.51,0,1,1,1.021,0,.507.507,0,0,1-.51.509" transform="translate(-32.552 -13.509)" fill="#1a1311"/>
    <path id="패스_861" data-name="패스 861" d="M107.049,45.631c.812,0,1.013,1.247,1.013,1.849,0,.753-.168,1.555-.945,1.555-.812,0-1.03-.979-1.03-1.68,0-.678.076-1.724.962-1.724m-1.982,1.7a1.93,1.93,0,0,0,2,2.008,2.026,2.026,0,0,0,2.016-2.058,1.871,1.871,0,0,0-2.016-1.948,1.942,1.942,0,0,0-2,2" transform="translate(-33.714 -14.546)" fill="#1a1311"/>
    <path id="패스_862" data-name="패스 862" d="M111.718,48.96h.058c.242,0,.435,0,.435-.251V46.342c0-.134-.018-.183-.2-.234-.1-.025-.192-.06-.293-.084v-.2c.259-.067.544-.167.761-.242.193-.067.393-.175.578-.251l.092.076v.534a2.46,2.46,0,0,1,1.3-.611.944.944,0,0,1,1.038,1.079v2.317c0,.235.21.235.409.235h.1v.25c-.316-.016-.628-.033-.944-.033-.335,0-.661.017-1,.033v-.25h.083c.168,0,.41,0,.41-.218V46.651c0-.51-.259-.7-.635-.7a1.609,1.609,0,0,0-.769.283v2.527c0,.2.193.2.4.2h.127v.25c-.319-.016-.637-.033-.954-.033-.342,0-.678.017-1,.033Z" transform="translate(-35.848 -14.545)" fill="#1a1311"/>
    <path id="패스_863" data-name="패스 863" d="M124.53,43.655a1.075,1.075,0,0,0-.987-1.063.949.949,0,0,0-1.029,1.055c0,1.387,2.51.97,2.51,2.978A1.817,1.817,0,0,1,123,48.381a2.97,2.97,0,0,1-1.33-.376c-.041-.427-.1-.846-.141-1.272l.233-.05c.1.711.5,1.33,1.3,1.33a.952.952,0,0,0,1.03-.954c0-1.481-2.458-1.02-2.458-3.037a1.682,1.682,0,0,1,1.847-1.732c.235,0,.947.092,1.205.126a9.808,9.808,0,0,0,.084,1.2Z" transform="translate(-38.996 -13.57)" fill="#1a1311"/>
    <path id="패스_864" data-name="패스 864" d="M128.467,46.663c.092-.519.378-1,.888-1a.649.649,0,0,1,.585.693c0,.3-.067.31-.519.31Zm2.276,1.5a1.27,1.27,0,0,1-1,.451c-.9,0-1.3-.843-1.3-1.7h2.258l.1-.092a1.294,1.294,0,0,0-1.313-1.464,1.959,1.959,0,0,0-1.85,2.084,1.752,1.752,0,0,0,1.624,1.923,1.9,1.9,0,0,0,1.605-1.044Z" transform="translate(-40.96 -14.555)" fill="#1a1311"/>
    <path id="패스_865" data-name="패스 865" d="M134.327,48.8c0,.193.225.193.621.193h.125v.25c-.394-.007-.786-.033-1.181-.033-.35,0-.694.026-1.045.033v-.25h.085c.283,0,.459-.035.459-.219V46.5c0-.276-.05-.359-.259-.394-.091-.015-.175-.032-.266-.049v-.2a6.111,6.111,0,0,0,1.37-.494l.092.051v.577h.016a1.3,1.3,0,0,1,.962-.628.472.472,0,0,1,.536.494.455.455,0,0,1-.469.494c-.326,0-.326-.319-.585-.319-.2,0-.461.16-.461.57Z" transform="translate(-42.628 -14.555)" fill="#1a1311"/>
    <path id="패스_866" data-name="패스 866" d="M138.09,46.1c-.1-.286-.168-.31-.409-.31h-.067v-.251c.317.017.643.033.962.033s.636-.016.954-.033v.251h-.26c-.1,0-.166.01-.166.109a1.578,1.578,0,0,0,.091.3l.7,1.866h.016c.092-.309.794-1.765.794-2.016s-.183-.259-.393-.259h-.1v-.251c.26.017.518.033.778.033.191,0,.376-.016.568-.033v.251h-.05c-.234,0-.342.226-.426.41L139.8,49.125c-.043.092-.084.192-.126.3h-.227Z" transform="translate(-44.158 -14.614)" fill="#1a1311"/>
    <path id="패스_867" data-name="패스 867" d="M145.3,47.754c0,.2.192.2.4.2h.126v.25c-.319-.017-.636-.032-.953-.032-.344,0-.679.015-1.005.032v-.25h.059c.242,0,.435,0,.435-.251V45.335c0-.132-.016-.184-.2-.234-.1-.025-.192-.06-.293-.084v-.2c.259-.066.544-.166.762-.242.191-.067.392-.176.577-.251l.092.075Zm-.469-4.6a.507.507,0,0,1-.51-.509.51.51,0,1,1,1.021,0,.507.507,0,0,1-.511.509" transform="translate(-46.166 -13.519)" fill="#1a1311"/>
    <path id="패스_868" data-name="패스 868" d="M150.831,48.354a1.826,1.826,0,0,1-1.581,1.012,1.685,1.685,0,0,1-1.756-1.865,2.135,2.135,0,0,1,2.116-2.142c.561,0,1.095.134,1.095.628a.441.441,0,0,1-.452.443c-.442,0-.368-.7-.986-.7-.594,0-.886.485-.886,1.18,0,.8.36,1.791,1.288,1.791a1.294,1.294,0,0,0,1.011-.51Z" transform="translate(-47.328 -14.555)" fill="#1a1311"/>
    <path id="패스_869" data-name="패스 869" d="M153.782,46.663c.092-.519.376-1,.887-1a.648.648,0,0,1,.585.693c0,.3-.064.31-.517.31Zm2.276,1.5a1.272,1.272,0,0,1-1,.451c-.9,0-1.3-.843-1.3-1.7h2.259l.1-.092a1.3,1.3,0,0,0-1.314-1.464,1.959,1.959,0,0,0-1.849,2.084,1.752,1.752,0,0,0,1.624,1.923,1.9,1.9,0,0,0,1.605-1.044Z" transform="translate(-49.083 -14.555)" fill="#1a1311"/>
    <rect id="사각형_1361" data-name="사각형 1361" width="40.239" height="40.237" transform="translate(123.006)" fill="#00388d"/>
    <path id="패스_870" data-name="패스 870" d="M217.67,25.2l-9.768-.454-.435-9.492h-.018l-.442,9.492-9.757.454v.016l9.757.418.442,10.035h.018l.435-10.035,9.768-.418Z" transform="translate(-63.294 -4.896)" fill="#f79313"/>
    <path id="패스_871" data-name="패스 871" d="M202.274,8.549v.429h-.212c-.605,0-1.274.121-1.274,1.82v6.51a9.815,9.815,0,0,0,.082,1.45h-.541l-7.37-8.217v5.9c0,1.248.24,1.677,1.343,1.677h.244v.422h-3.795v-.422h.2c.987,0,1.288-.674,1.288-1.819V10.269a1.286,1.286,0,0,0-1.3-1.292h-.185V8.549h2.918l6.374,7.174.029-.033V10.326a1.186,1.186,0,0,0-1.251-1.349h-.312V8.549Z" transform="translate(-61.208 -2.743)" fill="#fff"/>
    <path id="패스_872" data-name="패스 872" d="M222.29,18.535v-.422h.2c.515,0,1.059-.075,1.059-.818V9.8c0-.75-.544-.822-1.059-.822h-.2V8.549h4.369v.429h-.2c-.518,0-1.059.073-1.059.822v7.495c0,.743.541.818,1.059.818h.2v.422Z" transform="translate(-71.329 -2.743)" fill="#fff"/>
    <path id="패스_873" data-name="패스 873" d="M200.524,45.922a8.256,8.256,0,0,1-3.276.644c-3.222,0-5.61-1.762-5.61-5.353,0-3.205,2.593-5.066,5.539-5.066,1.677,0,2.218.516,3.563.714l.115,2.393-.43.056a2.945,2.945,0,0,0-3.205-2.53c-2.344,0-3.581,1.844-3.581,4.349,0,2.386,1.223,4.807,3.923,4.807a2.915,2.915,0,0,0,2.918-2.388l.405.056Z" transform="translate(-61.493 -11.599)" fill="#fff"/>
    <path id="패스_874" data-name="패스 874" d="M219.228,46.455v-.431h.206c.518,0,1.057-.07,1.057-.816v-7.5c0-.746-.538-.817-1.057-.817h-.206v-.427h7.237a21.476,21.476,0,0,0,.026,2.19l-.431.115c-.072-.934-.243-1.678-1.747-1.678h-1.989v3.753h1.7c.857,0,1.045-.486,1.132-1.262h.428v3.305l-.428.092c-.087-.861-.126-1.418-1.117-1.418h-1.717v3.333c0,.934.829.934,1.745.934,1.722,0,2.475-.115,2.905-1.752l.405.1c-.19.759-.357,1.521-.483,2.278Z" transform="translate(-70.346 -11.701)" fill="#fff"/>
    <path id="패스_875" data-name="패스 875" d="M84.2,27.177a5.9,5.9,0,0,0-5.955,0A2.609,2.609,0,0,0,76.965,29.5a2.577,2.577,0,0,0,1.281,2.3,5.971,5.971,0,0,0,5.955,0,2.578,2.578,0,0,0,1.273-2.3A2.606,2.606,0,0,0,84.2,27.177m-1.226,3.674a4.245,4.245,0,0,1-1.758.367,4.081,4.081,0,0,1-1.753-.386,1.341,1.341,0,0,1-.79-1.334,1.387,1.387,0,0,1,.792-1.368,3.951,3.951,0,0,1,1.752-.4,3.847,3.847,0,0,1,1.755.412,1.386,1.386,0,0,1,.793,1.358,1.341,1.341,0,0,1-.79,1.353" transform="translate(-24.697 -8.462)" fill="#1a1311"/>
    <path id="패스_876" data-name="패스 876" d="M85.284,12.985H85.21V14H86.1v1.532H84.1v1.341H86.1v.763H84.1V19h2.011v3.2H87c.448,0,.805-.892.81-2.029V12.985H85.284Z" transform="translate(-26.985 -4.167)" fill="#1a1311"/>
    <path id="패스_877" data-name="패스 877" d="M79.642,21.291V19.814H77.977V15.877h1.387V14.4H71.474v1.476h1.439v3.937H71.247v1.476h8.395Zm-3.376-1.519H74.624V15.837h1.642Z" transform="translate(-22.862 -4.621)" fill="#1a1311"/>
    <path id="패스_878" data-name="패스 878" d="M94.832,14.755H94.76v1.464h5.347a7.176,7.176,0,0,1-1.762,4.023A7.262,7.262,0,0,1,93.9,22.767l-.1.018.052.088.765,1.325.031.052.056-.02a9.854,9.854,0,0,0,5.394-3.711,9.722,9.722,0,0,0,1.71-4.9v-.86H94.832Z" transform="translate(-30.098 -4.735)" fill="#1a1311"/>
    <path id="패스_879" data-name="패스 879" d="M111.253,18.856H109.5V12.985h-2.606V14h.9V28.135h.9c.45,0,.807-.89.812-2.028V20.334h1.833V18.856Z" transform="translate(-34.299 -4.167)" fill="#1a1311"/>
    <path id="패스_880" data-name="패스 880" d="M153.867,24.722h-5.9V22.439h4V14.45h-2.7v.93h1.037v1.906h-6.274V14.45h-2.605v.932h.942v7.057h3.933v2.283h-5.976v1.447h13.62V24.722ZM150.295,21h-6.274V18.761h6.274Z" transform="translate(-45.024 -4.637)" fill="#1a1311"/>
    <path id="패스_881" data-name="패스 881" d="M122.772,19.466a13.77,13.77,0,0,0,2.247,1.641l.056.036.032-.06.816-1.279.056-.082-.089-.026a5.765,5.765,0,0,1-2.612-1.667,3.771,3.771,0,0,1-1.045-2.313h3.049V14.244h-7.9v1.471h3.044a5.682,5.682,0,0,1-1.052,2.53,4.859,4.859,0,0,1-2.6,1.906l-.085.028.047.086.793,1.286.04.061.052-.033a8.627,8.627,0,0,0,2.418-1.885,7.21,7.21,0,0,0,1.311-1.941,6.513,6.513,0,0,0,1.425,1.711" transform="translate(-37.442 -4.571)" fill="#1a1311"/>
    <path id="패스_882" data-name="패스 882" d="M130.364,26.554a4.566,4.566,0,0,0-2.964-.928,4.5,4.5,0,0,0-2.95.928,2.953,2.953,0,0,0-1.13,2.359,2.9,2.9,0,0,0,1.116,2.329,5.183,5.183,0,0,0,5.92,0,2.844,2.844,0,0,0,1.15-2.329,2.915,2.915,0,0,0-1.142-2.359m-4.62.989a2.928,2.928,0,0,1,1.656-.48,2.827,2.827,0,0,1,1.655.492,1.541,1.541,0,0,1,.7,1.357,1.491,1.491,0,0,1-.7,1.338,3.247,3.247,0,0,1-3.311,0,1.5,1.5,0,0,1-.706-1.338,1.526,1.526,0,0,1,.706-1.369" transform="translate(-39.571 -8.223)" fill="#1a1311"/>
    <path id="패스_883" data-name="패스 883" d="M133.389,12.976h-2.511v1h.9v2.455h-2.424v1.475h2.424v3.857h.888c.494,0,.8-.606.8-1.6V12.976Z" transform="translate(-41.507 -4.164)" fill="#1a1311"/>
    <path id="패스_884" data-name="패스 884" d="M11.988,23.522l.036-.039V16.557a1.524,1.524,0,0,0-1.605-1.737h-.407v-.553c.869,0,1.717.074,2.586.074.756,0,1.514-.074,2.272-.074v.553h-.277c-.776,0-1.645.147-1.645,2.348v8.4a11.962,11.962,0,0,0,.113,1.865h-.7l-9.512-10.6v7.611c0,1.607.313,2.161,1.737,2.161h.313v.554c-.795,0-1.589-.073-2.382-.073-.831,0-1.681.073-2.512.073v-.554H.259c1.274,0,1.662-.869,1.662-2.346V16.485A1.657,1.657,0,0,0,.24,14.821H0v-.553c.7,0,1.421.074,2.125.074.554,0,1.089-.074,1.643-.074Z" transform="translate(0 -4.578)" fill="#1a1311"/>
    <path id="패스_885" data-name="패스 885" d="M22.657,26.606h.257c.666,0,1.366-.092,1.366-1.053V15.875c0-.962-.7-1.055-1.366-1.055h-.257v-.553c.721,0,1.828.074,2.732.074.925,0,2.034-.074,2.9-.074v.553h-.259c-.666,0-1.368.093-1.368,1.055v9.677c0,.962.7,1.053,1.368,1.053h.259v.554c-.886,0-2-.073-2.92-.073-.9,0-1.993.073-2.714.073Z" transform="translate(-7.27 -4.578)" fill="#1a1311"/>
    <path id="패스_886" data-name="패스 886" d="M43.789,17.941c-.517-1.792-1.368-3.269-4.137-3.269-3.03,0-4.618,2.38-4.618,5.614,0,3.085,1.569,6.206,5.061,6.206a3.773,3.773,0,0,0,3.768-3.085l.516.074a20.988,20.988,0,0,0-.461,2.992,10.808,10.808,0,0,1-4.23.831c-4.156,0-7.239-2.271-7.239-6.907,0-4.139,3.343-6.541,7.148-6.541,2.161,0,2.864.668,4.6.925a21.567,21.567,0,0,0,.148,3.085Z" transform="translate(-10.412 -4.447)" fill="#1a1311"/>
    <path id="패스_887" data-name="패스 887" d="M51.485,26.606h.257c.666,0,1.368-.092,1.368-1.053V15.875c0-.962-.7-1.055-1.368-1.055h-.257v-.553c1.127,0,3.048.074,4.6.074s3.473-.074,4.729-.074c-.037.793-.017,2.014.037,2.825l-.554.147c-.093-1.2-.313-2.16-2.253-2.16H55.475V19.92h2.2c1.109,0,1.349-.628,1.459-1.626h.554c-.037.72-.056,1.442-.056,2.162q0,1.053.056,2.107l-.554.11c-.11-1.109-.166-1.829-1.44-1.829H55.475v4.306c0,1.2,1.07,1.2,2.253,1.2,2.215,0,3.2-.149,3.749-2.253l.517.13c-.239.978-.46,1.957-.628,2.937-1.183,0-3.307-.073-4.969-.073s-3.859.073-4.913.073Z" transform="translate(-16.521 -4.578)" fill="#1a1311"/>
  </g>
</svg>
