<svg id="그룹_2367" data-name="그룹 2367" xmlns="http://www.w3.org/2000/svg" xmlns:xlink="http://www.w3.org/1999/xlink" width="206.318" height="40.238" viewBox="0 0 206.318 40.238">
  <defs>
    <clipPath id="clip-path">
      <rect id="사각형_2291" data-name="사각형 2291" width="206.318" height="40.238" fill="none"/>
    </clipPath>
  </defs>
  <path id="패스_2774" data-name="패스 2774" d="M395.673,160.083l-1.923-3.419-1.16,1.4v2.017h-1.039v-6.936h1.039v3.486l2.806-3.486h1.273l-2.227,2.719,2.461,4.216Z" transform="translate(-336.988 -131.806)" fill="#464749"/>
  <g id="그룹_1528" data-name="그룹 1528">
    <g id="그룹_1527" data-name="그룹 1527" clip-path="url(#clip-path)">
      <path id="패스_2775" data-name="패스 2775" d="M440.239,159.051a2.582,2.582,0,0,1-3.613,0c-.675-.684-.664-1.451-.664-2.786s-.011-2.1.664-2.781a2.572,2.572,0,0,1,3.613,0c.674.682.652,1.449.652,2.781s.022,2.1-.652,2.786m-.788-4.933a1.408,1.408,0,0,0-1.025-.431,1.383,1.383,0,0,0-1.019.431c-.34.366-.408.761-.408,2.147s.068,1.783.408,2.156a1.379,1.379,0,0,0,1.019.426,1.4,1.4,0,0,0,1.025-.426c.334-.372.4-.758.4-2.156s-.065-1.78-.4-2.147" transform="translate(-375.21 -131.457)" fill="#464749"/>
      <path id="패스_2776" data-name="패스 2776" d="M487.6,160.083l-1.443-2.923h-1.3v2.923h-1.036v-6.936h2.661a1.974,1.974,0,0,1,2.128,2.029,1.82,1.82,0,0,1-1.366,1.842l1.578,3.065Zm-1.2-5.992h-1.543v2.175H486.4a1.09,1.09,0,1,0,0-2.175" transform="translate(-416.399 -131.806)" fill="#464749"/>
      <path id="패스_2777" data-name="패스 2777" d="M530.506,160.083v-6.936h4.382v.944h-3.339v2.027H534.4v.936h-2.849v2.083h3.339v.947Z" transform="translate(-456.58 -131.806)" fill="#464749"/>
      <path id="패스_2778" data-name="패스 2778" d="M572.46,160.082l-.474-1.391h-2.709l-.474,1.391h-1.1l2.516-6.936h.838l2.512,6.936Zm-1.8-5.367-1.072,3.077H571.7Z" transform="translate(-488.591 -131.805)" fill="#464749"/>
      <path id="패스_2779" data-name="패스 2779" d="M640.374,160.083l-3.171-4.878v4.878h-1.041v-6.936h.954l3.173,4.869v-4.869h1.039v6.936Z" transform="translate(-547.512 -131.806)" fill="#464749"/>
      <path id="패스_2780" data-name="패스 2780" d="M686.354,160.082l-.471-1.391h-2.708l-.474,1.391h-1.107l2.515-6.936h.839l2.516,6.936Zm-1.8-5.367-1.068,3.077H685.6Z" transform="translate(-586.614 -131.805)" fill="#464749"/>
      <path id="패스_2781" data-name="패스 2781" d="M726.52,154.091v5.992h-1.039v-5.992h-1.888v-.944h4.814v.944Z" transform="translate(-622.761 -131.806)" fill="#464749"/>
      <rect id="사각형_2268" data-name="사각형 2268" width="1.04" height="6.936" transform="translate(107.025 21.341)" fill="#464749"/>
      <path id="패스_2782" data-name="패스 2782" d="M792.22,159.051a2.58,2.58,0,0,1-3.611,0c-.678-.684-.668-1.451-.668-2.786s-.01-2.1.668-2.781a2.569,2.569,0,0,1,3.611,0c.676.682.658,1.449.658,2.781s.018,2.1-.658,2.786m-.788-4.933a1.41,1.41,0,0,0-1.022-.431,1.384,1.384,0,0,0-1.02.431c-.338.366-.411.761-.411,2.147s.072,1.783.411,2.156a1.38,1.38,0,0,0,1.02.426,1.406,1.406,0,0,0,1.022-.426c.334-.372.407-.758.407-2.156s-.072-1.78-.407-2.147" transform="translate(-678.141 -131.457)" fill="#464749"/>
      <path id="패스_2783" data-name="패스 2783" d="M840.031,160.083l-3.174-4.878v4.878h-1.04v-6.936h.954l3.168,4.869v-4.869h1.045v6.936Z" transform="translate(-719.345 -131.806)" fill="#464749"/>
      <path id="패스_2784" data-name="패스 2784" d="M886.016,160.082l-.473-1.391h-2.707l-.476,1.391h-1.1l2.514-6.936h.837l2.519,6.936Zm-1.8-5.367-1.068,3.077h2.106Z" transform="translate(-758.453 -131.805)" fill="#464749"/>
      <path id="패스_2785" data-name="패스 2785" d="M931.723,160.083v-6.936h1.042v5.989h3.3v.947Z" transform="translate(-801.887 -131.806)" fill="#464749"/>
      <path id="패스_2786" data-name="패스 2786" d="M992.467,160.137a2.341,2.341,0,0,1-2.461-2.391v-4.6h1.045V157.7a1.423,1.423,0,1,0,2.843,0v-4.551h1.039v4.6a2.343,2.343,0,0,1-2.466,2.391" transform="translate(-852.048 -131.806)" fill="#464749"/>
      <path id="패스_2787" data-name="패스 2787" d="M1043.067,160.083l-3.169-4.878v4.878h-1.042v-6.936h.955l3.171,4.869v-4.869h1.041v6.936Z" transform="translate(-894.09 -131.806)" fill="#464749"/>
      <rect id="사각형_2269" data-name="사각형 2269" width="1.038" height="6.936" transform="translate(151.914 21.341)" fill="#464749"/>
      <path id="패스_2788" data-name="패스 2788" d="M1108.845,160.083h-.8l-2.263-6.936h1.087l1.575,5.047,1.583-5.047h1.1Z" transform="translate(-951.688 -131.806)" fill="#464749"/>
      <path id="패스_2789" data-name="패스 2789" d="M1152.265,160.083v-6.936h4.383v.944h-3.338v2.027h2.847v.936h-2.847v2.083h3.338v.947Z" transform="translate(-991.696 -131.806)" fill="#464749"/>
      <path id="패스_2790" data-name="패스 2790" d="M1199.16,160.083l-1.446-2.923h-1.3v2.923h-1.038v-6.936h2.657a1.973,1.973,0,0,1,2.129,2.029,1.819,1.819,0,0,1-1.37,1.842l1.581,3.065Zm-1.2-5.992h-1.545v2.175h1.545a1.09,1.09,0,1,0,0-2.175" transform="translate(-1028.798 -131.806)" fill="#464749"/>
      <path id="패스_2791" data-name="패스 2791" d="M1240.117,159.788a3.088,3.088,0,0,1-2.424-.91l.692-.691a2.253,2.253,0,0,0,1.754.659c.9,0,1.42-.389,1.42-1.058a.96.96,0,0,0-.268-.72,1.2,1.2,0,0,0-.756-.294l-.807-.115a2.313,2.313,0,0,1-1.3-.558,1.746,1.746,0,0,1-.5-1.323,2.038,2.038,0,0,1,2.293-2.035,2.857,2.857,0,0,1,2.131.79l-.664.658a2.033,2.033,0,0,0-1.5-.532c-.809,0-1.251.465-1.251,1.081a.836.836,0,0,0,.257.642,1.536,1.536,0,0,0,.771.322l.783.114a2.259,2.259,0,0,1,1.282.519,1.832,1.832,0,0,1,.559,1.421c0,1.275-1.029,2.029-2.471,2.029" transform="translate(-1065.22 -131.457)" fill="#464749"/>
      <rect id="사각형_2270" data-name="사각형 2270" width="1.043" height="6.936" transform="translate(178.957 21.341)" fill="#464749"/>
      <path id="패스_2792" data-name="패스 2792" d="M1304.538,154.091v5.992H1303.5v-5.992h-1.885v-.944h4.817v.944Z" transform="translate(-1120.23 -131.806)" fill="#464749"/>
      <path id="패스_2793" data-name="패스 2793" d="M1343.067,157.228v2.854h-1.044v-2.854l-2.049-4.082h1.139l1.434,3.054,1.436-3.054h1.139Z" transform="translate(-1153.248 -131.806)" fill="#464749"/>
      <path id="패스_2794" data-name="패스 2794" d="M1405.522,159.051a2.587,2.587,0,0,1-3.617,0c-.669-.684-.662-1.451-.662-2.786s-.007-2.1.662-2.781a2.576,2.576,0,0,1,3.617,0c.673.682.654,1.449.654,2.781s.019,2.1-.654,2.786m-.787-4.933a1.428,1.428,0,0,0-2.046,0c-.337.366-.4.761-.4,2.147s.068,1.783.4,2.156a1.44,1.44,0,0,0,2.046,0c.336-.372.406-.758.406-2.156s-.07-1.78-.406-2.147" transform="translate(-1205.98 -131.457)" fill="#464749"/>
      <path id="패스_2795" data-name="패스 2795" d="M1450.148,154.091v2.118H1453v.945h-2.857v2.93h-1.036v-6.936h4.384v.944Z" transform="translate(-1247.178 -131.806)" fill="#464749"/>
      <path id="패스_2796" data-name="패스 2796" d="M772.524,245.424V242.4h-2.786v3.029H768.7V238.49h1.039v2.96h2.786v-2.96h1.045v6.934Z" transform="translate(-661.58 -205.256)" fill="#464749"/>
      <path id="패스_2797" data-name="패스 2797" d="M817.872,245.424V238.49h4.383v.945h-3.343v2.023h2.848v.937h-2.848v2.081h3.343v.948Z" transform="translate(-703.901 -205.256)" fill="#464749"/>
      <path id="패스_2798" data-name="패스 2798" d="M864.743,245.425,863.3,242.5H862v2.926h-1.042v-6.934h2.661a1.969,1.969,0,0,1,2.128,2.025,1.823,1.823,0,0,1-1.365,1.841l1.575,3.068Zm-1.206-5.99H862V241.6h1.539a1.087,1.087,0,1,0,0-2.169" transform="translate(-740.981 -205.257)" fill="#464749"/>
      <rect id="사각형_2271" data-name="사각형 2271" width="1.044" height="6.934" transform="translate(126.476 33.234)" fill="#464749"/>
      <path id="패스_2799" data-name="패스 2799" d="M927.934,239.435v5.99h-1.04v-5.99h-1.888v-.944h4.818v.944Z" transform="translate(-796.107 -205.257)" fill="#464749"/>
      <path id="패스_2800" data-name="패스 2800" d="M964.184,245.424l-.469-1.394h-2.71l-.473,1.394h-1.11l2.52-6.934h.835l2.52,6.934Zm-1.8-5.366-1.071,3.077h2.109Z" transform="translate(-825.727 -205.256)" fill="#464749"/>
      <path id="패스_2801" data-name="패스 2801" d="M1011.78,244.341a2.62,2.62,0,0,1-3.694.05c-.677-.682-.667-1.453-.667-2.788s-.011-2.1.667-2.78a2.535,2.535,0,0,1,4.3,1.409h-1.048a1.405,1.405,0,0,0-1.452-1.207,1.377,1.377,0,0,0-1.009.426c-.332.371-.413.762-.413,2.151s.081,1.794.413,2.163a1.373,1.373,0,0,0,1.009.42,1.445,1.445,0,0,0,1.125-.486,1.59,1.59,0,0,0,.349-1.089v-.394h-1.473v-.9h2.513v1.063a2.633,2.633,0,0,1-.614,1.957" transform="translate(-867.035 -204.907)" fill="#464749"/>
      <path id="패스_2802" data-name="패스 2802" d="M1055.5,245.424V238.49h4.384v.945h-3.348v2.023h2.857v.937h-2.857v2.081h3.348v.948Z" transform="translate(-908.413 -205.256)" fill="#464749"/>
      <path id="패스_2803" data-name="패스 2803" d="M662.182,245.424l-.467-1.394h-2.71l-.472,1.394h-1.11l2.514-6.934h.84l2.515,6.934Zm-1.8-5.366-1.068,3.077h2.107Z" transform="translate(-565.812 -205.256)" fill="#464749"/>
      <path id="패스_2804" data-name="패스 2804" d="M707.9,245.424V238.49h1.041v5.989h3.3v.945Z" transform="translate(-609.255 -205.256)" fill="#464749"/>
      <path id="패스_2805" data-name="패스 2805" d="M397.242,245.129a2.462,2.462,0,0,1-1.8-.737c-.678-.682-.666-1.453-.666-2.788s-.012-2.1.666-2.78a2.454,2.454,0,0,1,1.8-.74,2.368,2.368,0,0,1,2.446,2.13h-1.056a1.416,1.416,0,0,0-2.4-.768c-.338.369-.414.768-.414,2.157s.076,1.794.414,2.164a1.422,1.422,0,0,0,2.412-.772h1.049a2.378,2.378,0,0,1-2.446,2.134" transform="translate(-339.763 -204.907)" fill="#464749"/>
      <path id="패스_2806" data-name="패스 2806" d="M443.085,245.479a2.336,2.336,0,0,1-2.456-2.392v-4.6h1.04v4.547a1.424,1.424,0,1,0,2.844,0v-4.547h1.04v4.6a2.345,2.345,0,0,1-2.469,2.392" transform="translate(-379.227 -205.257)" fill="#464749"/>
      <path id="패스_2807" data-name="패스 2807" d="M489.477,245.424V238.49h1.039v5.986h3.3v.948Z" transform="translate(-421.268 -205.256)" fill="#464749"/>
      <path id="패스_2808" data-name="패스 2808" d="M523.543,239.435v5.99H522.5v-5.99h-1.89v-.944h4.822v.944Z" transform="translate(-448.066 -205.257)" fill="#464749"/>
      <path id="패스_2809" data-name="패스 2809" d="M566.787,245.479a2.338,2.338,0,0,1-2.457-2.392v-4.6h1.045v4.547a1.421,1.421,0,1,0,2.837,0v-4.547h1.044v4.6a2.345,2.345,0,0,1-2.468,2.392" transform="translate(-485.69 -205.257)" fill="#464749"/>
      <path id="패스_2810" data-name="패스 2810" d="M616.949,245.425,615.5,242.5h-1.3v2.926h-1.039v-6.934h2.665a1.968,1.968,0,0,1,2.126,2.025,1.825,1.825,0,0,1-1.37,1.841l1.578,3.068Zm-1.2-5.99H614.2V241.6h1.546a1.087,1.087,0,1,0,0-2.169" transform="translate(-527.718 -205.257)" fill="#464749"/>
      <rect id="사각형_2272" data-name="사각형 2272" width="49.599" height="40.238" transform="translate(0.343)" fill="#cb0017"/>
      <rect id="사각형_2273" data-name="사각형 2273" width="0.627" height="2.375" transform="translate(15.823)" fill="#fff"/>
      <path id="패스_2811" data-name="패스 2811" d="M139.955,99.718v-4.54h7.619v4.54Zm7.307-.313v0Zm-6.68-.312h6.367V95.8h-6.366Z" transform="translate(-120.452 -81.915)" fill="#fff"/>
      <path id="패스_2812" data-name="패스 2812" d="M77.166,99.718v-4.54h7.306V95.8h-6.68v3.289h6.68v.625Z" transform="translate(-66.413 -81.915)" fill="#fff"/>
      <rect id="사각형_2274" data-name="사각형 2274" width="6.994" height="0.626" transform="translate(11.046 15.221)" fill="#fff"/>
      <path id="패스_2813" data-name="패스 2813" d="M181.777,31.227v-3.6h-6.994V27H182.4v4.227Z" transform="translate(-150.427 -23.238)" fill="#fff"/>
      <path id="패스_2814" data-name="패스 2814" d="M139.2,196.227v-7.238h4.254v.627h-3.628V195.6h3.628v.626Z" transform="translate(-119.805 -162.653)" fill="#fff"/>
      <path id="패스_2815" data-name="패스 2815" d="M292.61,193.73v-5.047h-6.028v-.626h6.654v5.673Zm-6.028-5.047h0Z" transform="translate(-246.647 -161.851)" fill="#fff"/>
      <rect id="사각형_2275" data-name="사각형 2275" width="7.646" height="0.627" transform="translate(19.503 18.769)" fill="#fff"/>
      <rect id="사각형_2276" data-name="사각형 2276" width="0.626" height="1.996" transform="translate(23.012 19.083)" fill="#fff"/>
      <rect id="사각형_2277" data-name="사각형 2277" width="0.627" height="1.996" transform="translate(27.761 9.151)" fill="#fff"/>
      <path id="패스_2816" data-name="패스 2816" d="M174.767,81.925v-3.4h-8.129V77.9h8.756v4.026Z" transform="translate(-143.418 -67.043)" fill="#fff"/>
      <rect id="사각형_2278" data-name="사각형 2278" width="7.647" height="0.626" transform="translate(24.356 8.806)" fill="#fff"/>
      <rect id="사각형_2279" data-name="사각형 2279" width="0.625" height="1.456" transform="translate(14.23 17.47)" fill="#fff"/>
      <path id="패스_2817" data-name="패스 2817" d="M140.141,154.2v-2.935h.627v2.309h8.456v.626Z" transform="translate(-120.612 -130.184)" fill="#fff"/>
      <rect id="사각형_2280" data-name="사각형 2280" width="6.837" height="0.626" transform="translate(28.009 23.388)" fill="#fff"/>
      <path id="패스_2818" data-name="패스 2818" d="M113.547,64.83V61.987h.627V64.2H121.1v.626Z" transform="translate(-97.724 -53.349)" fill="#fff"/>
      <rect id="사각형_2281" data-name="사각형 2281" width="0.627" height="2.374" transform="translate(31.35 14.281)" fill="#fff"/>
      <rect id="사각형_2282" data-name="사각형 2282" width="0.627" height="1.514" transform="translate(31.35 21.952)" fill="#fff"/>
      <rect id="사각형_2283" data-name="사각형 2283" width="6.235" height="0.626" transform="translate(28.611 16.342)" fill="#fff"/>
      <path id="패스_2819" data-name="패스 2819" d="M205.871,120.624a2.975,2.975,0,1,1,2.975,2.974,2.975,2.975,0,0,1-2.975-2.974m.626,0a2.348,2.348,0,1,0,2.349-2.35,2.353,2.353,0,0,0-2.349,2.35" transform="translate(-177.183 -101.254)" fill="#fff"/>
      <path id="패스_2820" data-name="패스 2820" d="M82.318,137.662a2.975,2.975,0,1,1,2.976,2.974,2.977,2.977,0,0,1-2.976-2.974m.627,0a2.349,2.349,0,1,0,2.35-2.349,2.354,2.354,0,0,0-2.35,2.349" transform="translate(-70.847 -115.918)" fill="#fff"/>
      <path id="패스_2821" data-name="패스 2821" d="M260.367,127.347V117.274h2.244v.626h-1.619v9.447Z" transform="translate(-224.085 -100.932)" fill="#fff"/>
      <rect id="사각형_2284" data-name="사각형 2284" width="0.627" height="1.774" transform="translate(31.35 24.875)" fill="#fff"/>
      <rect id="사각형_2285" data-name="사각형 2285" width="6.236" height="0.627" transform="translate(28.611 26.336)" fill="#fff"/>
      <path id="패스_2822" data-name="패스 2822" d="M205.875,192.347a2.975,2.975,0,1,1,2.975,2.975,2.974,2.974,0,0,1-2.975-2.975m.626,0A2.348,2.348,0,1,0,208.85,190a2.353,2.353,0,0,0-2.349,2.348" transform="translate(-177.186 -162.984)" fill="#fff"/>
      <path id="패스_2823" data-name="패스 2823" d="M260.367,193.858v-5.8h2.244v.626h-1.617v5.176Z" transform="translate(-224.085 -161.851)" fill="#fff"/>
      <rect id="사각형_2286" data-name="사각형 2286" width="6.237" height="0.626" transform="translate(13.083 2.009)" fill="#fff"/>
      <path id="패스_2824" data-name="패스 2824" d="M94.453,17.77a2.974,2.974,0,1,1,2.974,2.974,2.974,2.974,0,0,1-2.974-2.974m.626,0a2.348,2.348,0,1,0,2.349-2.348,2.353,2.353,0,0,0-2.349,2.348" transform="translate(-81.291 -12.733)" fill="#fff"/>
      <path id="패스_2825" data-name="패스 2825" d="M148.939,19.285v-5.8h2.245v.626h-1.617v5.176Z" transform="translate(-128.185 -11.603)" fill="#fff"/>
      <rect id="사각형_2287" data-name="사각형 2287" width="0.625" height="6.768" transform="translate(36.282 33.312)" fill="#fff"/>
      <path id="패스_2826" data-name="패스 2826" d="M22.375,153.953v-2.975H23v2.349h5.423v.626Z" transform="translate(-19.257 -129.939)" fill="#fff"/>
      <path id="패스_2827" data-name="패스 2827" d="M52.27,101.311V95.8H50.652v-.626H52.9v5.506H65.132v.627ZM50.652,95.8h0Z" transform="translate(-43.594 -81.915)" fill="#fff"/>
      <rect id="사각형_2288" data-name="사각형 2288" width="0.627" height="4.305" transform="translate(41.84 28.998)" fill="#fff"/>
      <rect id="사각형_2289" data-name="사각형 2289" width="0.626" height="4.305" transform="translate(43.797 28.998)" fill="#fff"/>
      <rect id="사각형_2290" data-name="사각형 2290" width="5.37" height="0.626" transform="translate(0.28 13.263)" fill="#fff"/>
      <path id="패스_2828" data-name="패스 2828" d="M0,100.888,2.964,95l2.965,5.886-.56.281L2.964,96.395l-2.4,4.774h0Z" transform="translate(0 -81.764)" fill="#fff"/>
      <path id="패스_2829" data-name="패스 2829" d="M181.546,195.952v-6.707h-.894v6.707h-.626v-7.333h2.146v6.706h22.682v.627Z" transform="translate(-154.939 -162.335)" fill="#fff"/>
    </g>
  </g>
</svg>
