<svg id="그룹_2374" data-name="그룹 2374" xmlns="http://www.w3.org/2000/svg" xmlns:xlink="http://www.w3.org/1999/xlink" width="190.977" height="44.441" viewBox="0 0 190.977 44.441">
  <defs>
    <clipPath id="clip-path">
      <rect id="사각형_3710" data-name="사각형 3710" width="190.977" height="44.441" fill="none"/>
    </clipPath>
  </defs>
  <path id="패스_3508" data-name="패스 3508" d="M137.574,43.212V40.544h-7.263V38.534h16.825v2.011h-7.284v2.667h5.929v6.381H143.5V45.2H131.46v-1.99Zm8.166-11.593v5.458h-2.278V33.63H131.624V31.619Z" transform="translate(-71.922 -17.451)" fill="#464749"/>
  <path id="패스_3509" data-name="패스 3509" d="M184.46,40.664h-9.869V35.083H182V33.257h-7.407V31.329h9.664v5.6h-7.407v1.847h7.612Zm-8.844.964h2.237v1.518h9.869V41.629h2.236v7.1H175.617Zm12.106,3.365h-9.869V46.84h9.869Zm-.041-14.2h2.278V41.013h-2.278Z" transform="translate(-96.361 -16.996)" fill="#464749"/>
  <g id="그룹_2376" data-name="그룹 2376" transform="translate(0 0)">
    <g id="그룹_2375" data-name="그룹 2375" transform="translate(0 0)" clip-path="url(#clip-path)">
      <path id="패스_3510" data-name="패스 3510" d="M223.113,41.825V40.717H215.85V38.768h16.825v1.949h-7.284v1.108a4.686,4.686,0,0,1,.656.205,4.822,4.822,0,0,1,1.457.923,4.459,4.459,0,0,1,.985,1.344,3.875,3.875,0,0,1,0,3.3,4.459,4.459,0,0,1-.985,1.344,4.672,4.672,0,0,1-1.457.913,4.878,4.878,0,0,1-3.57,0,4.664,4.664,0,0,1-1.457-.913,4.466,4.466,0,0,1-.985-1.344,3.879,3.879,0,0,1,0-3.3,4.466,4.466,0,0,1,.985-1.344,4.814,4.814,0,0,1,1.457-.923,4.966,4.966,0,0,1,.636-.205m8.371-8.6h-6.176l6.525,3.447-1.046,1.683-6.525-3.468-6.545,3.468-1.026-1.683,6.525-3.447H217.04V31.3h14.445Zm-4.863,12.721a2.2,2.2,0,0,0-.708-1.631,2.328,2.328,0,0,0-3.3,0,2.233,2.233,0,0,0,0,3.262,2.328,2.328,0,0,0,3.3,0,2.2,2.2,0,0,0,.708-1.631" transform="translate(-119.133 -17.275)" fill="#464749"/>
      <path id="패스_3511" data-name="패스 3511" d="M268.03,35.576a4.2,4.2,0,0,1-.4,1.826,5.077,5.077,0,0,1-1.057,1.477A5.139,5.139,0,0,1,265,39.885a5.063,5.063,0,0,1-3.8,0,5.127,5.127,0,0,1-1.57-1.005,4.887,4.887,0,0,1-1.077-1.477,4.344,4.344,0,0,1,0-3.642,4.611,4.611,0,0,1,1.077-1.467,5.144,5.144,0,0,1,1.57-1.005,5.063,5.063,0,0,1,3.8,0,5.156,5.156,0,0,1,1.57,1.005,4.78,4.78,0,0,1,1.057,1.467,4.217,4.217,0,0,1,.4,1.816m-2.2.021a2.733,2.733,0,0,0-2.729-2.729,2.585,2.585,0,0,0-1.929.8,2.788,2.788,0,0,0,0,3.867,2.6,2.6,0,0,0,1.929.79,2.645,2.645,0,0,0,1.928-.79,2.617,2.617,0,0,0,.8-1.939m6.546,9.5a4.126,4.126,0,0,1-.39,1.775,4.87,4.87,0,0,1-1.026,1.446,5.212,5.212,0,0,1-1.549,1.005,4.76,4.76,0,0,1-1.877.369,4.834,4.834,0,0,1-1.888-.369,5.169,5.169,0,0,1-1.559-1.005,4.687,4.687,0,0,1-1.047-1.446,4.127,4.127,0,0,1-.39-1.775,4.2,4.2,0,0,1,.39-1.785,4.42,4.42,0,0,1,1.047-1.437,5.178,5.178,0,0,1,1.559-1.005,4.842,4.842,0,0,1,1.888-.369,4.768,4.768,0,0,1,1.877.369,5.22,5.22,0,0,1,1.549,1.005,4.581,4.581,0,0,1,1.026,1.437,4.194,4.194,0,0,1,.39,1.785m-2.216-.02a2.637,2.637,0,0,0-5.273,0,2.5,2.5,0,0,0,.769,1.847,2.547,2.547,0,0,0,1.857.759,2.584,2.584,0,0,0,1.867-.759,2.48,2.48,0,0,0,.78-1.847M273.2,40.5h-2.257V30.795H273.2v3.673h2.626v2.257H273.2Z" transform="translate(-142.485 -16.997)" fill="#464749"/>
      <path id="패스_3512" data-name="패스 3512" d="M302.742,42.36V32.9h14.116v1.99H305V40.37h11.9v1.99h-5.971v4.535h7.284v2.011H301.388V46.895h7.263V42.36Z" transform="translate(-166.343 -18.159)" fill="#464749"/>
      <path id="패스_3513" data-name="패스 3513" d="M349.187,30.918l5.991,14.793-2.031.882-3.96-10.033-3.939,10.177-2.052-.9Zm8.207,8.166H353.8V37.073h3.59V30.795h2.278V49.1h-2.278Z" transform="translate(-189.418 -16.997)" fill="#464749"/>
      <path id="패스_3514" data-name="패스 3514" d="M398.166,39.761v1.99h-11.88v-1.99H390V35.678h2.257v4.083ZM394.9,38.018V33.155h-7.8v-1.99H397.14v6.853Zm-7.325,10.772v-5.5h2.278v3.488h12.311v2.011Zm14.26-5.971h-2.278V30.795h2.278v4.924h2.339v2.072h-2.339Z" transform="translate(-213.201 -16.997)" fill="#464749"/>
      <path id="패스_3515" data-name="패스 3515" d="M34.308,21.208a8.011,8.011,0,0,0-11.4,2.392,8.02,8.02,0,0,1-14.5-2.2h0c-.007-.03-.014-.054-.023-.083s-.017-.067-.026-.1a10.291,10.291,0,0,1-.41-3.186c0-7.187,7.373-15.189,17.995-15.189a20.255,20.255,0,0,1,18.7,12.881c-.026-.081-.052-.162-.081-.245A22.9,22.9,0,0,0,0,22.9C0,34.206,8.154,43.884,19.464,43.884A18.4,18.4,0,0,0,37.329,31.855a8.826,8.826,0,0,0-3.021-10.647" transform="translate(0 0)" fill="#002c52"/>
      <path id="패스_3516" data-name="패스 3516" d="M54.587,19.651A20.192,20.192,0,0,0,35.742,6.324c-10.621,0-17.995,8-17.995,15.189a10.3,10.3,0,0,0,.41,3.187,6.743,6.743,0,0,1-.211-1.635c0-7.485,7.495-12.672,15.2-12.672A18.884,18.884,0,0,1,52.029,29.275,20.817,20.817,0,0,1,40.488,47.926l0,0a22.909,22.909,0,0,0,15.1-21.541,22.639,22.639,0,0,0-1.007-6.739" transform="translate(-9.795 -3.49)" fill="#e5002b"/>
    </g>
  </g>
</svg>
