<svg xmlns="http://www.w3.org/2000/svg" xmlns:xlink="http://www.w3.org/1999/xlink" width="189.468" height="39.207" viewBox="0 0 189.468 39.207">
  <defs>
    <clipPath id="clip-path">
      <rect id="사각형_3708" data-name="사각형 3708" width="189.468" height="39.206" fill="none"/>
    </clipPath>
  </defs>
  <g id="그룹_2373" data-name="그룹 2373" transform="translate(0 0)">
    <g id="그룹_2372" data-name="그룹 2372" transform="translate(0 0)" clip-path="url(#clip-path)">
      <path id="패스_3490" data-name="패스 3490" d="M38.424,13.92A16.773,16.773,0,0,0,34.01,6.728h.035a3.974,3.974,0,0,0-3.992-.93c-.141.035-.282.107-.388.143l-.107.108a1.6,1.6,0,0,0,.036-.393,4.073,4.073,0,0,0-2.048-3.543l-.071-.036A16.48,16.48,0,0,0,19.489,0a16.287,16.287,0,0,0-8.054,2.112h-.071A4.073,4.073,0,0,0,9.315,5.655l-.035.178H9.245a3.962,3.962,0,0,0-3.957.9l-.034.035a17.058,17.058,0,0,0-4.945,15.5v.036a4,4,0,0,0,2.684,3.078l.423.109-.247.249a4.036,4.036,0,0,0-.317,4.08l.035.036a16.838,16.838,0,0,0,13.176,9.34,4.065,4.065,0,0,0,3.71-1.681.478.478,0,0,1,.108-.179l.07.215a3.94,3.94,0,0,0,3.708,1.575h.071a16.7,16.7,0,0,0,12.9-9.736l.034.037a4.144,4.144,0,0,0-.42-4.074,4.06,4.06,0,0,0,2.645-3.012v-.072a16.8,16.8,0,0,0-.459-8.339M10.8,5.261c.671-2.47,4.8-1.753,4.8-1.753a27.232,27.232,0,0,0,3.885.321,27.527,27.527,0,0,0,3.922-.321s4.1-.717,4.769,1.753a1.455,1.455,0,0,1-.434,1.569l.01.006-.071.036c.022-.013.041-.028.061-.042a15.2,15.2,0,0,0-16.382.077l-.071-.036c-.846-.5-.494-1.61-.494-1.61M3.1,23.834C.98,22.4,2.922,18.681,2.922,18.681a24.394,24.394,0,0,0,1.484-3.687,22.29,22.29,0,0,0,.917-3.864s.6-4.187,3.145-4.079c0,0,1.13.035,1.343,1v.036A15.332,15.332,0,0,0,4.371,19.9a13.76,13.76,0,0,0,.458,3.865l-.035.072c-.706.643-1.7,0-1.7,0M18.36,36.967c-1.979,1.61-4.946-1.36-4.946-1.36a23.152,23.152,0,0,0-3-2.542,22.015,22.015,0,0,0-3.391-2s-3.78-1.826-2.932-4.223c0,0,.353-1.11,1.342-1.038l.142.108a15.21,15.21,0,0,0,13.176,9.412h.07a1.485,1.485,0,0,1-.458,1.646m1.223-2.143A14.913,14.913,0,1,1,34.3,19.913a14.817,14.817,0,0,1-14.72,14.912m12.872-4.013A22.677,22.677,0,0,0,29.1,32.925,26.978,26.978,0,0,0,26.167,35.5s-2.9,3.076-4.875,1.5a1.408,1.408,0,0,1-.531-1.575l.035-.107a15.4,15.4,0,0,0,13-9.734c.988-.143,1.484.93,1.484.93.881,2.363-2.827,4.295-2.827,4.295m3.638-6.906s-1.024.679-1.766,0a14.993,14.993,0,0,0,.53-4.009A15.538,15.538,0,0,0,29.522,8.2a1.612,1.612,0,0,1,1.343-1.109c2.544-.071,3.109,4.115,3.109,4.115a27.272,27.272,0,0,0,.883,3.865,26.064,26.064,0,0,0,1.448,3.685s1.908,3.759-.212,5.155" transform="translate(0 0)" fill="#8b0030"/>
      <path id="패스_3491" data-name="패스 3491" d="M27.664,62.766v-.6H26.082v2.261h1.567v-.6h-.984V62.766Z" transform="translate(-13.769 -32.819)" fill="#8b0030"/>
      <path id="패스_3492" data-name="패스 3492" d="M31.764,62.242v.8h-.772v.6h.772v.793h.591V62.242Z" transform="translate(-16.362 -32.859)" fill="#8b0030"/>
      <path id="패스_3493" data-name="패스 3493" d="M37.825,64.433h-.536V62.82H35.71v-.554h2.115Z" transform="translate(-18.852 -32.872)" fill="#8b0030"/>
      <path id="패스_3494" data-name="패스 3494" d="M44.575,64.143l-.434.339-.793-1.3-.794,1.3-.431-.339,1.227-1.924Z" transform="translate(-22.238 -32.847)" fill="#8b0030"/>
      <path id="패스_3495" data-name="패스 3495" d="M49.139,62.273v.814H48.27v.6h.869v.747h.591v-2.16Z" transform="translate(-25.483 -32.876)" fill="#8b0030"/>
      <path id="패스_3496" data-name="패스 3496" d="M53.065,63.35a1.07,1.07,0,1,0,1.071-1.083,1.077,1.077,0,0,0-1.071,1.083m.591,0a.479.479,0,1,1,.48.485.482.482,0,0,1-.48-.485" transform="translate(-28.015 -32.872)" fill="#8b0030"/>
      <path id="패스_3497" data-name="패스 3497" d="M39.54,24.91v.406h1.875V24.91H39.54Z" transform="translate(-20.874 -13.151)" fill="#8b0030"/>
      <rect id="사각형_3702" data-name="사각형 3702" width="0.656" height="1.721" transform="translate(10.125 20.531)" fill="#8b0030"/>
      <rect id="사각형_3703" data-name="사각형 3703" width="0.656" height="1.721" transform="translate(12.788 20.531)" fill="#8b0030"/>
      <rect id="사각형_3704" data-name="사각형 3704" width="0.583" height="0.406" transform="translate(11.493 11.965)" fill="#8b0030"/>
      <rect id="사각형_3705" data-name="사각형 3705" width="0.656" height="1.721" transform="translate(28.426 20.531)" fill="#8b0030"/>
      <rect id="사각형_3706" data-name="사각형 3706" width="0.656" height="1.721" transform="translate(25.761 20.531)" fill="#8b0030"/>
      <rect id="사각형_3707" data-name="사각형 3707" width="0.583" height="0.406" transform="translate(27.129 11.965)" fill="#8b0030"/>
      <path id="패스_3498" data-name="패스 3498" d="M38.284,18.872v-.84h-.616v-.991h-.446v.991h-.606v.83L34.8,20.606l-2.878-4.065h0v-.5h-.631v-.38h-.94v.38h-.509V14.818h-.438v1.219H28.9v-.38h-.94v.38h-.631v.5h0l-2.878,4.065-1.813-1.744v-.83h-.6v-.991h-.447v.991h-.615v.84l-1.983,1.907V35.54H40.266V20.779Zm-1.438.21h1.2l1.67,1.606H35.175c.448-.429,1.161-1.116,1.671-1.606m-1.908,1.926H39.95v.863H34.938ZM39.95,22.2v1.749a1.744,1.744,0,0,0-1.174-.4,1.689,1.689,0,0,0-1.332.561,1.688,1.688,0,0,0-1.332-.561,1.751,1.751,0,0,0-1.175.4V22.2Zm-.179,2.013h-1.99a1.6,1.6,0,0,1,1.99,0m-2.663,0h-1.99a1.6,1.6,0,0,1,1.99,0m-4.02-.622H31.269V21.007h1.818Zm-1.818-2.9V18.5c.423.558,1.295,1.708,1.655,2.186Zm-1.644,6.305h-.739V24.92h1.478v2.074Zm1.328-6.305H28.3v-2.5h2.656Zm-1.328.32h1.328v2.58h-.589v-1.11a.739.739,0,1,0-1.478,0v1.11H28.3v-2.58Zm-1.643-.32H26.326L27.982,18.5Zm0,2.9H26.163V21.007h1.818ZM27.4,26.994h-1.24V24.919H27.4Zm4.443-2.074h1.24v2.074h-1.24Zm2.775-1.054a.733.733,0,0,0-.574-.278H33.4v-2.58h1.22ZM27.488,16.86h4.275c.075.1,1.977,2.793,2.71,3.828h-1.15l-2.133-2.816H28.061l-2.132,2.816H24.778c.732-1.035,2.636-3.724,2.71-3.828m-1.64,4.148v2.58H25.2a.733.733,0,0,0-.574.278V21.008Zm-4.64-1.926h1.2l1.67,1.606H19.538l1.67-1.606M19.3,21.008h5.012v.863H19.3ZM24.312,22.2v1.749a1.746,1.746,0,0,0-1.174-.4,1.693,1.693,0,0,0-1.333.561,1.685,1.685,0,0,0-1.331-.561,1.749,1.749,0,0,0-1.175.4V22.2Zm-.179,2.013h-1.99a1.6,1.6,0,0,1,1.99,0m-2.663,0H19.48a1.6,1.6,0,0,1,1.99,0M20.324,35.22H19.3V31.5h1.023Zm-.844-4.039a1.6,1.6,0,0,1,1.99,0Zm2.168,4.039H20.638V31.5h1.011Zm1.328,0H21.964V31.5h1.013Zm-.833-4.039a1.6,1.6,0,0,1,1.99,0Zm2.169,4.039H23.291V31.5h1.022Zm0-4.3a1.742,1.742,0,0,0-1.174-.4,1.69,1.69,0,0,0-1.333.561,1.682,1.682,0,0,0-1.331-.561,1.746,1.746,0,0,0-1.175.4V27.326h5.012Zm0-3.871-5.012-.04v-.713h5.012Zm0-1.073h-.845v-.687h-.656v.687H20.8v-.687h-.655v.687H19.3V24.529h5.012Zm.316,3.516a.731.731,0,0,0,.574.278.743.743,0,0,0,.738-.727h0V27.326h.523V30.2H25.9V35.22H24.629Zm7.843,5.73H26.78V27.326H27.4v1.637a.714.714,0,0,0,0,.078.74.74,0,1,0,1.479,0h.007V27.326h1.478v1.715h.008a.739.739,0,1,0,1.478,0,.715.715,0,0,0,0-.078V27.326h.624Zm.875,0V30.2h-.559V27.326h.523v1.715a.743.743,0,0,0,.738.727.731.731,0,0,0,.574-.278v5.73Zm2.614,0H34.938V31.5H35.96Zm-.843-4.039a1.6,1.6,0,0,1,1.99,0Zm2.169,4.039H36.274V31.5h1.013Zm1.326,0H37.6V31.5h1.011Zm-.832-4.039a1.6,1.6,0,0,1,1.99,0ZM39.95,35.22H38.927V31.5H39.95Zm0-4.3a1.742,1.742,0,0,0-1.174-.4,1.686,1.686,0,0,0-1.332.561,1.685,1.685,0,0,0-1.332-.561,1.746,1.746,0,0,0-1.175.4V27.326H39.95Zm0-3.91H34.938v-.714H39.95Zm0-1.034H39.1v-.687h-.656v.687H36.439v-.687h-.655v.687h-.846V24.529H39.95Z" transform="translate(-10.023 -7.823)" fill="#8b0030"/>
      <path id="패스_3499" data-name="패스 3499" d="M39.686,46.552a1.563,1.563,0,0,0-1.643,1.533v3.322H41.33V48.095a1.566,1.566,0,0,0-1.644-1.543m1.328,4.535H38.358V48.095a1.241,1.241,0,0,1,1.32-1.224l.008-.155.008.155a1.244,1.244,0,0,1,1.32,1.234Z" transform="translate(-20.084 -24.576)" fill="#8b0030"/>
      <path id="패스_3500" data-name="패스 3500" d="M96.683,23.779a.934.934,0,0,0-.214-.621.788.788,0,0,0-.642-.256H95.4V21.83h11.136v1.927H99.275v4.82a.39.39,0,0,0,.406.428H108.7v1.927H99.251a2.613,2.613,0,0,1-1.926-.644,2.75,2.75,0,0,1-.642-2.013Zm15.869,9.272a.407.407,0,0,1,.429.429v6.747H110.3V35.194a.216.216,0,0,0-.053-.161.219.219,0,0,0-.161-.053H99.275V33.051ZM110.41,22.516a1.056,1.056,0,0,0-.213-.62.738.738,0,0,0-.642-.3h-.429v-1.07h3.855V32.2h-2.57V27.184h-5.781V25.235h5.781Z" transform="translate(-50.363 -10.836)" fill="#302d2c"/>
      <path id="패스_3501" data-name="패스 3501" d="M146.169,23.073q0,3.425,1.732,4.636a6.754,6.754,0,0,0,3.17,1.337c.072.016.106.041.106.076a.132.132,0,0,1-.042.1l-1.328,1.456a6.637,6.637,0,0,1-2.793-1.027,4.52,4.52,0,0,1-2.024-2.206.166.166,0,0,0-.161-.128.162.162,0,0,0-.161.128,4.483,4.483,0,0,1-1.98,2.217,6.285,6.285,0,0,1-2.838,1.017l-1.328-1.456a.1.1,0,0,1-.031-.1c.007-.035.038-.06.095-.076a6.876,6.876,0,0,0,3.181-1.37q1.723-1.219,1.724-4.6v-.086a.928.928,0,0,0-.225-.61.833.833,0,0,0-.675-.267H142.2V21.058h3.964ZM144.882,36.05a4.26,4.26,0,0,0,1.5,3.266,5.5,5.5,0,0,0,7.24,0,4.309,4.309,0,0,0,0-6.531,5.5,5.5,0,0,0-7.24,0,4.262,4.262,0,0,0-1.5,3.265m7.644,0a2.709,2.709,0,0,1-.737,1.95,2.392,2.392,0,0,1-1.788.771,2.361,2.361,0,0,1-1.78-.771,2.978,2.978,0,0,1,0-3.9A2.359,2.359,0,0,1,150,33.33a2.391,2.391,0,0,1,1.788.771,2.705,2.705,0,0,1,.737,1.948M153.6,24.914h-4.5v1.95h4.5v4.71h2.569V20.525h-3.853v1.07h.428a.735.735,0,0,1,.642.3,1.049,1.049,0,0,1,.214.62Z" transform="translate(-73.111 -10.836)" fill="#302d2c"/>
      <path id="패스_3502" data-name="패스 3502" d="M197.9,24.765V22.516a1.055,1.055,0,0,0-.214-.62.735.735,0,0,0-.641-.3h-.426v-1.07h3.828v19.7H197.9V30.44h-3.656a5.769,5.769,0,0,1-8.862,1.038,5.437,5.437,0,0,1,0-7.817,5.529,5.529,0,0,1,4.009-1.616,5.634,5.634,0,0,1,2.875.749,5.5,5.5,0,0,1,2.019,1.97Zm-10.647.245a3.942,3.942,0,0,0-.9,2.561,4.159,4.159,0,0,0,.854,2.569,2.6,2.6,0,0,0,2.159,1.135,2.634,2.634,0,0,0,2.181-1.113,4.069,4.069,0,0,0,.855-2.55,4.191,4.191,0,0,0-.845-2.569,2.592,2.592,0,0,0-2.169-1.135,2.681,2.681,0,0,0-2.138,1.1m7.717,1.576c.029.156.05.317.065.482s.022.33.022.5a4.171,4.171,0,0,1-.034.535c-.021.17-.047.343-.075.514H197.9V26.585Z" transform="translate(-96.993 -10.836)" fill="#302d2c"/>
      <path id="패스_3503" data-name="패스 3503" d="M227.11,23.714V21.809h10.279v1.906h-3.724v2.57a6.88,6.88,0,0,0,1.606,4.742,6.367,6.367,0,0,0,3.192,2.174c.07.015.107.037.107.065a.209.209,0,0,1-.043.107l-1.39,1.5a7.741,7.741,0,0,1-2.722-1.543,6.6,6.6,0,0,1-2.013-2.612c-.028-.087-.075-.133-.139-.138s-.118.036-.161.138a6.388,6.388,0,0,1-1.992,2.612,7.682,7.682,0,0,1-2.741,1.543l-1.391-1.5a.3.3,0,0,1-.021-.107c0-.027.029-.05.086-.065a6.364,6.364,0,0,0,3.19-2.183,6.881,6.881,0,0,0,1.606-4.733v-2.57Zm18.418,3.34v1.928h-2.784V40.226H240.2V22.516a1.06,1.06,0,0,0-.216-.62.735.735,0,0,0-.642-.3h-.428v-1.07h3.832v6.53Z" transform="translate(-119.288 -10.836)" fill="#302d2c"/>
      <path id="패스_3504" data-name="패스 3504" d="M287.433,26.736V22.473a1.038,1.038,0,0,0-.182-.62.777.777,0,0,0-.676-.258h-.235V20.526h3.533v19.7h-2.441V28.663H285.8V40.227h-2.441v-6.3a5.435,5.435,0,0,1-1.4.321,20.294,20.294,0,0,1-2.066.084h-3.663a2.619,2.619,0,0,1-1.927-.642,2.751,2.751,0,0,1-.642-2.011V23.993a.944.944,0,0,0-.215-.621.79.79,0,0,0-.642-.256h-.429V22.046h8.91v1.927h-5.034v8.01a.407.407,0,0,0,.118.32.414.414,0,0,0,.291.108h4.089A9.368,9.368,0,0,0,282.3,32.3a4.293,4.293,0,0,0,1.059-.3v-9.53a1.045,1.045,0,0,0-.183-.62.772.772,0,0,0-.676-.258h-.235V20.526H285.8v6.21Z" transform="translate(-143.796 -10.836)" fill="#302d2c"/>
      <path id="패스_3505" data-name="패스 3505" d="M318.538,25.389a4.256,4.256,0,0,1,.633-1.179h-2.356v-1.9h4.818v-.9a.626.626,0,0,0-.183-.461.516.516,0,0,0-.352-.183h-.344v-.921h3.621v2.464h4.861v1.9h-2.4a4.331,4.331,0,0,1,.633,1.179,4.089,4.089,0,0,1,.224,1.349,4.131,4.131,0,0,1-1.382,3.118,4.877,4.877,0,0,1-6.618,0,4.12,4.12,0,0,1-1.381-3.118,4.041,4.041,0,0,1,.224-1.349m14.98,7.2a.4.4,0,0,1,.429.427v6.853h-2.676v-5.14a.212.212,0,0,0-.055-.16.214.214,0,0,0-.16-.054H320.24V32.586Zm-11.906-7.572a2.586,2.586,0,0,0-.622,1.724,2.808,2.808,0,0,0,.578,1.745,1.756,1.756,0,0,0,1.457.759,1.777,1.777,0,0,0,1.455-.736,2.727,2.727,0,0,0,.58-1.725,2.831,2.831,0,0,0-.568-1.756,1.737,1.737,0,0,0-1.446-.749,1.833,1.833,0,0,0-1.434.738m15.119-.782v2.142h-2.784v5.353h-2.57V22.156a1.05,1.05,0,0,0-.213-.62.74.74,0,0,0-.642-.3h-.43V20.165h3.855v4.068Z" transform="translate(-167.256 -10.475)" fill="#302d2c"/>
      <path id="패스_3506" data-name="패스 3506" d="M380.3,37.57v1.95H361.475V37.57H366.3V31.534a.851.851,0,0,0-.205-.591.7.7,0,0,0-.547-.225H365.2V29.669h3.6v7.9h2.034V31.534a.854.854,0,0,0-.2-.591.7.7,0,0,0-.547-.225h-.342V29.669h3.6v7.9Zm-4.755-11.992a.46.46,0,0,0-.084-.321.5.5,0,0,0-.343-.085H363.576V23.244h14.393a.248.248,0,0,1,.17.044.253.253,0,0,1,.043.17V29.69a18.781,18.781,0,0,1-.255,3.45,6.949,6.949,0,0,1-.88,2.311h-2.527a6.586,6.586,0,0,0,.824-2.42,25.193,25.193,0,0,0,.2-3.577Z" transform="translate(-190.833 -12.271)" fill="#302d2c"/>
    </g>
  </g>
</svg>
